%TF.GenerationSoftware,KiCad,Pcbnew,5.1.9*%
%TF.CreationDate,2021-03-28T04:41:59-04:00*%
%TF.ProjectId,C68,4336382e-6b69-4636-9164-5f7063625858,rev?*%
%TF.SameCoordinates,Original*%
%TF.FileFunction,Soldermask,Top*%
%TF.FilePolarity,Negative*%
%FSLAX46Y46*%
G04 Gerber Fmt 4.6, Leading zero omitted, Abs format (unit mm)*
G04 Created by KiCad (PCBNEW 5.1.9) date 2021-03-28 04:41:59*
%MOMM*%
%LPD*%
G01*
G04 APERTURE LIST*
%TA.AperFunction,Profile*%
%ADD10C,0.050000*%
%TD*%
%ADD11R,1.950000X0.600000*%
%ADD12O,2.200000X1.700000*%
%ADD13R,1.200000X1.200000*%
%ADD14C,1.200000*%
%ADD15O,1.700000X1.700000*%
%ADD16R,1.700000X1.700000*%
%ADD17R,1.500000X0.600000*%
%ADD18R,2.000000X0.600000*%
%ADD19C,2.000000*%
%ADD20C,1.397000*%
%ADD21R,1.397000X1.397000*%
%ADD22C,2.410000*%
%ADD23O,1.200000X2.000000*%
%ADD24C,6.000000*%
%ADD25R,0.230000X1.200000*%
%ADD26R,1.200000X0.230000*%
%ADD27R,1.450000X0.450000*%
%ADD28C,0.150000*%
%ADD29C,1.600000*%
%ADD30R,1.600000X1.600000*%
%ADD31C,4.000000*%
%ADD32R,0.600000X1.500000*%
%ADD33C,1.422400*%
%ADD34R,1.422400X1.422400*%
%ADD35C,1.750000*%
%ADD36R,3.500000X2.000000*%
%ADD37O,3.300000X2.700000*%
%ADD38C,1.524000*%
%ADD39C,1.500000*%
%ADD40C,3.250000*%
%ADD41R,1.500000X1.500000*%
%ADD42R,2.000000X4.500000*%
%ADD43R,1.600000X2.400000*%
%ADD44O,1.600000X2.400000*%
%ADD45C,1.800000*%
%ADD46R,1.800000X1.800000*%
%ADD47O,1.727200X1.727200*%
%ADD48R,1.727200X1.727200*%
G04 APERTURE END LIST*
D10*
X304000000Y-210000000D02*
X90000000Y-210000000D01*
X304000000Y-40000000D02*
X304000000Y-210000000D01*
X90000000Y-40000000D02*
X304000000Y-40000000D01*
X90000000Y-210000000D02*
X90000000Y-40000000D01*
D11*
X189390000Y-151395000D03*
X189390000Y-152665000D03*
X189390000Y-153935000D03*
X189390000Y-155205000D03*
X189390000Y-156475000D03*
X189390000Y-157745000D03*
X189390000Y-159015000D03*
X189390000Y-160285000D03*
X189390000Y-161555000D03*
X189390000Y-162825000D03*
X179990000Y-162825000D03*
X179990000Y-161555000D03*
X179990000Y-160285000D03*
X179990000Y-159015000D03*
X179990000Y-157745000D03*
X179990000Y-156475000D03*
X179990000Y-155205000D03*
X179990000Y-153935000D03*
X179990000Y-152665000D03*
X179990000Y-151395000D03*
G36*
G01*
X217064012Y-70783184D02*
X217539012Y-70783184D01*
G75*
G02*
X217776512Y-71020684I0J-237500D01*
G01*
X217776512Y-71595684D01*
G75*
G02*
X217539012Y-71833184I-237500J0D01*
G01*
X217064012Y-71833184D01*
G75*
G02*
X216826512Y-71595684I0J237500D01*
G01*
X216826512Y-71020684D01*
G75*
G02*
X217064012Y-70783184I237500J0D01*
G01*
G37*
G36*
G01*
X217064012Y-72533184D02*
X217539012Y-72533184D01*
G75*
G02*
X217776512Y-72770684I0J-237500D01*
G01*
X217776512Y-73345684D01*
G75*
G02*
X217539012Y-73583184I-237500J0D01*
G01*
X217064012Y-73583184D01*
G75*
G02*
X216826512Y-73345684I0J237500D01*
G01*
X216826512Y-72770684D01*
G75*
G02*
X217064012Y-72533184I237500J0D01*
G01*
G37*
D12*
X105430000Y-65220000D03*
X110510000Y-65220000D03*
X105430000Y-67760000D03*
X105430000Y-70300000D03*
X105430000Y-72840000D03*
X105430000Y-75380000D03*
X105430000Y-77920000D03*
X105430000Y-80460000D03*
X105430000Y-83000000D03*
X105430000Y-85540000D03*
X105430000Y-88080000D03*
X105430000Y-90620000D03*
X105430000Y-93160000D03*
X105430000Y-95700000D03*
X105430000Y-98240000D03*
X105430000Y-100780000D03*
X105430000Y-103320000D03*
X105430000Y-105860000D03*
X105430000Y-108400000D03*
X105430000Y-110940000D03*
X105430000Y-113480000D03*
X105430000Y-116020000D03*
X105430000Y-118560000D03*
X105430000Y-121100000D03*
X105430000Y-123640000D03*
X105430000Y-126180000D03*
X105430000Y-128720000D03*
X105430000Y-131260000D03*
X105430000Y-133800000D03*
X105430000Y-136340000D03*
X105430000Y-138880000D03*
X105430000Y-141420000D03*
X110510000Y-67760000D03*
X110510000Y-70300000D03*
X110510000Y-72840000D03*
X110510000Y-75380000D03*
X110510000Y-77920000D03*
X110510000Y-80460000D03*
X110510000Y-83000000D03*
X110510000Y-85540000D03*
X110510000Y-88080000D03*
X110510000Y-90620000D03*
X110510000Y-93160000D03*
X110510000Y-95700000D03*
X110510000Y-98240000D03*
X110510000Y-100780000D03*
X110510000Y-103320000D03*
X110510000Y-105860000D03*
X110510000Y-108400000D03*
X110510000Y-110940000D03*
X110510000Y-113480000D03*
X110510000Y-116020000D03*
X110510000Y-118560000D03*
X110510000Y-121100000D03*
X110510000Y-123640000D03*
X110510000Y-126180000D03*
X110510000Y-128720000D03*
X110510000Y-131260000D03*
X110510000Y-133800000D03*
X110510000Y-136340000D03*
X110510000Y-138880000D03*
X110510000Y-141420000D03*
D13*
X296250000Y-199320000D03*
D14*
X296250000Y-196780000D03*
X296250000Y-194240000D03*
X301330000Y-199320000D03*
X301330000Y-194240000D03*
G36*
G01*
X198490000Y-141735000D02*
X198490000Y-140485000D01*
G75*
G02*
X198740000Y-140235000I250000J0D01*
G01*
X199665000Y-140235000D01*
G75*
G02*
X199915000Y-140485000I0J-250000D01*
G01*
X199915000Y-141735000D01*
G75*
G02*
X199665000Y-141985000I-250000J0D01*
G01*
X198740000Y-141985000D01*
G75*
G02*
X198490000Y-141735000I0J250000D01*
G01*
G37*
G36*
G01*
X201465000Y-141735000D02*
X201465000Y-140485000D01*
G75*
G02*
X201715000Y-140235000I250000J0D01*
G01*
X202640000Y-140235000D01*
G75*
G02*
X202890000Y-140485000I0J-250000D01*
G01*
X202890000Y-141735000D01*
G75*
G02*
X202640000Y-141985000I-250000J0D01*
G01*
X201715000Y-141985000D01*
G75*
G02*
X201465000Y-141735000I0J250000D01*
G01*
G37*
G36*
G01*
X214655000Y-96617500D02*
X213405000Y-96617500D01*
G75*
G02*
X213155000Y-96367500I0J250000D01*
G01*
X213155000Y-95442500D01*
G75*
G02*
X213405000Y-95192500I250000J0D01*
G01*
X214655000Y-95192500D01*
G75*
G02*
X214905000Y-95442500I0J-250000D01*
G01*
X214905000Y-96367500D01*
G75*
G02*
X214655000Y-96617500I-250000J0D01*
G01*
G37*
G36*
G01*
X214655000Y-93642500D02*
X213405000Y-93642500D01*
G75*
G02*
X213155000Y-93392500I0J250000D01*
G01*
X213155000Y-92467500D01*
G75*
G02*
X213405000Y-92217500I250000J0D01*
G01*
X214655000Y-92217500D01*
G75*
G02*
X214905000Y-92467500I0J-250000D01*
G01*
X214905000Y-93392500D01*
G75*
G02*
X214655000Y-93642500I-250000J0D01*
G01*
G37*
D15*
X277740000Y-90230000D03*
X275200000Y-90230000D03*
X277740000Y-87690000D03*
X275200000Y-87690000D03*
X277740000Y-85150000D03*
D16*
X275200000Y-85150000D03*
G36*
G01*
X187578233Y-105300820D02*
X188515149Y-106237736D01*
G75*
G02*
X188515149Y-106343802I-53033J-53033D01*
G01*
X188409083Y-106449868D01*
G75*
G02*
X188303017Y-106449868I-53033J53033D01*
G01*
X187366101Y-105512952D01*
G75*
G02*
X187366101Y-105406886I53033J53033D01*
G01*
X187472167Y-105300820D01*
G75*
G02*
X187578233Y-105300820I53033J-53033D01*
G01*
G37*
G36*
G01*
X187224679Y-105654373D02*
X188161595Y-106591289D01*
G75*
G02*
X188161595Y-106697355I-53033J-53033D01*
G01*
X188055529Y-106803421D01*
G75*
G02*
X187949463Y-106803421I-53033J53033D01*
G01*
X187012547Y-105866505D01*
G75*
G02*
X187012547Y-105760439I53033J53033D01*
G01*
X187118613Y-105654373D01*
G75*
G02*
X187224679Y-105654373I53033J-53033D01*
G01*
G37*
G36*
G01*
X186871126Y-106007927D02*
X187808042Y-106944843D01*
G75*
G02*
X187808042Y-107050909I-53033J-53033D01*
G01*
X187701976Y-107156975D01*
G75*
G02*
X187595910Y-107156975I-53033J53033D01*
G01*
X186658994Y-106220059D01*
G75*
G02*
X186658994Y-106113993I53033J53033D01*
G01*
X186765060Y-106007927D01*
G75*
G02*
X186871126Y-106007927I53033J-53033D01*
G01*
G37*
G36*
G01*
X186517572Y-106361480D02*
X187454488Y-107298396D01*
G75*
G02*
X187454488Y-107404462I-53033J-53033D01*
G01*
X187348422Y-107510528D01*
G75*
G02*
X187242356Y-107510528I-53033J53033D01*
G01*
X186305440Y-106573612D01*
G75*
G02*
X186305440Y-106467546I53033J53033D01*
G01*
X186411506Y-106361480D01*
G75*
G02*
X186517572Y-106361480I53033J-53033D01*
G01*
G37*
G36*
G01*
X186164019Y-106715033D02*
X187100935Y-107651949D01*
G75*
G02*
X187100935Y-107758015I-53033J-53033D01*
G01*
X186994869Y-107864081D01*
G75*
G02*
X186888803Y-107864081I-53033J53033D01*
G01*
X185951887Y-106927165D01*
G75*
G02*
X185951887Y-106821099I53033J53033D01*
G01*
X186057953Y-106715033D01*
G75*
G02*
X186164019Y-106715033I53033J-53033D01*
G01*
G37*
G36*
G01*
X185810466Y-107068587D02*
X186747382Y-108005503D01*
G75*
G02*
X186747382Y-108111569I-53033J-53033D01*
G01*
X186641316Y-108217635D01*
G75*
G02*
X186535250Y-108217635I-53033J53033D01*
G01*
X185598334Y-107280719D01*
G75*
G02*
X185598334Y-107174653I53033J53033D01*
G01*
X185704400Y-107068587D01*
G75*
G02*
X185810466Y-107068587I53033J-53033D01*
G01*
G37*
G36*
G01*
X185456912Y-107422140D02*
X186393828Y-108359056D01*
G75*
G02*
X186393828Y-108465122I-53033J-53033D01*
G01*
X186287762Y-108571188D01*
G75*
G02*
X186181696Y-108571188I-53033J53033D01*
G01*
X185244780Y-107634272D01*
G75*
G02*
X185244780Y-107528206I53033J53033D01*
G01*
X185350846Y-107422140D01*
G75*
G02*
X185456912Y-107422140I53033J-53033D01*
G01*
G37*
G36*
G01*
X185103359Y-107775693D02*
X186040275Y-108712609D01*
G75*
G02*
X186040275Y-108818675I-53033J-53033D01*
G01*
X185934209Y-108924741D01*
G75*
G02*
X185828143Y-108924741I-53033J53033D01*
G01*
X184891227Y-107987825D01*
G75*
G02*
X184891227Y-107881759I53033J53033D01*
G01*
X184997293Y-107775693D01*
G75*
G02*
X185103359Y-107775693I53033J-53033D01*
G01*
G37*
G36*
G01*
X184749805Y-108129247D02*
X185686721Y-109066163D01*
G75*
G02*
X185686721Y-109172229I-53033J-53033D01*
G01*
X185580655Y-109278295D01*
G75*
G02*
X185474589Y-109278295I-53033J53033D01*
G01*
X184537673Y-108341379D01*
G75*
G02*
X184537673Y-108235313I53033J53033D01*
G01*
X184643739Y-108129247D01*
G75*
G02*
X184749805Y-108129247I53033J-53033D01*
G01*
G37*
G36*
G01*
X184396252Y-108482800D02*
X185333168Y-109419716D01*
G75*
G02*
X185333168Y-109525782I-53033J-53033D01*
G01*
X185227102Y-109631848D01*
G75*
G02*
X185121036Y-109631848I-53033J53033D01*
G01*
X184184120Y-108694932D01*
G75*
G02*
X184184120Y-108588866I53033J53033D01*
G01*
X184290186Y-108482800D01*
G75*
G02*
X184396252Y-108482800I53033J-53033D01*
G01*
G37*
G36*
G01*
X184042699Y-108836354D02*
X184979615Y-109773270D01*
G75*
G02*
X184979615Y-109879336I-53033J-53033D01*
G01*
X184873549Y-109985402D01*
G75*
G02*
X184767483Y-109985402I-53033J53033D01*
G01*
X183830567Y-109048486D01*
G75*
G02*
X183830567Y-108942420I53033J53033D01*
G01*
X183936633Y-108836354D01*
G75*
G02*
X184042699Y-108836354I53033J-53033D01*
G01*
G37*
G36*
G01*
X183689145Y-109189907D02*
X184626061Y-110126823D01*
G75*
G02*
X184626061Y-110232889I-53033J-53033D01*
G01*
X184519995Y-110338955D01*
G75*
G02*
X184413929Y-110338955I-53033J53033D01*
G01*
X183477013Y-109402039D01*
G75*
G02*
X183477013Y-109295973I53033J53033D01*
G01*
X183583079Y-109189907D01*
G75*
G02*
X183689145Y-109189907I53033J-53033D01*
G01*
G37*
G36*
G01*
X183335592Y-109543460D02*
X184272508Y-110480376D01*
G75*
G02*
X184272508Y-110586442I-53033J-53033D01*
G01*
X184166442Y-110692508D01*
G75*
G02*
X184060376Y-110692508I-53033J53033D01*
G01*
X183123460Y-109755592D01*
G75*
G02*
X183123460Y-109649526I53033J53033D01*
G01*
X183229526Y-109543460D01*
G75*
G02*
X183335592Y-109543460I53033J-53033D01*
G01*
G37*
G36*
G01*
X182982039Y-109897014D02*
X183918955Y-110833930D01*
G75*
G02*
X183918955Y-110939996I-53033J-53033D01*
G01*
X183812889Y-111046062D01*
G75*
G02*
X183706823Y-111046062I-53033J53033D01*
G01*
X182769907Y-110109146D01*
G75*
G02*
X182769907Y-110003080I53033J53033D01*
G01*
X182875973Y-109897014D01*
G75*
G02*
X182982039Y-109897014I53033J-53033D01*
G01*
G37*
G36*
G01*
X182628485Y-110250567D02*
X183565401Y-111187483D01*
G75*
G02*
X183565401Y-111293549I-53033J-53033D01*
G01*
X183459335Y-111399615D01*
G75*
G02*
X183353269Y-111399615I-53033J53033D01*
G01*
X182416353Y-110462699D01*
G75*
G02*
X182416353Y-110356633I53033J53033D01*
G01*
X182522419Y-110250567D01*
G75*
G02*
X182628485Y-110250567I53033J-53033D01*
G01*
G37*
G36*
G01*
X182274932Y-110604121D02*
X183211848Y-111541037D01*
G75*
G02*
X183211848Y-111647103I-53033J-53033D01*
G01*
X183105782Y-111753169D01*
G75*
G02*
X182999716Y-111753169I-53033J53033D01*
G01*
X182062800Y-110816253D01*
G75*
G02*
X182062800Y-110710187I53033J53033D01*
G01*
X182168866Y-110604121D01*
G75*
G02*
X182274932Y-110604121I53033J-53033D01*
G01*
G37*
G36*
G01*
X180401098Y-110604121D02*
X180507164Y-110710187D01*
G75*
G02*
X180507164Y-110816253I-53033J-53033D01*
G01*
X179570248Y-111753169D01*
G75*
G02*
X179464182Y-111753169I-53033J53033D01*
G01*
X179358116Y-111647103D01*
G75*
G02*
X179358116Y-111541037I53033J53033D01*
G01*
X180295032Y-110604121D01*
G75*
G02*
X180401098Y-110604121I53033J-53033D01*
G01*
G37*
G36*
G01*
X180047545Y-110250567D02*
X180153611Y-110356633D01*
G75*
G02*
X180153611Y-110462699I-53033J-53033D01*
G01*
X179216695Y-111399615D01*
G75*
G02*
X179110629Y-111399615I-53033J53033D01*
G01*
X179004563Y-111293549D01*
G75*
G02*
X179004563Y-111187483I53033J53033D01*
G01*
X179941479Y-110250567D01*
G75*
G02*
X180047545Y-110250567I53033J-53033D01*
G01*
G37*
G36*
G01*
X179693991Y-109897014D02*
X179800057Y-110003080D01*
G75*
G02*
X179800057Y-110109146I-53033J-53033D01*
G01*
X178863141Y-111046062D01*
G75*
G02*
X178757075Y-111046062I-53033J53033D01*
G01*
X178651009Y-110939996D01*
G75*
G02*
X178651009Y-110833930I53033J53033D01*
G01*
X179587925Y-109897014D01*
G75*
G02*
X179693991Y-109897014I53033J-53033D01*
G01*
G37*
G36*
G01*
X179340438Y-109543460D02*
X179446504Y-109649526D01*
G75*
G02*
X179446504Y-109755592I-53033J-53033D01*
G01*
X178509588Y-110692508D01*
G75*
G02*
X178403522Y-110692508I-53033J53033D01*
G01*
X178297456Y-110586442D01*
G75*
G02*
X178297456Y-110480376I53033J53033D01*
G01*
X179234372Y-109543460D01*
G75*
G02*
X179340438Y-109543460I53033J-53033D01*
G01*
G37*
G36*
G01*
X178986885Y-109189907D02*
X179092951Y-109295973D01*
G75*
G02*
X179092951Y-109402039I-53033J-53033D01*
G01*
X178156035Y-110338955D01*
G75*
G02*
X178049969Y-110338955I-53033J53033D01*
G01*
X177943903Y-110232889D01*
G75*
G02*
X177943903Y-110126823I53033J53033D01*
G01*
X178880819Y-109189907D01*
G75*
G02*
X178986885Y-109189907I53033J-53033D01*
G01*
G37*
G36*
G01*
X178633331Y-108836354D02*
X178739397Y-108942420D01*
G75*
G02*
X178739397Y-109048486I-53033J-53033D01*
G01*
X177802481Y-109985402D01*
G75*
G02*
X177696415Y-109985402I-53033J53033D01*
G01*
X177590349Y-109879336D01*
G75*
G02*
X177590349Y-109773270I53033J53033D01*
G01*
X178527265Y-108836354D01*
G75*
G02*
X178633331Y-108836354I53033J-53033D01*
G01*
G37*
G36*
G01*
X178279778Y-108482800D02*
X178385844Y-108588866D01*
G75*
G02*
X178385844Y-108694932I-53033J-53033D01*
G01*
X177448928Y-109631848D01*
G75*
G02*
X177342862Y-109631848I-53033J53033D01*
G01*
X177236796Y-109525782D01*
G75*
G02*
X177236796Y-109419716I53033J53033D01*
G01*
X178173712Y-108482800D01*
G75*
G02*
X178279778Y-108482800I53033J-53033D01*
G01*
G37*
G36*
G01*
X177926225Y-108129247D02*
X178032291Y-108235313D01*
G75*
G02*
X178032291Y-108341379I-53033J-53033D01*
G01*
X177095375Y-109278295D01*
G75*
G02*
X176989309Y-109278295I-53033J53033D01*
G01*
X176883243Y-109172229D01*
G75*
G02*
X176883243Y-109066163I53033J53033D01*
G01*
X177820159Y-108129247D01*
G75*
G02*
X177926225Y-108129247I53033J-53033D01*
G01*
G37*
G36*
G01*
X177572671Y-107775693D02*
X177678737Y-107881759D01*
G75*
G02*
X177678737Y-107987825I-53033J-53033D01*
G01*
X176741821Y-108924741D01*
G75*
G02*
X176635755Y-108924741I-53033J53033D01*
G01*
X176529689Y-108818675D01*
G75*
G02*
X176529689Y-108712609I53033J53033D01*
G01*
X177466605Y-107775693D01*
G75*
G02*
X177572671Y-107775693I53033J-53033D01*
G01*
G37*
G36*
G01*
X177219118Y-107422140D02*
X177325184Y-107528206D01*
G75*
G02*
X177325184Y-107634272I-53033J-53033D01*
G01*
X176388268Y-108571188D01*
G75*
G02*
X176282202Y-108571188I-53033J53033D01*
G01*
X176176136Y-108465122D01*
G75*
G02*
X176176136Y-108359056I53033J53033D01*
G01*
X177113052Y-107422140D01*
G75*
G02*
X177219118Y-107422140I53033J-53033D01*
G01*
G37*
G36*
G01*
X176865564Y-107068587D02*
X176971630Y-107174653D01*
G75*
G02*
X176971630Y-107280719I-53033J-53033D01*
G01*
X176034714Y-108217635D01*
G75*
G02*
X175928648Y-108217635I-53033J53033D01*
G01*
X175822582Y-108111569D01*
G75*
G02*
X175822582Y-108005503I53033J53033D01*
G01*
X176759498Y-107068587D01*
G75*
G02*
X176865564Y-107068587I53033J-53033D01*
G01*
G37*
G36*
G01*
X176512011Y-106715033D02*
X176618077Y-106821099D01*
G75*
G02*
X176618077Y-106927165I-53033J-53033D01*
G01*
X175681161Y-107864081D01*
G75*
G02*
X175575095Y-107864081I-53033J53033D01*
G01*
X175469029Y-107758015D01*
G75*
G02*
X175469029Y-107651949I53033J53033D01*
G01*
X176405945Y-106715033D01*
G75*
G02*
X176512011Y-106715033I53033J-53033D01*
G01*
G37*
G36*
G01*
X176158458Y-106361480D02*
X176264524Y-106467546D01*
G75*
G02*
X176264524Y-106573612I-53033J-53033D01*
G01*
X175327608Y-107510528D01*
G75*
G02*
X175221542Y-107510528I-53033J53033D01*
G01*
X175115476Y-107404462D01*
G75*
G02*
X175115476Y-107298396I53033J53033D01*
G01*
X176052392Y-106361480D01*
G75*
G02*
X176158458Y-106361480I53033J-53033D01*
G01*
G37*
G36*
G01*
X175804904Y-106007927D02*
X175910970Y-106113993D01*
G75*
G02*
X175910970Y-106220059I-53033J-53033D01*
G01*
X174974054Y-107156975D01*
G75*
G02*
X174867988Y-107156975I-53033J53033D01*
G01*
X174761922Y-107050909D01*
G75*
G02*
X174761922Y-106944843I53033J53033D01*
G01*
X175698838Y-106007927D01*
G75*
G02*
X175804904Y-106007927I53033J-53033D01*
G01*
G37*
G36*
G01*
X175451351Y-105654373D02*
X175557417Y-105760439D01*
G75*
G02*
X175557417Y-105866505I-53033J-53033D01*
G01*
X174620501Y-106803421D01*
G75*
G02*
X174514435Y-106803421I-53033J53033D01*
G01*
X174408369Y-106697355D01*
G75*
G02*
X174408369Y-106591289I53033J53033D01*
G01*
X175345285Y-105654373D01*
G75*
G02*
X175451351Y-105654373I53033J-53033D01*
G01*
G37*
G36*
G01*
X175097797Y-105300820D02*
X175203863Y-105406886D01*
G75*
G02*
X175203863Y-105512952I-53033J-53033D01*
G01*
X174266947Y-106449868D01*
G75*
G02*
X174160881Y-106449868I-53033J53033D01*
G01*
X174054815Y-106343802D01*
G75*
G02*
X174054815Y-106237736I53033J53033D01*
G01*
X174991731Y-105300820D01*
G75*
G02*
X175097797Y-105300820I53033J-53033D01*
G01*
G37*
G36*
G01*
X174266947Y-102596136D02*
X175203863Y-103533052D01*
G75*
G02*
X175203863Y-103639118I-53033J-53033D01*
G01*
X175097797Y-103745184D01*
G75*
G02*
X174991731Y-103745184I-53033J53033D01*
G01*
X174054815Y-102808268D01*
G75*
G02*
X174054815Y-102702202I53033J53033D01*
G01*
X174160881Y-102596136D01*
G75*
G02*
X174266947Y-102596136I53033J-53033D01*
G01*
G37*
G36*
G01*
X174620501Y-102242583D02*
X175557417Y-103179499D01*
G75*
G02*
X175557417Y-103285565I-53033J-53033D01*
G01*
X175451351Y-103391631D01*
G75*
G02*
X175345285Y-103391631I-53033J53033D01*
G01*
X174408369Y-102454715D01*
G75*
G02*
X174408369Y-102348649I53033J53033D01*
G01*
X174514435Y-102242583D01*
G75*
G02*
X174620501Y-102242583I53033J-53033D01*
G01*
G37*
G36*
G01*
X174974054Y-101889029D02*
X175910970Y-102825945D01*
G75*
G02*
X175910970Y-102932011I-53033J-53033D01*
G01*
X175804904Y-103038077D01*
G75*
G02*
X175698838Y-103038077I-53033J53033D01*
G01*
X174761922Y-102101161D01*
G75*
G02*
X174761922Y-101995095I53033J53033D01*
G01*
X174867988Y-101889029D01*
G75*
G02*
X174974054Y-101889029I53033J-53033D01*
G01*
G37*
G36*
G01*
X175327608Y-101535476D02*
X176264524Y-102472392D01*
G75*
G02*
X176264524Y-102578458I-53033J-53033D01*
G01*
X176158458Y-102684524D01*
G75*
G02*
X176052392Y-102684524I-53033J53033D01*
G01*
X175115476Y-101747608D01*
G75*
G02*
X175115476Y-101641542I53033J53033D01*
G01*
X175221542Y-101535476D01*
G75*
G02*
X175327608Y-101535476I53033J-53033D01*
G01*
G37*
G36*
G01*
X175681161Y-101181923D02*
X176618077Y-102118839D01*
G75*
G02*
X176618077Y-102224905I-53033J-53033D01*
G01*
X176512011Y-102330971D01*
G75*
G02*
X176405945Y-102330971I-53033J53033D01*
G01*
X175469029Y-101394055D01*
G75*
G02*
X175469029Y-101287989I53033J53033D01*
G01*
X175575095Y-101181923D01*
G75*
G02*
X175681161Y-101181923I53033J-53033D01*
G01*
G37*
G36*
G01*
X176034714Y-100828369D02*
X176971630Y-101765285D01*
G75*
G02*
X176971630Y-101871351I-53033J-53033D01*
G01*
X176865564Y-101977417D01*
G75*
G02*
X176759498Y-101977417I-53033J53033D01*
G01*
X175822582Y-101040501D01*
G75*
G02*
X175822582Y-100934435I53033J53033D01*
G01*
X175928648Y-100828369D01*
G75*
G02*
X176034714Y-100828369I53033J-53033D01*
G01*
G37*
G36*
G01*
X176388268Y-100474816D02*
X177325184Y-101411732D01*
G75*
G02*
X177325184Y-101517798I-53033J-53033D01*
G01*
X177219118Y-101623864D01*
G75*
G02*
X177113052Y-101623864I-53033J53033D01*
G01*
X176176136Y-100686948D01*
G75*
G02*
X176176136Y-100580882I53033J53033D01*
G01*
X176282202Y-100474816D01*
G75*
G02*
X176388268Y-100474816I53033J-53033D01*
G01*
G37*
G36*
G01*
X176741821Y-100121263D02*
X177678737Y-101058179D01*
G75*
G02*
X177678737Y-101164245I-53033J-53033D01*
G01*
X177572671Y-101270311D01*
G75*
G02*
X177466605Y-101270311I-53033J53033D01*
G01*
X176529689Y-100333395D01*
G75*
G02*
X176529689Y-100227329I53033J53033D01*
G01*
X176635755Y-100121263D01*
G75*
G02*
X176741821Y-100121263I53033J-53033D01*
G01*
G37*
G36*
G01*
X177095375Y-99767709D02*
X178032291Y-100704625D01*
G75*
G02*
X178032291Y-100810691I-53033J-53033D01*
G01*
X177926225Y-100916757D01*
G75*
G02*
X177820159Y-100916757I-53033J53033D01*
G01*
X176883243Y-99979841D01*
G75*
G02*
X176883243Y-99873775I53033J53033D01*
G01*
X176989309Y-99767709D01*
G75*
G02*
X177095375Y-99767709I53033J-53033D01*
G01*
G37*
G36*
G01*
X177448928Y-99414156D02*
X178385844Y-100351072D01*
G75*
G02*
X178385844Y-100457138I-53033J-53033D01*
G01*
X178279778Y-100563204D01*
G75*
G02*
X178173712Y-100563204I-53033J53033D01*
G01*
X177236796Y-99626288D01*
G75*
G02*
X177236796Y-99520222I53033J53033D01*
G01*
X177342862Y-99414156D01*
G75*
G02*
X177448928Y-99414156I53033J-53033D01*
G01*
G37*
G36*
G01*
X177802481Y-99060602D02*
X178739397Y-99997518D01*
G75*
G02*
X178739397Y-100103584I-53033J-53033D01*
G01*
X178633331Y-100209650D01*
G75*
G02*
X178527265Y-100209650I-53033J53033D01*
G01*
X177590349Y-99272734D01*
G75*
G02*
X177590349Y-99166668I53033J53033D01*
G01*
X177696415Y-99060602D01*
G75*
G02*
X177802481Y-99060602I53033J-53033D01*
G01*
G37*
G36*
G01*
X178156035Y-98707049D02*
X179092951Y-99643965D01*
G75*
G02*
X179092951Y-99750031I-53033J-53033D01*
G01*
X178986885Y-99856097D01*
G75*
G02*
X178880819Y-99856097I-53033J53033D01*
G01*
X177943903Y-98919181D01*
G75*
G02*
X177943903Y-98813115I53033J53033D01*
G01*
X178049969Y-98707049D01*
G75*
G02*
X178156035Y-98707049I53033J-53033D01*
G01*
G37*
G36*
G01*
X178509588Y-98353496D02*
X179446504Y-99290412D01*
G75*
G02*
X179446504Y-99396478I-53033J-53033D01*
G01*
X179340438Y-99502544D01*
G75*
G02*
X179234372Y-99502544I-53033J53033D01*
G01*
X178297456Y-98565628D01*
G75*
G02*
X178297456Y-98459562I53033J53033D01*
G01*
X178403522Y-98353496D01*
G75*
G02*
X178509588Y-98353496I53033J-53033D01*
G01*
G37*
G36*
G01*
X178863141Y-97999942D02*
X179800057Y-98936858D01*
G75*
G02*
X179800057Y-99042924I-53033J-53033D01*
G01*
X179693991Y-99148990D01*
G75*
G02*
X179587925Y-99148990I-53033J53033D01*
G01*
X178651009Y-98212074D01*
G75*
G02*
X178651009Y-98106008I53033J53033D01*
G01*
X178757075Y-97999942D01*
G75*
G02*
X178863141Y-97999942I53033J-53033D01*
G01*
G37*
G36*
G01*
X179216695Y-97646389D02*
X180153611Y-98583305D01*
G75*
G02*
X180153611Y-98689371I-53033J-53033D01*
G01*
X180047545Y-98795437D01*
G75*
G02*
X179941479Y-98795437I-53033J53033D01*
G01*
X179004563Y-97858521D01*
G75*
G02*
X179004563Y-97752455I53033J53033D01*
G01*
X179110629Y-97646389D01*
G75*
G02*
X179216695Y-97646389I53033J-53033D01*
G01*
G37*
G36*
G01*
X179570248Y-97292835D02*
X180507164Y-98229751D01*
G75*
G02*
X180507164Y-98335817I-53033J-53033D01*
G01*
X180401098Y-98441883D01*
G75*
G02*
X180295032Y-98441883I-53033J53033D01*
G01*
X179358116Y-97504967D01*
G75*
G02*
X179358116Y-97398901I53033J53033D01*
G01*
X179464182Y-97292835D01*
G75*
G02*
X179570248Y-97292835I53033J-53033D01*
G01*
G37*
G36*
G01*
X183105782Y-97292835D02*
X183211848Y-97398901D01*
G75*
G02*
X183211848Y-97504967I-53033J-53033D01*
G01*
X182274932Y-98441883D01*
G75*
G02*
X182168866Y-98441883I-53033J53033D01*
G01*
X182062800Y-98335817D01*
G75*
G02*
X182062800Y-98229751I53033J53033D01*
G01*
X182999716Y-97292835D01*
G75*
G02*
X183105782Y-97292835I53033J-53033D01*
G01*
G37*
G36*
G01*
X183459335Y-97646389D02*
X183565401Y-97752455D01*
G75*
G02*
X183565401Y-97858521I-53033J-53033D01*
G01*
X182628485Y-98795437D01*
G75*
G02*
X182522419Y-98795437I-53033J53033D01*
G01*
X182416353Y-98689371D01*
G75*
G02*
X182416353Y-98583305I53033J53033D01*
G01*
X183353269Y-97646389D01*
G75*
G02*
X183459335Y-97646389I53033J-53033D01*
G01*
G37*
G36*
G01*
X183812889Y-97999942D02*
X183918955Y-98106008D01*
G75*
G02*
X183918955Y-98212074I-53033J-53033D01*
G01*
X182982039Y-99148990D01*
G75*
G02*
X182875973Y-99148990I-53033J53033D01*
G01*
X182769907Y-99042924D01*
G75*
G02*
X182769907Y-98936858I53033J53033D01*
G01*
X183706823Y-97999942D01*
G75*
G02*
X183812889Y-97999942I53033J-53033D01*
G01*
G37*
G36*
G01*
X184166442Y-98353496D02*
X184272508Y-98459562D01*
G75*
G02*
X184272508Y-98565628I-53033J-53033D01*
G01*
X183335592Y-99502544D01*
G75*
G02*
X183229526Y-99502544I-53033J53033D01*
G01*
X183123460Y-99396478D01*
G75*
G02*
X183123460Y-99290412I53033J53033D01*
G01*
X184060376Y-98353496D01*
G75*
G02*
X184166442Y-98353496I53033J-53033D01*
G01*
G37*
G36*
G01*
X184519995Y-98707049D02*
X184626061Y-98813115D01*
G75*
G02*
X184626061Y-98919181I-53033J-53033D01*
G01*
X183689145Y-99856097D01*
G75*
G02*
X183583079Y-99856097I-53033J53033D01*
G01*
X183477013Y-99750031D01*
G75*
G02*
X183477013Y-99643965I53033J53033D01*
G01*
X184413929Y-98707049D01*
G75*
G02*
X184519995Y-98707049I53033J-53033D01*
G01*
G37*
G36*
G01*
X184873549Y-99060602D02*
X184979615Y-99166668D01*
G75*
G02*
X184979615Y-99272734I-53033J-53033D01*
G01*
X184042699Y-100209650D01*
G75*
G02*
X183936633Y-100209650I-53033J53033D01*
G01*
X183830567Y-100103584D01*
G75*
G02*
X183830567Y-99997518I53033J53033D01*
G01*
X184767483Y-99060602D01*
G75*
G02*
X184873549Y-99060602I53033J-53033D01*
G01*
G37*
G36*
G01*
X185227102Y-99414156D02*
X185333168Y-99520222D01*
G75*
G02*
X185333168Y-99626288I-53033J-53033D01*
G01*
X184396252Y-100563204D01*
G75*
G02*
X184290186Y-100563204I-53033J53033D01*
G01*
X184184120Y-100457138D01*
G75*
G02*
X184184120Y-100351072I53033J53033D01*
G01*
X185121036Y-99414156D01*
G75*
G02*
X185227102Y-99414156I53033J-53033D01*
G01*
G37*
G36*
G01*
X185580655Y-99767709D02*
X185686721Y-99873775D01*
G75*
G02*
X185686721Y-99979841I-53033J-53033D01*
G01*
X184749805Y-100916757D01*
G75*
G02*
X184643739Y-100916757I-53033J53033D01*
G01*
X184537673Y-100810691D01*
G75*
G02*
X184537673Y-100704625I53033J53033D01*
G01*
X185474589Y-99767709D01*
G75*
G02*
X185580655Y-99767709I53033J-53033D01*
G01*
G37*
G36*
G01*
X185934209Y-100121263D02*
X186040275Y-100227329D01*
G75*
G02*
X186040275Y-100333395I-53033J-53033D01*
G01*
X185103359Y-101270311D01*
G75*
G02*
X184997293Y-101270311I-53033J53033D01*
G01*
X184891227Y-101164245D01*
G75*
G02*
X184891227Y-101058179I53033J53033D01*
G01*
X185828143Y-100121263D01*
G75*
G02*
X185934209Y-100121263I53033J-53033D01*
G01*
G37*
G36*
G01*
X186287762Y-100474816D02*
X186393828Y-100580882D01*
G75*
G02*
X186393828Y-100686948I-53033J-53033D01*
G01*
X185456912Y-101623864D01*
G75*
G02*
X185350846Y-101623864I-53033J53033D01*
G01*
X185244780Y-101517798D01*
G75*
G02*
X185244780Y-101411732I53033J53033D01*
G01*
X186181696Y-100474816D01*
G75*
G02*
X186287762Y-100474816I53033J-53033D01*
G01*
G37*
G36*
G01*
X186641316Y-100828369D02*
X186747382Y-100934435D01*
G75*
G02*
X186747382Y-101040501I-53033J-53033D01*
G01*
X185810466Y-101977417D01*
G75*
G02*
X185704400Y-101977417I-53033J53033D01*
G01*
X185598334Y-101871351D01*
G75*
G02*
X185598334Y-101765285I53033J53033D01*
G01*
X186535250Y-100828369D01*
G75*
G02*
X186641316Y-100828369I53033J-53033D01*
G01*
G37*
G36*
G01*
X186994869Y-101181923D02*
X187100935Y-101287989D01*
G75*
G02*
X187100935Y-101394055I-53033J-53033D01*
G01*
X186164019Y-102330971D01*
G75*
G02*
X186057953Y-102330971I-53033J53033D01*
G01*
X185951887Y-102224905D01*
G75*
G02*
X185951887Y-102118839I53033J53033D01*
G01*
X186888803Y-101181923D01*
G75*
G02*
X186994869Y-101181923I53033J-53033D01*
G01*
G37*
G36*
G01*
X187348422Y-101535476D02*
X187454488Y-101641542D01*
G75*
G02*
X187454488Y-101747608I-53033J-53033D01*
G01*
X186517572Y-102684524D01*
G75*
G02*
X186411506Y-102684524I-53033J53033D01*
G01*
X186305440Y-102578458D01*
G75*
G02*
X186305440Y-102472392I53033J53033D01*
G01*
X187242356Y-101535476D01*
G75*
G02*
X187348422Y-101535476I53033J-53033D01*
G01*
G37*
G36*
G01*
X187701976Y-101889029D02*
X187808042Y-101995095D01*
G75*
G02*
X187808042Y-102101161I-53033J-53033D01*
G01*
X186871126Y-103038077D01*
G75*
G02*
X186765060Y-103038077I-53033J53033D01*
G01*
X186658994Y-102932011D01*
G75*
G02*
X186658994Y-102825945I53033J53033D01*
G01*
X187595910Y-101889029D01*
G75*
G02*
X187701976Y-101889029I53033J-53033D01*
G01*
G37*
G36*
G01*
X188055529Y-102242583D02*
X188161595Y-102348649D01*
G75*
G02*
X188161595Y-102454715I-53033J-53033D01*
G01*
X187224679Y-103391631D01*
G75*
G02*
X187118613Y-103391631I-53033J53033D01*
G01*
X187012547Y-103285565D01*
G75*
G02*
X187012547Y-103179499I53033J53033D01*
G01*
X187949463Y-102242583D01*
G75*
G02*
X188055529Y-102242583I53033J-53033D01*
G01*
G37*
G36*
G01*
X188409083Y-102596136D02*
X188515149Y-102702202D01*
G75*
G02*
X188515149Y-102808268I-53033J-53033D01*
G01*
X187578233Y-103745184D01*
G75*
G02*
X187472167Y-103745184I-53033J53033D01*
G01*
X187366101Y-103639118D01*
G75*
G02*
X187366101Y-103533052I53033J53033D01*
G01*
X188303017Y-102596136D01*
G75*
G02*
X188409083Y-102596136I53033J-53033D01*
G01*
G37*
G36*
G01*
X219452500Y-104355000D02*
X219452500Y-103105000D01*
G75*
G02*
X219702500Y-102855000I250000J0D01*
G01*
X220627500Y-102855000D01*
G75*
G02*
X220877500Y-103105000I0J-250000D01*
G01*
X220877500Y-104355000D01*
G75*
G02*
X220627500Y-104605000I-250000J0D01*
G01*
X219702500Y-104605000D01*
G75*
G02*
X219452500Y-104355000I0J250000D01*
G01*
G37*
G36*
G01*
X222427500Y-104355000D02*
X222427500Y-103105000D01*
G75*
G02*
X222677500Y-102855000I250000J0D01*
G01*
X223602500Y-102855000D01*
G75*
G02*
X223852500Y-103105000I0J-250000D01*
G01*
X223852500Y-104355000D01*
G75*
G02*
X223602500Y-104605000I-250000J0D01*
G01*
X222677500Y-104605000D01*
G75*
G02*
X222427500Y-104355000I0J250000D01*
G01*
G37*
G36*
G01*
X228502500Y-117235000D02*
X228502500Y-115985000D01*
G75*
G02*
X228752500Y-115735000I250000J0D01*
G01*
X229677500Y-115735000D01*
G75*
G02*
X229927500Y-115985000I0J-250000D01*
G01*
X229927500Y-117235000D01*
G75*
G02*
X229677500Y-117485000I-250000J0D01*
G01*
X228752500Y-117485000D01*
G75*
G02*
X228502500Y-117235000I0J250000D01*
G01*
G37*
G36*
G01*
X231477500Y-117235000D02*
X231477500Y-115985000D01*
G75*
G02*
X231727500Y-115735000I250000J0D01*
G01*
X232652500Y-115735000D01*
G75*
G02*
X232902500Y-115985000I0J-250000D01*
G01*
X232902500Y-117235000D01*
G75*
G02*
X232652500Y-117485000I-250000J0D01*
G01*
X231727500Y-117485000D01*
G75*
G02*
X231477500Y-117235000I0J250000D01*
G01*
G37*
D17*
X294740000Y-80265000D03*
X294740000Y-81535000D03*
X294740000Y-82805000D03*
X294740000Y-84075000D03*
X294740000Y-85345000D03*
X294740000Y-86615000D03*
X294740000Y-87885000D03*
X294740000Y-89155000D03*
X287640000Y-89155000D03*
X287640000Y-87885000D03*
X287640000Y-86615000D03*
X287640000Y-85345000D03*
X287640000Y-84075000D03*
X287640000Y-82805000D03*
X287640000Y-81535000D03*
X287640000Y-80265000D03*
G36*
G01*
X223145000Y-94567500D02*
X221895000Y-94567500D01*
G75*
G02*
X221645000Y-94317500I0J250000D01*
G01*
X221645000Y-93392500D01*
G75*
G02*
X221895000Y-93142500I250000J0D01*
G01*
X223145000Y-93142500D01*
G75*
G02*
X223395000Y-93392500I0J-250000D01*
G01*
X223395000Y-94317500D01*
G75*
G02*
X223145000Y-94567500I-250000J0D01*
G01*
G37*
G36*
G01*
X223145000Y-91592500D02*
X221895000Y-91592500D01*
G75*
G02*
X221645000Y-91342500I0J250000D01*
G01*
X221645000Y-90417500D01*
G75*
G02*
X221895000Y-90167500I250000J0D01*
G01*
X223145000Y-90167500D01*
G75*
G02*
X223395000Y-90417500I0J-250000D01*
G01*
X223395000Y-91342500D01*
G75*
G02*
X223145000Y-91592500I-250000J0D01*
G01*
G37*
D18*
X236270000Y-143785000D03*
X224510000Y-143785000D03*
X236270000Y-145055000D03*
X224510000Y-145055000D03*
X236270000Y-146325000D03*
X224510000Y-146325000D03*
X236270000Y-147595000D03*
X224510000Y-147595000D03*
X236270000Y-148865000D03*
X224510000Y-148865000D03*
X236270000Y-150135000D03*
X224510000Y-150135000D03*
X236270000Y-151405000D03*
X224510000Y-151405000D03*
X236270000Y-152675000D03*
X224510000Y-152675000D03*
X236270000Y-153945000D03*
X224510000Y-153945000D03*
X236270000Y-155215000D03*
X224510000Y-155215000D03*
X236270000Y-156485000D03*
X224510000Y-156485000D03*
X236270000Y-157755000D03*
X224510000Y-157755000D03*
X236270000Y-159025000D03*
X224510000Y-159025000D03*
X236270000Y-160295000D03*
X224510000Y-160295000D03*
X236270000Y-161565000D03*
X224510000Y-161565000D03*
X236270000Y-162835000D03*
X224510000Y-162835000D03*
G36*
G01*
X243502500Y-141735000D02*
X243502500Y-140485000D01*
G75*
G02*
X243752500Y-140235000I250000J0D01*
G01*
X244677500Y-140235000D01*
G75*
G02*
X244927500Y-140485000I0J-250000D01*
G01*
X244927500Y-141735000D01*
G75*
G02*
X244677500Y-141985000I-250000J0D01*
G01*
X243752500Y-141985000D01*
G75*
G02*
X243502500Y-141735000I0J250000D01*
G01*
G37*
G36*
G01*
X246477500Y-141735000D02*
X246477500Y-140485000D01*
G75*
G02*
X246727500Y-140235000I250000J0D01*
G01*
X247652500Y-140235000D01*
G75*
G02*
X247902500Y-140485000I0J-250000D01*
G01*
X247902500Y-141735000D01*
G75*
G02*
X247652500Y-141985000I-250000J0D01*
G01*
X246727500Y-141985000D01*
G75*
G02*
X246477500Y-141735000I0J250000D01*
G01*
G37*
G36*
G01*
X281815000Y-80660001D02*
X281815000Y-79759999D01*
G75*
G02*
X282064999Y-79510000I249999J0D01*
G01*
X282715001Y-79510000D01*
G75*
G02*
X282965000Y-79759999I0J-249999D01*
G01*
X282965000Y-80660001D01*
G75*
G02*
X282715001Y-80910000I-249999J0D01*
G01*
X282064999Y-80910000D01*
G75*
G02*
X281815000Y-80660001I0J249999D01*
G01*
G37*
G36*
G01*
X283865000Y-80660001D02*
X283865000Y-79759999D01*
G75*
G02*
X284114999Y-79510000I249999J0D01*
G01*
X284765001Y-79510000D01*
G75*
G02*
X285015000Y-79759999I0J-249999D01*
G01*
X285015000Y-80660001D01*
G75*
G02*
X284765001Y-80910000I-249999J0D01*
G01*
X284114999Y-80910000D01*
G75*
G02*
X283865000Y-80660001I0J249999D01*
G01*
G37*
X221270000Y-119285000D03*
X209510000Y-119285000D03*
X221270000Y-120555000D03*
X209510000Y-120555000D03*
X221270000Y-121825000D03*
X209510000Y-121825000D03*
X221270000Y-123095000D03*
X209510000Y-123095000D03*
X221270000Y-124365000D03*
X209510000Y-124365000D03*
X221270000Y-125635000D03*
X209510000Y-125635000D03*
X221270000Y-126905000D03*
X209510000Y-126905000D03*
X221270000Y-128175000D03*
X209510000Y-128175000D03*
X221270000Y-129445000D03*
X209510000Y-129445000D03*
X221270000Y-130715000D03*
X209510000Y-130715000D03*
X221270000Y-131985000D03*
X209510000Y-131985000D03*
X221270000Y-133255000D03*
X209510000Y-133255000D03*
X221270000Y-134525000D03*
X209510000Y-134525000D03*
X221270000Y-135795000D03*
X209510000Y-135795000D03*
X221270000Y-137065000D03*
X209510000Y-137065000D03*
X221270000Y-138335000D03*
X209510000Y-138335000D03*
G36*
G01*
X213502500Y-117235000D02*
X213502500Y-115985000D01*
G75*
G02*
X213752500Y-115735000I250000J0D01*
G01*
X214677500Y-115735000D01*
G75*
G02*
X214927500Y-115985000I0J-250000D01*
G01*
X214927500Y-117235000D01*
G75*
G02*
X214677500Y-117485000I-250000J0D01*
G01*
X213752500Y-117485000D01*
G75*
G02*
X213502500Y-117235000I0J250000D01*
G01*
G37*
G36*
G01*
X216477500Y-117235000D02*
X216477500Y-115985000D01*
G75*
G02*
X216727500Y-115735000I250000J0D01*
G01*
X217652500Y-115735000D01*
G75*
G02*
X217902500Y-115985000I0J-250000D01*
G01*
X217902500Y-117235000D01*
G75*
G02*
X217652500Y-117485000I-250000J0D01*
G01*
X216727500Y-117485000D01*
G75*
G02*
X216477500Y-117235000I0J250000D01*
G01*
G37*
G36*
G01*
X300565000Y-86259999D02*
X300565000Y-87160001D01*
G75*
G02*
X300315001Y-87410000I-249999J0D01*
G01*
X299664999Y-87410000D01*
G75*
G02*
X299415000Y-87160001I0J249999D01*
G01*
X299415000Y-86259999D01*
G75*
G02*
X299664999Y-86010000I249999J0D01*
G01*
X300315001Y-86010000D01*
G75*
G02*
X300565000Y-86259999I0J-249999D01*
G01*
G37*
G36*
G01*
X298515000Y-86259999D02*
X298515000Y-87160001D01*
G75*
G02*
X298265001Y-87410000I-249999J0D01*
G01*
X297614999Y-87410000D01*
G75*
G02*
X297365000Y-87160001I0J249999D01*
G01*
X297365000Y-86259999D01*
G75*
G02*
X297614999Y-86010000I249999J0D01*
G01*
X298265001Y-86010000D01*
G75*
G02*
X298515000Y-86259999I0J-249999D01*
G01*
G37*
G36*
G01*
X224585000Y-97422500D02*
X225835000Y-97422500D01*
G75*
G02*
X226085000Y-97672500I0J-250000D01*
G01*
X226085000Y-98597500D01*
G75*
G02*
X225835000Y-98847500I-250000J0D01*
G01*
X224585000Y-98847500D01*
G75*
G02*
X224335000Y-98597500I0J250000D01*
G01*
X224335000Y-97672500D01*
G75*
G02*
X224585000Y-97422500I250000J0D01*
G01*
G37*
G36*
G01*
X224585000Y-100397500D02*
X225835000Y-100397500D01*
G75*
G02*
X226085000Y-100647500I0J-250000D01*
G01*
X226085000Y-101572500D01*
G75*
G02*
X225835000Y-101822500I-250000J0D01*
G01*
X224585000Y-101822500D01*
G75*
G02*
X224335000Y-101572500I0J250000D01*
G01*
X224335000Y-100647500D01*
G75*
G02*
X224585000Y-100397500I250000J0D01*
G01*
G37*
D11*
X189390000Y-119395000D03*
X189390000Y-120665000D03*
X189390000Y-121935000D03*
X189390000Y-123205000D03*
X189390000Y-124475000D03*
X189390000Y-125745000D03*
X189390000Y-127015000D03*
X189390000Y-128285000D03*
X189390000Y-129555000D03*
X189390000Y-130825000D03*
X179990000Y-130825000D03*
X179990000Y-129555000D03*
X179990000Y-128285000D03*
X179990000Y-127015000D03*
X179990000Y-125745000D03*
X179990000Y-124475000D03*
X179990000Y-123205000D03*
X179990000Y-121935000D03*
X179990000Y-120665000D03*
X179990000Y-119395000D03*
D18*
X206270000Y-119285000D03*
X194510000Y-119285000D03*
X206270000Y-120555000D03*
X194510000Y-120555000D03*
X206270000Y-121825000D03*
X194510000Y-121825000D03*
X206270000Y-123095000D03*
X194510000Y-123095000D03*
X206270000Y-124365000D03*
X194510000Y-124365000D03*
X206270000Y-125635000D03*
X194510000Y-125635000D03*
X206270000Y-126905000D03*
X194510000Y-126905000D03*
X206270000Y-128175000D03*
X194510000Y-128175000D03*
X206270000Y-129445000D03*
X194510000Y-129445000D03*
X206270000Y-130715000D03*
X194510000Y-130715000D03*
X206270000Y-131985000D03*
X194510000Y-131985000D03*
X206270000Y-133255000D03*
X194510000Y-133255000D03*
X206270000Y-134525000D03*
X194510000Y-134525000D03*
X206270000Y-135795000D03*
X194510000Y-135795000D03*
X206270000Y-137065000D03*
X194510000Y-137065000D03*
X206270000Y-138335000D03*
X194510000Y-138335000D03*
D15*
X187890000Y-92610000D03*
X185350000Y-92610000D03*
X182810000Y-92610000D03*
X180270000Y-92610000D03*
X177730000Y-92610000D03*
D16*
X175190000Y-92610000D03*
G36*
G01*
X199815000Y-108847500D02*
X198565000Y-108847500D01*
G75*
G02*
X198315000Y-108597500I0J250000D01*
G01*
X198315000Y-107672500D01*
G75*
G02*
X198565000Y-107422500I250000J0D01*
G01*
X199815000Y-107422500D01*
G75*
G02*
X200065000Y-107672500I0J-250000D01*
G01*
X200065000Y-108597500D01*
G75*
G02*
X199815000Y-108847500I-250000J0D01*
G01*
G37*
G36*
G01*
X199815000Y-111822500D02*
X198565000Y-111822500D01*
G75*
G02*
X198315000Y-111572500I0J250000D01*
G01*
X198315000Y-110647500D01*
G75*
G02*
X198565000Y-110397500I250000J0D01*
G01*
X199815000Y-110397500D01*
G75*
G02*
X200065000Y-110647500I0J-250000D01*
G01*
X200065000Y-111572500D01*
G75*
G02*
X199815000Y-111822500I-250000J0D01*
G01*
G37*
G36*
G01*
X237015000Y-93012500D02*
X238265000Y-93012500D01*
G75*
G02*
X238515000Y-93262500I0J-250000D01*
G01*
X238515000Y-94187500D01*
G75*
G02*
X238265000Y-94437500I-250000J0D01*
G01*
X237015000Y-94437500D01*
G75*
G02*
X236765000Y-94187500I0J250000D01*
G01*
X236765000Y-93262500D01*
G75*
G02*
X237015000Y-93012500I250000J0D01*
G01*
G37*
G36*
G01*
X237015000Y-95987500D02*
X238265000Y-95987500D01*
G75*
G02*
X238515000Y-96237500I0J-250000D01*
G01*
X238515000Y-97162500D01*
G75*
G02*
X238265000Y-97412500I-250000J0D01*
G01*
X237015000Y-97412500D01*
G75*
G02*
X236765000Y-97162500I0J250000D01*
G01*
X236765000Y-96237500D01*
G75*
G02*
X237015000Y-95987500I250000J0D01*
G01*
G37*
G36*
G01*
X228502500Y-141735000D02*
X228502500Y-140485000D01*
G75*
G02*
X228752500Y-140235000I250000J0D01*
G01*
X229677500Y-140235000D01*
G75*
G02*
X229927500Y-140485000I0J-250000D01*
G01*
X229927500Y-141735000D01*
G75*
G02*
X229677500Y-141985000I-250000J0D01*
G01*
X228752500Y-141985000D01*
G75*
G02*
X228502500Y-141735000I0J250000D01*
G01*
G37*
G36*
G01*
X231477500Y-141735000D02*
X231477500Y-140485000D01*
G75*
G02*
X231727500Y-140235000I250000J0D01*
G01*
X232652500Y-140235000D01*
G75*
G02*
X232902500Y-140485000I0J-250000D01*
G01*
X232902500Y-141735000D01*
G75*
G02*
X232652500Y-141985000I-250000J0D01*
G01*
X231727500Y-141985000D01*
G75*
G02*
X231477500Y-141735000I0J250000D01*
G01*
G37*
D18*
X251270000Y-119285000D03*
X239510000Y-119285000D03*
X251270000Y-120555000D03*
X239510000Y-120555000D03*
X251270000Y-121825000D03*
X239510000Y-121825000D03*
X251270000Y-123095000D03*
X239510000Y-123095000D03*
X251270000Y-124365000D03*
X239510000Y-124365000D03*
X251270000Y-125635000D03*
X239510000Y-125635000D03*
X251270000Y-126905000D03*
X239510000Y-126905000D03*
X251270000Y-128175000D03*
X239510000Y-128175000D03*
X251270000Y-129445000D03*
X239510000Y-129445000D03*
X251270000Y-130715000D03*
X239510000Y-130715000D03*
X251270000Y-131985000D03*
X239510000Y-131985000D03*
X251270000Y-133255000D03*
X239510000Y-133255000D03*
X251270000Y-134525000D03*
X239510000Y-134525000D03*
X251270000Y-135795000D03*
X239510000Y-135795000D03*
X251270000Y-137065000D03*
X239510000Y-137065000D03*
X251270000Y-138335000D03*
X239510000Y-138335000D03*
X251270000Y-143785000D03*
X239510000Y-143785000D03*
X251270000Y-145055000D03*
X239510000Y-145055000D03*
X251270000Y-146325000D03*
X239510000Y-146325000D03*
X251270000Y-147595000D03*
X239510000Y-147595000D03*
X251270000Y-148865000D03*
X239510000Y-148865000D03*
X251270000Y-150135000D03*
X239510000Y-150135000D03*
X251270000Y-151405000D03*
X239510000Y-151405000D03*
X251270000Y-152675000D03*
X239510000Y-152675000D03*
X251270000Y-153945000D03*
X239510000Y-153945000D03*
X251270000Y-155215000D03*
X239510000Y-155215000D03*
X251270000Y-156485000D03*
X239510000Y-156485000D03*
X251270000Y-157755000D03*
X239510000Y-157755000D03*
X251270000Y-159025000D03*
X239510000Y-159025000D03*
X251270000Y-160295000D03*
X239510000Y-160295000D03*
X251270000Y-161565000D03*
X239510000Y-161565000D03*
X251270000Y-162835000D03*
X239510000Y-162835000D03*
D19*
X176190000Y-79610000D03*
X176190000Y-84110000D03*
X169690000Y-79610000D03*
X169690000Y-84110000D03*
G36*
G01*
X289030000Y-92235000D02*
X289030000Y-90985000D01*
G75*
G02*
X289280000Y-90735000I250000J0D01*
G01*
X290205000Y-90735000D01*
G75*
G02*
X290455000Y-90985000I0J-250000D01*
G01*
X290455000Y-92235000D01*
G75*
G02*
X290205000Y-92485000I-250000J0D01*
G01*
X289280000Y-92485000D01*
G75*
G02*
X289030000Y-92235000I0J250000D01*
G01*
G37*
G36*
G01*
X292005000Y-92235000D02*
X292005000Y-90985000D01*
G75*
G02*
X292255000Y-90735000I250000J0D01*
G01*
X293180000Y-90735000D01*
G75*
G02*
X293430000Y-90985000I0J-250000D01*
G01*
X293430000Y-92235000D01*
G75*
G02*
X293180000Y-92485000I-250000J0D01*
G01*
X292255000Y-92485000D01*
G75*
G02*
X292005000Y-92235000I0J250000D01*
G01*
G37*
G36*
G01*
X216765000Y-99992500D02*
X218015000Y-99992500D01*
G75*
G02*
X218265000Y-100242500I0J-250000D01*
G01*
X218265000Y-101167500D01*
G75*
G02*
X218015000Y-101417500I-250000J0D01*
G01*
X216765000Y-101417500D01*
G75*
G02*
X216515000Y-101167500I0J250000D01*
G01*
X216515000Y-100242500D01*
G75*
G02*
X216765000Y-99992500I250000J0D01*
G01*
G37*
G36*
G01*
X216765000Y-102967500D02*
X218015000Y-102967500D01*
G75*
G02*
X218265000Y-103217500I0J-250000D01*
G01*
X218265000Y-104142500D01*
G75*
G02*
X218015000Y-104392500I-250000J0D01*
G01*
X216765000Y-104392500D01*
G75*
G02*
X216515000Y-104142500I0J250000D01*
G01*
X216515000Y-103217500D01*
G75*
G02*
X216765000Y-102967500I250000J0D01*
G01*
G37*
G36*
G01*
X300540000Y-84259999D02*
X300540000Y-85160001D01*
G75*
G02*
X300290001Y-85410000I-249999J0D01*
G01*
X299639999Y-85410000D01*
G75*
G02*
X299390000Y-85160001I0J249999D01*
G01*
X299390000Y-84259999D01*
G75*
G02*
X299639999Y-84010000I249999J0D01*
G01*
X300290001Y-84010000D01*
G75*
G02*
X300540000Y-84259999I0J-249999D01*
G01*
G37*
G36*
G01*
X298490000Y-84259999D02*
X298490000Y-85160001D01*
G75*
G02*
X298240001Y-85410000I-249999J0D01*
G01*
X297589999Y-85410000D01*
G75*
G02*
X297340000Y-85160001I0J249999D01*
G01*
X297340000Y-84259999D01*
G75*
G02*
X297589999Y-84010000I249999J0D01*
G01*
X298240001Y-84010000D01*
G75*
G02*
X298490000Y-84259999I0J-249999D01*
G01*
G37*
G36*
G01*
X217975000Y-94517500D02*
X216725000Y-94517500D01*
G75*
G02*
X216475000Y-94267500I0J250000D01*
G01*
X216475000Y-93342500D01*
G75*
G02*
X216725000Y-93092500I250000J0D01*
G01*
X217975000Y-93092500D01*
G75*
G02*
X218225000Y-93342500I0J-250000D01*
G01*
X218225000Y-94267500D01*
G75*
G02*
X217975000Y-94517500I-250000J0D01*
G01*
G37*
G36*
G01*
X217975000Y-91542500D02*
X216725000Y-91542500D01*
G75*
G02*
X216475000Y-91292500I0J250000D01*
G01*
X216475000Y-90367500D01*
G75*
G02*
X216725000Y-90117500I250000J0D01*
G01*
X217975000Y-90117500D01*
G75*
G02*
X218225000Y-90367500I0J-250000D01*
G01*
X218225000Y-91292500D01*
G75*
G02*
X217975000Y-91542500I-250000J0D01*
G01*
G37*
G36*
G01*
X281840000Y-84660001D02*
X281840000Y-83759999D01*
G75*
G02*
X282089999Y-83510000I249999J0D01*
G01*
X282740001Y-83510000D01*
G75*
G02*
X282990000Y-83759999I0J-249999D01*
G01*
X282990000Y-84660001D01*
G75*
G02*
X282740001Y-84910000I-249999J0D01*
G01*
X282089999Y-84910000D01*
G75*
G02*
X281840000Y-84660001I0J249999D01*
G01*
G37*
G36*
G01*
X283890000Y-84660001D02*
X283890000Y-83759999D01*
G75*
G02*
X284139999Y-83510000I249999J0D01*
G01*
X284790001Y-83510000D01*
G75*
G02*
X285040000Y-83759999I0J-249999D01*
G01*
X285040000Y-84660001D01*
G75*
G02*
X284790001Y-84910000I-249999J0D01*
G01*
X284139999Y-84910000D01*
G75*
G02*
X283890000Y-84660001I0J249999D01*
G01*
G37*
G36*
G01*
X198490000Y-117235000D02*
X198490000Y-115985000D01*
G75*
G02*
X198740000Y-115735000I250000J0D01*
G01*
X199665000Y-115735000D01*
G75*
G02*
X199915000Y-115985000I0J-250000D01*
G01*
X199915000Y-117235000D01*
G75*
G02*
X199665000Y-117485000I-250000J0D01*
G01*
X198740000Y-117485000D01*
G75*
G02*
X198490000Y-117235000I0J250000D01*
G01*
G37*
G36*
G01*
X201465000Y-117235000D02*
X201465000Y-115985000D01*
G75*
G02*
X201715000Y-115735000I250000J0D01*
G01*
X202640000Y-115735000D01*
G75*
G02*
X202890000Y-115985000I0J-250000D01*
G01*
X202890000Y-117235000D01*
G75*
G02*
X202640000Y-117485000I-250000J0D01*
G01*
X201715000Y-117485000D01*
G75*
G02*
X201465000Y-117235000I0J250000D01*
G01*
G37*
G36*
G01*
X280045000Y-125420000D02*
X281295000Y-125420000D01*
G75*
G02*
X281545000Y-125670000I0J-250000D01*
G01*
X281545000Y-126595000D01*
G75*
G02*
X281295000Y-126845000I-250000J0D01*
G01*
X280045000Y-126845000D01*
G75*
G02*
X279795000Y-126595000I0J250000D01*
G01*
X279795000Y-125670000D01*
G75*
G02*
X280045000Y-125420000I250000J0D01*
G01*
G37*
G36*
G01*
X280045000Y-128395000D02*
X281295000Y-128395000D01*
G75*
G02*
X281545000Y-128645000I0J-250000D01*
G01*
X281545000Y-129570000D01*
G75*
G02*
X281295000Y-129820000I-250000J0D01*
G01*
X280045000Y-129820000D01*
G75*
G02*
X279795000Y-129570000I0J250000D01*
G01*
X279795000Y-128645000D01*
G75*
G02*
X280045000Y-128395000I250000J0D01*
G01*
G37*
D11*
X175890000Y-119395000D03*
X175890000Y-120665000D03*
X175890000Y-121935000D03*
X175890000Y-123205000D03*
X175890000Y-124475000D03*
X175890000Y-125745000D03*
X175890000Y-127015000D03*
X175890000Y-128285000D03*
X175890000Y-129555000D03*
X175890000Y-130825000D03*
X166490000Y-130825000D03*
X166490000Y-129555000D03*
X166490000Y-128285000D03*
X166490000Y-127015000D03*
X166490000Y-125745000D03*
X166490000Y-124475000D03*
X166490000Y-123205000D03*
X166490000Y-121935000D03*
X166490000Y-120665000D03*
X166490000Y-119395000D03*
D18*
X206270000Y-143785000D03*
X194510000Y-143785000D03*
X206270000Y-145055000D03*
X194510000Y-145055000D03*
X206270000Y-146325000D03*
X194510000Y-146325000D03*
X206270000Y-147595000D03*
X194510000Y-147595000D03*
X206270000Y-148865000D03*
X194510000Y-148865000D03*
X206270000Y-150135000D03*
X194510000Y-150135000D03*
X206270000Y-151405000D03*
X194510000Y-151405000D03*
X206270000Y-152675000D03*
X194510000Y-152675000D03*
X206270000Y-153945000D03*
X194510000Y-153945000D03*
X206270000Y-155215000D03*
X194510000Y-155215000D03*
X206270000Y-156485000D03*
X194510000Y-156485000D03*
X206270000Y-157755000D03*
X194510000Y-157755000D03*
X206270000Y-159025000D03*
X194510000Y-159025000D03*
X206270000Y-160295000D03*
X194510000Y-160295000D03*
X206270000Y-161565000D03*
X194510000Y-161565000D03*
X206270000Y-162835000D03*
X194510000Y-162835000D03*
G36*
G01*
X300540000Y-88259999D02*
X300540000Y-89160001D01*
G75*
G02*
X300290001Y-89410000I-249999J0D01*
G01*
X299639999Y-89410000D01*
G75*
G02*
X299390000Y-89160001I0J249999D01*
G01*
X299390000Y-88259999D01*
G75*
G02*
X299639999Y-88010000I249999J0D01*
G01*
X300290001Y-88010000D01*
G75*
G02*
X300540000Y-88259999I0J-249999D01*
G01*
G37*
G36*
G01*
X298490000Y-88259999D02*
X298490000Y-89160001D01*
G75*
G02*
X298240001Y-89410000I-249999J0D01*
G01*
X297589999Y-89410000D01*
G75*
G02*
X297340000Y-89160001I0J249999D01*
G01*
X297340000Y-88259999D01*
G75*
G02*
X297589999Y-88010000I249999J0D01*
G01*
X298240001Y-88010000D01*
G75*
G02*
X298490000Y-88259999I0J-249999D01*
G01*
G37*
X221270000Y-143785000D03*
X209510000Y-143785000D03*
X221270000Y-145055000D03*
X209510000Y-145055000D03*
X221270000Y-146325000D03*
X209510000Y-146325000D03*
X221270000Y-147595000D03*
X209510000Y-147595000D03*
X221270000Y-148865000D03*
X209510000Y-148865000D03*
X221270000Y-150135000D03*
X209510000Y-150135000D03*
X221270000Y-151405000D03*
X209510000Y-151405000D03*
X221270000Y-152675000D03*
X209510000Y-152675000D03*
X221270000Y-153945000D03*
X209510000Y-153945000D03*
X221270000Y-155215000D03*
X209510000Y-155215000D03*
X221270000Y-156485000D03*
X209510000Y-156485000D03*
X221270000Y-157755000D03*
X209510000Y-157755000D03*
X221270000Y-159025000D03*
X209510000Y-159025000D03*
X221270000Y-160295000D03*
X209510000Y-160295000D03*
X221270000Y-161565000D03*
X209510000Y-161565000D03*
X221270000Y-162835000D03*
X209510000Y-162835000D03*
G36*
G01*
X243502500Y-117235000D02*
X243502500Y-115985000D01*
G75*
G02*
X243752500Y-115735000I250000J0D01*
G01*
X244677500Y-115735000D01*
G75*
G02*
X244927500Y-115985000I0J-250000D01*
G01*
X244927500Y-117235000D01*
G75*
G02*
X244677500Y-117485000I-250000J0D01*
G01*
X243752500Y-117485000D01*
G75*
G02*
X243502500Y-117235000I0J250000D01*
G01*
G37*
G36*
G01*
X246477500Y-117235000D02*
X246477500Y-115985000D01*
G75*
G02*
X246727500Y-115735000I250000J0D01*
G01*
X247652500Y-115735000D01*
G75*
G02*
X247902500Y-115985000I0J-250000D01*
G01*
X247902500Y-117235000D01*
G75*
G02*
X247652500Y-117485000I-250000J0D01*
G01*
X246727500Y-117485000D01*
G75*
G02*
X246477500Y-117235000I0J250000D01*
G01*
G37*
G36*
G01*
X278090000Y-81039999D02*
X278090000Y-81940001D01*
G75*
G02*
X277840001Y-82190000I-249999J0D01*
G01*
X277189999Y-82190000D01*
G75*
G02*
X276940000Y-81940001I0J249999D01*
G01*
X276940000Y-81039999D01*
G75*
G02*
X277189999Y-80790000I249999J0D01*
G01*
X277840001Y-80790000D01*
G75*
G02*
X278090000Y-81039999I0J-249999D01*
G01*
G37*
G36*
G01*
X276040000Y-81039999D02*
X276040000Y-81940001D01*
G75*
G02*
X275790001Y-82190000I-249999J0D01*
G01*
X275139999Y-82190000D01*
G75*
G02*
X274890000Y-81940001I0J249999D01*
G01*
X274890000Y-81039999D01*
G75*
G02*
X275139999Y-80790000I249999J0D01*
G01*
X275790001Y-80790000D01*
G75*
G02*
X276040000Y-81039999I0J-249999D01*
G01*
G37*
G36*
G01*
X281840000Y-86660001D02*
X281840000Y-85759999D01*
G75*
G02*
X282089999Y-85510000I249999J0D01*
G01*
X282740001Y-85510000D01*
G75*
G02*
X282990000Y-85759999I0J-249999D01*
G01*
X282990000Y-86660001D01*
G75*
G02*
X282740001Y-86910000I-249999J0D01*
G01*
X282089999Y-86910000D01*
G75*
G02*
X281840000Y-86660001I0J249999D01*
G01*
G37*
G36*
G01*
X283890000Y-86660001D02*
X283890000Y-85759999D01*
G75*
G02*
X284139999Y-85510000I249999J0D01*
G01*
X284790001Y-85510000D01*
G75*
G02*
X285040000Y-85759999I0J-249999D01*
G01*
X285040000Y-86660001D01*
G75*
G02*
X284790001Y-86910000I-249999J0D01*
G01*
X284139999Y-86910000D01*
G75*
G02*
X283890000Y-86660001I0J249999D01*
G01*
G37*
G36*
G01*
X278280001Y-96350000D02*
X277379999Y-96350000D01*
G75*
G02*
X277130000Y-96100001I0J249999D01*
G01*
X277130000Y-95449999D01*
G75*
G02*
X277379999Y-95200000I249999J0D01*
G01*
X278280001Y-95200000D01*
G75*
G02*
X278530000Y-95449999I0J-249999D01*
G01*
X278530000Y-96100001D01*
G75*
G02*
X278280001Y-96350000I-249999J0D01*
G01*
G37*
G36*
G01*
X278280001Y-94300000D02*
X277379999Y-94300000D01*
G75*
G02*
X277130000Y-94050001I0J249999D01*
G01*
X277130000Y-93399999D01*
G75*
G02*
X277379999Y-93150000I249999J0D01*
G01*
X278280001Y-93150000D01*
G75*
G02*
X278530000Y-93399999I0J-249999D01*
G01*
X278530000Y-94050001D01*
G75*
G02*
X278280001Y-94300000I-249999J0D01*
G01*
G37*
D20*
X234040000Y-112510000D03*
X234040000Y-109970000D03*
X234040000Y-107430000D03*
X234040000Y-104890000D03*
X234040000Y-102350000D03*
X234040000Y-99810000D03*
X234040000Y-97270000D03*
X234040000Y-94730000D03*
X234040000Y-92190000D03*
X234040000Y-89650000D03*
X234040000Y-87110000D03*
X234040000Y-84570000D03*
X234040000Y-82030000D03*
X231500000Y-112510000D03*
X231500000Y-109970000D03*
X231500000Y-107430000D03*
X231500000Y-104890000D03*
X231500000Y-102350000D03*
X231500000Y-99810000D03*
X231500000Y-97270000D03*
X231500000Y-94730000D03*
X231500000Y-92190000D03*
X231500000Y-89650000D03*
X231500000Y-87110000D03*
X231500000Y-84570000D03*
X231500000Y-82030000D03*
X228960000Y-112510000D03*
X228960000Y-109970000D03*
X228960000Y-107430000D03*
X228960000Y-104890000D03*
X228960000Y-102350000D03*
X228960000Y-99810000D03*
X228960000Y-97270000D03*
X228960000Y-94730000D03*
X228960000Y-92190000D03*
X228960000Y-89650000D03*
X228960000Y-87110000D03*
X228960000Y-84570000D03*
X228960000Y-82030000D03*
X226420000Y-112510000D03*
X226420000Y-109970000D03*
X226420000Y-107430000D03*
X226420000Y-104890000D03*
X226420000Y-94730000D03*
X226420000Y-89650000D03*
X226420000Y-87110000D03*
X226420000Y-84570000D03*
X226420000Y-82030000D03*
X223880000Y-112510000D03*
X223880000Y-109970000D03*
X223880000Y-107430000D03*
X223880000Y-87110000D03*
X223880000Y-84570000D03*
X223880000Y-82030000D03*
X221340000Y-112510000D03*
X221340000Y-109970000D03*
X221340000Y-107430000D03*
X221340000Y-87110000D03*
X221340000Y-84570000D03*
X221340000Y-82030000D03*
X218800000Y-112510000D03*
X218800000Y-109970000D03*
X218800000Y-107430000D03*
X218800000Y-87110000D03*
X218800000Y-84570000D03*
X218800000Y-82030000D03*
X216260000Y-112510000D03*
X216260000Y-109970000D03*
X216260000Y-107430000D03*
X216260000Y-87110000D03*
X216260000Y-84570000D03*
X216260000Y-82030000D03*
X213720000Y-112510000D03*
X213720000Y-109970000D03*
X213720000Y-107430000D03*
X213720000Y-104890000D03*
X213720000Y-89650000D03*
X213720000Y-87110000D03*
X213720000Y-84570000D03*
X213720000Y-82030000D03*
X211180000Y-112510000D03*
X211180000Y-109970000D03*
X211180000Y-107430000D03*
X211180000Y-104890000D03*
X211180000Y-94730000D03*
X211180000Y-89650000D03*
X211180000Y-87110000D03*
X211180000Y-84570000D03*
X211180000Y-82030000D03*
X208640000Y-112510000D03*
X208640000Y-109970000D03*
X208640000Y-107430000D03*
X208640000Y-104890000D03*
X208640000Y-102350000D03*
X208640000Y-99810000D03*
X208640000Y-97270000D03*
X208640000Y-94730000D03*
X208640000Y-92190000D03*
X208640000Y-89650000D03*
X208640000Y-87110000D03*
X208640000Y-84570000D03*
X208640000Y-82030000D03*
X206100000Y-112510000D03*
X206100000Y-109970000D03*
X206100000Y-107430000D03*
X206100000Y-104890000D03*
X206100000Y-102350000D03*
X206100000Y-99810000D03*
X206100000Y-97270000D03*
X206100000Y-94730000D03*
X206100000Y-92190000D03*
X206100000Y-89650000D03*
X206100000Y-87110000D03*
X206100000Y-84570000D03*
X206100000Y-82030000D03*
X203560000Y-112510000D03*
X203560000Y-109970000D03*
X203560000Y-107430000D03*
X203560000Y-104890000D03*
X203560000Y-102350000D03*
X203560000Y-99810000D03*
X203560000Y-97270000D03*
X203560000Y-94730000D03*
X203560000Y-92190000D03*
X203560000Y-89650000D03*
X203560000Y-87110000D03*
X203560000Y-84570000D03*
D21*
X203560000Y-82030000D03*
G36*
G01*
X238245000Y-90662500D02*
X236995000Y-90662500D01*
G75*
G02*
X236745000Y-90412500I0J250000D01*
G01*
X236745000Y-89487500D01*
G75*
G02*
X236995000Y-89237500I250000J0D01*
G01*
X238245000Y-89237500D01*
G75*
G02*
X238495000Y-89487500I0J-250000D01*
G01*
X238495000Y-90412500D01*
G75*
G02*
X238245000Y-90662500I-250000J0D01*
G01*
G37*
G36*
G01*
X238245000Y-87687500D02*
X236995000Y-87687500D01*
G75*
G02*
X236745000Y-87437500I0J250000D01*
G01*
X236745000Y-86512500D01*
G75*
G02*
X236995000Y-86262500I250000J0D01*
G01*
X238245000Y-86262500D01*
G75*
G02*
X238495000Y-86512500I0J-250000D01*
G01*
X238495000Y-87437500D01*
G75*
G02*
X238245000Y-87687500I-250000J0D01*
G01*
G37*
G36*
G01*
X199815000Y-81822500D02*
X198565000Y-81822500D01*
G75*
G02*
X198315000Y-81572500I0J250000D01*
G01*
X198315000Y-80647500D01*
G75*
G02*
X198565000Y-80397500I250000J0D01*
G01*
X199815000Y-80397500D01*
G75*
G02*
X200065000Y-80647500I0J-250000D01*
G01*
X200065000Y-81572500D01*
G75*
G02*
X199815000Y-81822500I-250000J0D01*
G01*
G37*
G36*
G01*
X199815000Y-84797500D02*
X198565000Y-84797500D01*
G75*
G02*
X198315000Y-84547500I0J250000D01*
G01*
X198315000Y-83622500D01*
G75*
G02*
X198565000Y-83372500I250000J0D01*
G01*
X199815000Y-83372500D01*
G75*
G02*
X200065000Y-83622500I0J-250000D01*
G01*
X200065000Y-84547500D01*
G75*
G02*
X199815000Y-84797500I-250000J0D01*
G01*
G37*
G36*
G01*
X213502500Y-141735000D02*
X213502500Y-140485000D01*
G75*
G02*
X213752500Y-140235000I250000J0D01*
G01*
X214677500Y-140235000D01*
G75*
G02*
X214927500Y-140485000I0J-250000D01*
G01*
X214927500Y-141735000D01*
G75*
G02*
X214677500Y-141985000I-250000J0D01*
G01*
X213752500Y-141985000D01*
G75*
G02*
X213502500Y-141735000I0J250000D01*
G01*
G37*
G36*
G01*
X216477500Y-141735000D02*
X216477500Y-140485000D01*
G75*
G02*
X216727500Y-140235000I250000J0D01*
G01*
X217652500Y-140235000D01*
G75*
G02*
X217902500Y-140485000I0J-250000D01*
G01*
X217902500Y-141735000D01*
G75*
G02*
X217652500Y-141985000I-250000J0D01*
G01*
X216727500Y-141985000D01*
G75*
G02*
X216477500Y-141735000I0J250000D01*
G01*
G37*
D18*
X236270000Y-119285000D03*
X224510000Y-119285000D03*
X236270000Y-120555000D03*
X224510000Y-120555000D03*
X236270000Y-121825000D03*
X224510000Y-121825000D03*
X236270000Y-123095000D03*
X224510000Y-123095000D03*
X236270000Y-124365000D03*
X224510000Y-124365000D03*
X236270000Y-125635000D03*
X224510000Y-125635000D03*
X236270000Y-126905000D03*
X224510000Y-126905000D03*
X236270000Y-128175000D03*
X224510000Y-128175000D03*
X236270000Y-129445000D03*
X224510000Y-129445000D03*
X236270000Y-130715000D03*
X224510000Y-130715000D03*
X236270000Y-131985000D03*
X224510000Y-131985000D03*
X236270000Y-133255000D03*
X224510000Y-133255000D03*
X236270000Y-134525000D03*
X224510000Y-134525000D03*
X236270000Y-135795000D03*
X224510000Y-135795000D03*
X236270000Y-137065000D03*
X224510000Y-137065000D03*
X236270000Y-138335000D03*
X224510000Y-138335000D03*
G36*
G01*
X275780001Y-96350000D02*
X274879999Y-96350000D01*
G75*
G02*
X274630000Y-96100001I0J249999D01*
G01*
X274630000Y-95449999D01*
G75*
G02*
X274879999Y-95200000I249999J0D01*
G01*
X275780001Y-95200000D01*
G75*
G02*
X276030000Y-95449999I0J-249999D01*
G01*
X276030000Y-96100001D01*
G75*
G02*
X275780001Y-96350000I-249999J0D01*
G01*
G37*
G36*
G01*
X275780001Y-94300000D02*
X274879999Y-94300000D01*
G75*
G02*
X274630000Y-94050001I0J249999D01*
G01*
X274630000Y-93399999D01*
G75*
G02*
X274879999Y-93150000I249999J0D01*
G01*
X275780001Y-93150000D01*
G75*
G02*
X276030000Y-93399999I0J-249999D01*
G01*
X276030000Y-94050001D01*
G75*
G02*
X275780001Y-94300000I-249999J0D01*
G01*
G37*
G36*
G01*
X300565000Y-82259999D02*
X300565000Y-83160001D01*
G75*
G02*
X300315001Y-83410000I-249999J0D01*
G01*
X299664999Y-83410000D01*
G75*
G02*
X299415000Y-83160001I0J249999D01*
G01*
X299415000Y-82259999D01*
G75*
G02*
X299664999Y-82010000I249999J0D01*
G01*
X300315001Y-82010000D01*
G75*
G02*
X300565000Y-82259999I0J-249999D01*
G01*
G37*
G36*
G01*
X298515000Y-82259999D02*
X298515000Y-83160001D01*
G75*
G02*
X298265001Y-83410000I-249999J0D01*
G01*
X297614999Y-83410000D01*
G75*
G02*
X297365000Y-83160001I0J249999D01*
G01*
X297365000Y-82259999D01*
G75*
G02*
X297614999Y-82010000I249999J0D01*
G01*
X298265001Y-82010000D01*
G75*
G02*
X298515000Y-82259999I0J-249999D01*
G01*
G37*
G36*
G01*
X212245000Y-97872500D02*
X213495000Y-97872500D01*
G75*
G02*
X213745000Y-98122500I0J-250000D01*
G01*
X213745000Y-99047500D01*
G75*
G02*
X213495000Y-99297500I-250000J0D01*
G01*
X212245000Y-99297500D01*
G75*
G02*
X211995000Y-99047500I0J250000D01*
G01*
X211995000Y-98122500D01*
G75*
G02*
X212245000Y-97872500I250000J0D01*
G01*
G37*
G36*
G01*
X212245000Y-100847500D02*
X213495000Y-100847500D01*
G75*
G02*
X213745000Y-101097500I0J-250000D01*
G01*
X213745000Y-102022500D01*
G75*
G02*
X213495000Y-102272500I-250000J0D01*
G01*
X212245000Y-102272500D01*
G75*
G02*
X211995000Y-102022500I0J250000D01*
G01*
X211995000Y-101097500D01*
G75*
G02*
X212245000Y-100847500I250000J0D01*
G01*
G37*
D11*
X189390000Y-136395000D03*
X189390000Y-137665000D03*
X189390000Y-138935000D03*
X189390000Y-140205000D03*
X189390000Y-141475000D03*
X189390000Y-142745000D03*
X189390000Y-144015000D03*
X189390000Y-145285000D03*
X189390000Y-146555000D03*
X189390000Y-147825000D03*
X179990000Y-147825000D03*
X179990000Y-146555000D03*
X179990000Y-145285000D03*
X179990000Y-144015000D03*
X179990000Y-142745000D03*
X179990000Y-141475000D03*
X179990000Y-140205000D03*
X179990000Y-138935000D03*
X179990000Y-137665000D03*
X179990000Y-136395000D03*
G36*
G01*
X198565000Y-97397500D02*
X199815000Y-97397500D01*
G75*
G02*
X200065000Y-97647500I0J-250000D01*
G01*
X200065000Y-98572500D01*
G75*
G02*
X199815000Y-98822500I-250000J0D01*
G01*
X198565000Y-98822500D01*
G75*
G02*
X198315000Y-98572500I0J250000D01*
G01*
X198315000Y-97647500D01*
G75*
G02*
X198565000Y-97397500I250000J0D01*
G01*
G37*
G36*
G01*
X198565000Y-94422500D02*
X199815000Y-94422500D01*
G75*
G02*
X200065000Y-94672500I0J-250000D01*
G01*
X200065000Y-95597500D01*
G75*
G02*
X199815000Y-95847500I-250000J0D01*
G01*
X198565000Y-95847500D01*
G75*
G02*
X198315000Y-95597500I0J250000D01*
G01*
X198315000Y-94672500D01*
G75*
G02*
X198565000Y-94422500I250000J0D01*
G01*
G37*
G36*
G01*
X281840000Y-82660001D02*
X281840000Y-81759999D01*
G75*
G02*
X282089999Y-81510000I249999J0D01*
G01*
X282740001Y-81510000D01*
G75*
G02*
X282990000Y-81759999I0J-249999D01*
G01*
X282990000Y-82660001D01*
G75*
G02*
X282740001Y-82910000I-249999J0D01*
G01*
X282089999Y-82910000D01*
G75*
G02*
X281840000Y-82660001I0J249999D01*
G01*
G37*
G36*
G01*
X283890000Y-82660001D02*
X283890000Y-81759999D01*
G75*
G02*
X284139999Y-81510000I249999J0D01*
G01*
X284790001Y-81510000D01*
G75*
G02*
X285040000Y-81759999I0J-249999D01*
G01*
X285040000Y-82660001D01*
G75*
G02*
X284790001Y-82910000I-249999J0D01*
G01*
X284139999Y-82910000D01*
G75*
G02*
X283890000Y-82660001I0J249999D01*
G01*
G37*
G36*
G01*
X273295000Y-103812500D02*
X274545000Y-103812500D01*
G75*
G02*
X274795000Y-104062500I0J-250000D01*
G01*
X274795000Y-104987500D01*
G75*
G02*
X274545000Y-105237500I-250000J0D01*
G01*
X273295000Y-105237500D01*
G75*
G02*
X273045000Y-104987500I0J250000D01*
G01*
X273045000Y-104062500D01*
G75*
G02*
X273295000Y-103812500I250000J0D01*
G01*
G37*
G36*
G01*
X273295000Y-106787500D02*
X274545000Y-106787500D01*
G75*
G02*
X274795000Y-107037500I0J-250000D01*
G01*
X274795000Y-107962500D01*
G75*
G02*
X274545000Y-108212500I-250000J0D01*
G01*
X273295000Y-108212500D01*
G75*
G02*
X273045000Y-107962500I0J250000D01*
G01*
X273045000Y-107037500D01*
G75*
G02*
X273295000Y-106787500I250000J0D01*
G01*
G37*
D22*
X288907000Y-192250000D03*
X177147000Y-192250000D03*
D23*
X280652000Y-193266000D03*
X278112000Y-193266000D03*
X275572000Y-193266000D03*
X273032000Y-193266000D03*
X270492000Y-193266000D03*
X267952000Y-193266000D03*
X265412000Y-193266000D03*
X262872000Y-193266000D03*
X260332000Y-193266000D03*
X257792000Y-193266000D03*
X255252000Y-193266000D03*
X252712000Y-193266000D03*
X250172000Y-193266000D03*
X247632000Y-193266000D03*
X245092000Y-193266000D03*
X242552000Y-193266000D03*
X240012000Y-193266000D03*
X237472000Y-193266000D03*
X236202000Y-190726000D03*
X238742000Y-190726000D03*
X241282000Y-190726000D03*
X243822000Y-190726000D03*
X246362000Y-190726000D03*
X248902000Y-190726000D03*
X251442000Y-190726000D03*
X253982000Y-190726000D03*
X256522000Y-190726000D03*
X259062000Y-190726000D03*
X261602000Y-190726000D03*
X264142000Y-190726000D03*
X266682000Y-190726000D03*
X269222000Y-190726000D03*
X271762000Y-190726000D03*
X274302000Y-190726000D03*
X276842000Y-190726000D03*
X279382000Y-190726000D03*
X228582000Y-190726000D03*
X226042000Y-190726000D03*
X223502000Y-190726000D03*
X220962000Y-190726000D03*
X218422000Y-190726000D03*
X215882000Y-190726000D03*
X213342000Y-190726000D03*
X210802000Y-190726000D03*
X208262000Y-190726000D03*
X205722000Y-190726000D03*
X203182000Y-190726000D03*
X200642000Y-190726000D03*
X198102000Y-190726000D03*
X195562000Y-190726000D03*
X193022000Y-190726000D03*
X190482000Y-190726000D03*
X187942000Y-190726000D03*
X185402000Y-190726000D03*
X186672000Y-193266000D03*
X189212000Y-193266000D03*
X191752000Y-193266000D03*
X194292000Y-193266000D03*
X196832000Y-193266000D03*
X199372000Y-193266000D03*
X201912000Y-193266000D03*
X204452000Y-193266000D03*
X206992000Y-193266000D03*
X209532000Y-193266000D03*
X212072000Y-193266000D03*
X214612000Y-193266000D03*
X217152000Y-193266000D03*
X219692000Y-193266000D03*
X222232000Y-193266000D03*
X224772000Y-193266000D03*
X227312000Y-193266000D03*
X229852000Y-193266000D03*
D22*
X233027000Y-192250000D03*
D24*
X140990000Y-49980000D03*
X298470000Y-72840000D03*
X298470000Y-204920000D03*
X140990000Y-204920000D03*
D12*
X125750000Y-65220000D03*
X130830000Y-65220000D03*
X125750000Y-67760000D03*
X125750000Y-70300000D03*
X125750000Y-72840000D03*
X125750000Y-75380000D03*
X125750000Y-77920000D03*
X125750000Y-80460000D03*
X125750000Y-83000000D03*
X125750000Y-85540000D03*
X125750000Y-88080000D03*
X125750000Y-90620000D03*
X125750000Y-93160000D03*
X125750000Y-95700000D03*
X125750000Y-98240000D03*
X125750000Y-100780000D03*
X125750000Y-103320000D03*
X125750000Y-105860000D03*
X125750000Y-108400000D03*
X125750000Y-110940000D03*
X125750000Y-113480000D03*
X125750000Y-116020000D03*
X125750000Y-118560000D03*
X125750000Y-121100000D03*
X125750000Y-123640000D03*
X125750000Y-126180000D03*
X125750000Y-128720000D03*
X125750000Y-131260000D03*
X125750000Y-133800000D03*
X125750000Y-136340000D03*
X125750000Y-138880000D03*
X125750000Y-141420000D03*
X130830000Y-67760000D03*
X130830000Y-70300000D03*
X130830000Y-72840000D03*
X130830000Y-75380000D03*
X130830000Y-77920000D03*
X130830000Y-80460000D03*
X130830000Y-83000000D03*
X130830000Y-85540000D03*
X130830000Y-88080000D03*
X130830000Y-90620000D03*
X130830000Y-93160000D03*
X130830000Y-95700000D03*
X130830000Y-98240000D03*
X130830000Y-100780000D03*
X130830000Y-103320000D03*
X130830000Y-105860000D03*
X130830000Y-108400000D03*
X130830000Y-110940000D03*
X130830000Y-113480000D03*
X130830000Y-116020000D03*
X130830000Y-118560000D03*
X130830000Y-121100000D03*
X130830000Y-123640000D03*
X130830000Y-126180000D03*
X130830000Y-128720000D03*
X130830000Y-131260000D03*
X130830000Y-133800000D03*
X130830000Y-136340000D03*
X130830000Y-138880000D03*
X130830000Y-141420000D03*
X146070000Y-65220000D03*
X151150000Y-65220000D03*
X146070000Y-67760000D03*
X146070000Y-70300000D03*
X146070000Y-72840000D03*
X146070000Y-75380000D03*
X146070000Y-77920000D03*
X146070000Y-80460000D03*
X146070000Y-83000000D03*
X146070000Y-85540000D03*
X146070000Y-88080000D03*
X146070000Y-90620000D03*
X146070000Y-93160000D03*
X146070000Y-95700000D03*
X146070000Y-98240000D03*
X146070000Y-100780000D03*
X146070000Y-103320000D03*
X146070000Y-105860000D03*
X146070000Y-108400000D03*
X146070000Y-110940000D03*
X146070000Y-113480000D03*
X146070000Y-116020000D03*
X146070000Y-118560000D03*
X146070000Y-121100000D03*
X146070000Y-123640000D03*
X146070000Y-126180000D03*
X146070000Y-128720000D03*
X146070000Y-131260000D03*
X146070000Y-133800000D03*
X146070000Y-136340000D03*
X146070000Y-138880000D03*
X146070000Y-141420000D03*
X151150000Y-67760000D03*
X151150000Y-70300000D03*
X151150000Y-72840000D03*
X151150000Y-75380000D03*
X151150000Y-77920000D03*
X151150000Y-80460000D03*
X151150000Y-83000000D03*
X151150000Y-85540000D03*
X151150000Y-88080000D03*
X151150000Y-90620000D03*
X151150000Y-93160000D03*
X151150000Y-95700000D03*
X151150000Y-98240000D03*
X151150000Y-100780000D03*
X151150000Y-103320000D03*
X151150000Y-105860000D03*
X151150000Y-108400000D03*
X151150000Y-110940000D03*
X151150000Y-113480000D03*
X151150000Y-116020000D03*
X151150000Y-118560000D03*
X151150000Y-121100000D03*
X151150000Y-123640000D03*
X151150000Y-126180000D03*
X151150000Y-128720000D03*
X151150000Y-131260000D03*
X151150000Y-133800000D03*
X151150000Y-136340000D03*
X151150000Y-138880000D03*
X151150000Y-141420000D03*
G36*
G01*
X226675000Y-47000000D02*
X227925000Y-47000000D01*
G75*
G02*
X228175000Y-47250000I0J-250000D01*
G01*
X228175000Y-48175000D01*
G75*
G02*
X227925000Y-48425000I-250000J0D01*
G01*
X226675000Y-48425000D01*
G75*
G02*
X226425000Y-48175000I0J250000D01*
G01*
X226425000Y-47250000D01*
G75*
G02*
X226675000Y-47000000I250000J0D01*
G01*
G37*
G36*
G01*
X226675000Y-49975000D02*
X227925000Y-49975000D01*
G75*
G02*
X228175000Y-50225000I0J-250000D01*
G01*
X228175000Y-51150000D01*
G75*
G02*
X227925000Y-51400000I-250000J0D01*
G01*
X226675000Y-51400000D01*
G75*
G02*
X226425000Y-51150000I0J250000D01*
G01*
X226425000Y-50225000D01*
G75*
G02*
X226675000Y-49975000I250000J0D01*
G01*
G37*
G36*
G01*
X278980000Y-99555000D02*
X278980000Y-100805000D01*
G75*
G02*
X278730000Y-101055000I-250000J0D01*
G01*
X277805000Y-101055000D01*
G75*
G02*
X277555000Y-100805000I0J250000D01*
G01*
X277555000Y-99555000D01*
G75*
G02*
X277805000Y-99305000I250000J0D01*
G01*
X278730000Y-99305000D01*
G75*
G02*
X278980000Y-99555000I0J-250000D01*
G01*
G37*
G36*
G01*
X276005000Y-99555000D02*
X276005000Y-100805000D01*
G75*
G02*
X275755000Y-101055000I-250000J0D01*
G01*
X274830000Y-101055000D01*
G75*
G02*
X274580000Y-100805000I0J250000D01*
G01*
X274580000Y-99555000D01*
G75*
G02*
X274830000Y-99305000I250000J0D01*
G01*
X275755000Y-99305000D01*
G75*
G02*
X276005000Y-99555000I0J-250000D01*
G01*
G37*
G36*
G01*
X114430000Y-156485000D02*
X114430000Y-157735000D01*
G75*
G02*
X114180000Y-157985000I-250000J0D01*
G01*
X113255000Y-157985000D01*
G75*
G02*
X113005000Y-157735000I0J250000D01*
G01*
X113005000Y-156485000D01*
G75*
G02*
X113255000Y-156235000I250000J0D01*
G01*
X114180000Y-156235000D01*
G75*
G02*
X114430000Y-156485000I0J-250000D01*
G01*
G37*
G36*
G01*
X111455000Y-156485000D02*
X111455000Y-157735000D01*
G75*
G02*
X111205000Y-157985000I-250000J0D01*
G01*
X110280000Y-157985000D01*
G75*
G02*
X110030000Y-157735000I0J250000D01*
G01*
X110030000Y-156485000D01*
G75*
G02*
X110280000Y-156235000I250000J0D01*
G01*
X111205000Y-156235000D01*
G75*
G02*
X111455000Y-156485000I0J-250000D01*
G01*
G37*
G36*
G01*
X154975000Y-62370000D02*
X156225000Y-62370000D01*
G75*
G02*
X156475000Y-62620000I0J-250000D01*
G01*
X156475000Y-63545000D01*
G75*
G02*
X156225000Y-63795000I-250000J0D01*
G01*
X154975000Y-63795000D01*
G75*
G02*
X154725000Y-63545000I0J250000D01*
G01*
X154725000Y-62620000D01*
G75*
G02*
X154975000Y-62370000I250000J0D01*
G01*
G37*
G36*
G01*
X154975000Y-65345000D02*
X156225000Y-65345000D01*
G75*
G02*
X156475000Y-65595000I0J-250000D01*
G01*
X156475000Y-66520000D01*
G75*
G02*
X156225000Y-66770000I-250000J0D01*
G01*
X154975000Y-66770000D01*
G75*
G02*
X154725000Y-66520000I0J250000D01*
G01*
X154725000Y-65595000D01*
G75*
G02*
X154975000Y-65345000I250000J0D01*
G01*
G37*
G36*
G01*
X243364674Y-64734527D02*
X243839674Y-64734527D01*
G75*
G02*
X244077174Y-64972027I0J-237500D01*
G01*
X244077174Y-65547027D01*
G75*
G02*
X243839674Y-65784527I-237500J0D01*
G01*
X243364674Y-65784527D01*
G75*
G02*
X243127174Y-65547027I0J237500D01*
G01*
X243127174Y-64972027D01*
G75*
G02*
X243364674Y-64734527I237500J0D01*
G01*
G37*
G36*
G01*
X243364674Y-66484527D02*
X243839674Y-66484527D01*
G75*
G02*
X244077174Y-66722027I0J-237500D01*
G01*
X244077174Y-67297027D01*
G75*
G02*
X243839674Y-67534527I-237500J0D01*
G01*
X243364674Y-67534527D01*
G75*
G02*
X243127174Y-67297027I0J237500D01*
G01*
X243127174Y-66722027D01*
G75*
G02*
X243364674Y-66484527I237500J0D01*
G01*
G37*
G36*
G01*
X243839674Y-73191381D02*
X243364674Y-73191381D01*
G75*
G02*
X243127174Y-72953881I0J237500D01*
G01*
X243127174Y-72378881D01*
G75*
G02*
X243364674Y-72141381I237500J0D01*
G01*
X243839674Y-72141381D01*
G75*
G02*
X244077174Y-72378881I0J-237500D01*
G01*
X244077174Y-72953881D01*
G75*
G02*
X243839674Y-73191381I-237500J0D01*
G01*
G37*
G36*
G01*
X243839674Y-71441381D02*
X243364674Y-71441381D01*
G75*
G02*
X243127174Y-71203881I0J237500D01*
G01*
X243127174Y-70628881D01*
G75*
G02*
X243364674Y-70391381I237500J0D01*
G01*
X243839674Y-70391381D01*
G75*
G02*
X244077174Y-70628881I0J-237500D01*
G01*
X244077174Y-71203881D01*
G75*
G02*
X243839674Y-71441381I-237500J0D01*
G01*
G37*
G36*
G01*
X233400839Y-62374120D02*
X232925839Y-62374120D01*
G75*
G02*
X232688339Y-62136620I0J237500D01*
G01*
X232688339Y-61561620D01*
G75*
G02*
X232925839Y-61324120I237500J0D01*
G01*
X233400839Y-61324120D01*
G75*
G02*
X233638339Y-61561620I0J-237500D01*
G01*
X233638339Y-62136620D01*
G75*
G02*
X233400839Y-62374120I-237500J0D01*
G01*
G37*
G36*
G01*
X233400839Y-64124120D02*
X232925839Y-64124120D01*
G75*
G02*
X232688339Y-63886620I0J237500D01*
G01*
X232688339Y-63311620D01*
G75*
G02*
X232925839Y-63074120I237500J0D01*
G01*
X233400839Y-63074120D01*
G75*
G02*
X233638339Y-63311620I0J-237500D01*
G01*
X233638339Y-63886620D01*
G75*
G02*
X233400839Y-64124120I-237500J0D01*
G01*
G37*
D25*
X228831611Y-61670314D03*
X228431611Y-61670314D03*
X228031611Y-61670314D03*
X227631611Y-61670314D03*
X227231611Y-61670314D03*
X226831611Y-61670314D03*
X226431611Y-61670314D03*
X226031611Y-61670314D03*
X225631611Y-61670314D03*
X225231611Y-61670314D03*
X224831611Y-61670314D03*
X224431611Y-61670314D03*
X224031611Y-61670314D03*
X223631611Y-61670314D03*
X223231611Y-61670314D03*
X222831611Y-61670314D03*
X222431611Y-61670314D03*
X222031611Y-61670314D03*
X221631611Y-61670314D03*
X221231611Y-61670314D03*
D26*
X219381611Y-63520314D03*
X219381611Y-63920314D03*
X219381611Y-64320314D03*
X219381611Y-64720314D03*
X219381611Y-65120314D03*
X219381611Y-65520314D03*
X219381611Y-65920314D03*
X219381611Y-66320314D03*
X219381611Y-66720314D03*
X219381611Y-67120314D03*
X219381611Y-67520314D03*
X219381611Y-67920314D03*
X219381611Y-68320314D03*
X219381611Y-68720314D03*
X219381611Y-69120314D03*
X219381611Y-69520314D03*
X219381611Y-69920314D03*
X219381611Y-70320314D03*
X219381611Y-70720314D03*
X219381611Y-71120314D03*
D25*
X221231611Y-72970314D03*
X221631611Y-72970314D03*
X222031611Y-72970314D03*
X222431611Y-72970314D03*
X222831611Y-72970314D03*
X223231611Y-72970314D03*
X223631611Y-72970314D03*
X224031611Y-72970314D03*
X224431611Y-72970314D03*
X224831611Y-72970314D03*
X225231611Y-72970314D03*
X225631611Y-72970314D03*
X226031611Y-72970314D03*
X226431611Y-72970314D03*
X226831611Y-72970314D03*
X227231611Y-72970314D03*
X227631611Y-72970314D03*
X228031611Y-72970314D03*
X228431611Y-72970314D03*
X228831611Y-72970314D03*
D26*
X230681611Y-71120314D03*
X230681611Y-70720314D03*
X230681611Y-70320314D03*
X230681611Y-69920314D03*
X230681611Y-69520314D03*
X230681611Y-69120314D03*
X230681611Y-68720314D03*
X230681611Y-68320314D03*
X230681611Y-67920314D03*
X230681611Y-67520314D03*
X230681611Y-67120314D03*
X230681611Y-66720314D03*
X230681611Y-66320314D03*
X230681611Y-65920314D03*
X230681611Y-65520314D03*
X230681611Y-65120314D03*
X230681611Y-64720314D03*
X230681611Y-64320314D03*
X230681611Y-63920314D03*
X230681611Y-63520314D03*
G36*
G01*
X223240746Y-59481416D02*
X223240746Y-59956416D01*
G75*
G02*
X223003246Y-60193916I-237500J0D01*
G01*
X222428246Y-60193916D01*
G75*
G02*
X222190746Y-59956416I0J237500D01*
G01*
X222190746Y-59481416D01*
G75*
G02*
X222428246Y-59243916I237500J0D01*
G01*
X223003246Y-59243916D01*
G75*
G02*
X223240746Y-59481416I0J-237500D01*
G01*
G37*
G36*
G01*
X221490746Y-59481416D02*
X221490746Y-59956416D01*
G75*
G02*
X221253246Y-60193916I-237500J0D01*
G01*
X220678246Y-60193916D01*
G75*
G02*
X220440746Y-59956416I0J237500D01*
G01*
X220440746Y-59481416D01*
G75*
G02*
X220678246Y-59243916I237500J0D01*
G01*
X221253246Y-59243916D01*
G75*
G02*
X221490746Y-59481416I0J-237500D01*
G01*
G37*
G36*
G01*
X232937500Y-69350000D02*
X233412500Y-69350000D01*
G75*
G02*
X233650000Y-69587500I0J-237500D01*
G01*
X233650000Y-70162500D01*
G75*
G02*
X233412500Y-70400000I-237500J0D01*
G01*
X232937500Y-70400000D01*
G75*
G02*
X232700000Y-70162500I0J237500D01*
G01*
X232700000Y-69587500D01*
G75*
G02*
X232937500Y-69350000I237500J0D01*
G01*
G37*
G36*
G01*
X232937500Y-71100000D02*
X233412500Y-71100000D01*
G75*
G02*
X233650000Y-71337500I0J-237500D01*
G01*
X233650000Y-71912500D01*
G75*
G02*
X233412500Y-72150000I-237500J0D01*
G01*
X232937500Y-72150000D01*
G75*
G02*
X232700000Y-71912500I0J237500D01*
G01*
X232700000Y-71337500D01*
G75*
G02*
X232937500Y-71100000I237500J0D01*
G01*
G37*
G36*
G01*
X285925000Y-139389999D02*
X285925000Y-140290001D01*
G75*
G02*
X285675001Y-140540000I-249999J0D01*
G01*
X285024999Y-140540000D01*
G75*
G02*
X284775000Y-140290001I0J249999D01*
G01*
X284775000Y-139389999D01*
G75*
G02*
X285024999Y-139140000I249999J0D01*
G01*
X285675001Y-139140000D01*
G75*
G02*
X285925000Y-139389999I0J-249999D01*
G01*
G37*
G36*
G01*
X283875000Y-139389999D02*
X283875000Y-140290001D01*
G75*
G02*
X283625001Y-140540000I-249999J0D01*
G01*
X282974999Y-140540000D01*
G75*
G02*
X282725000Y-140290001I0J249999D01*
G01*
X282725000Y-139389999D01*
G75*
G02*
X282974999Y-139140000I249999J0D01*
G01*
X283625001Y-139140000D01*
G75*
G02*
X283875000Y-139389999I0J-249999D01*
G01*
G37*
G36*
G01*
X292600000Y-60169999D02*
X292600000Y-61070001D01*
G75*
G02*
X292350001Y-61320000I-249999J0D01*
G01*
X291699999Y-61320000D01*
G75*
G02*
X291450000Y-61070001I0J249999D01*
G01*
X291450000Y-60169999D01*
G75*
G02*
X291699999Y-59920000I249999J0D01*
G01*
X292350001Y-59920000D01*
G75*
G02*
X292600000Y-60169999I0J-249999D01*
G01*
G37*
G36*
G01*
X290550000Y-60169999D02*
X290550000Y-61070001D01*
G75*
G02*
X290300001Y-61320000I-249999J0D01*
G01*
X289649999Y-61320000D01*
G75*
G02*
X289400000Y-61070001I0J249999D01*
G01*
X289400000Y-60169999D01*
G75*
G02*
X289649999Y-59920000I249999J0D01*
G01*
X290300001Y-59920000D01*
G75*
G02*
X290550000Y-60169999I0J-249999D01*
G01*
G37*
G36*
G01*
X283100000Y-60169999D02*
X283100000Y-61070001D01*
G75*
G02*
X282850001Y-61320000I-249999J0D01*
G01*
X282199999Y-61320000D01*
G75*
G02*
X281950000Y-61070001I0J249999D01*
G01*
X281950000Y-60169999D01*
G75*
G02*
X282199999Y-59920000I249999J0D01*
G01*
X282850001Y-59920000D01*
G75*
G02*
X283100000Y-60169999I0J-249999D01*
G01*
G37*
G36*
G01*
X281050000Y-60169999D02*
X281050000Y-61070001D01*
G75*
G02*
X280800001Y-61320000I-249999J0D01*
G01*
X280149999Y-61320000D01*
G75*
G02*
X279900000Y-61070001I0J249999D01*
G01*
X279900000Y-60169999D01*
G75*
G02*
X280149999Y-59920000I249999J0D01*
G01*
X280800001Y-59920000D01*
G75*
G02*
X281050000Y-60169999I0J-249999D01*
G01*
G37*
G36*
G01*
X273600000Y-60169999D02*
X273600000Y-61070001D01*
G75*
G02*
X273350001Y-61320000I-249999J0D01*
G01*
X272699999Y-61320000D01*
G75*
G02*
X272450000Y-61070001I0J249999D01*
G01*
X272450000Y-60169999D01*
G75*
G02*
X272699999Y-59920000I249999J0D01*
G01*
X273350001Y-59920000D01*
G75*
G02*
X273600000Y-60169999I0J-249999D01*
G01*
G37*
G36*
G01*
X271550000Y-60169999D02*
X271550000Y-61070001D01*
G75*
G02*
X271300001Y-61320000I-249999J0D01*
G01*
X270649999Y-61320000D01*
G75*
G02*
X270400000Y-61070001I0J249999D01*
G01*
X270400000Y-60169999D01*
G75*
G02*
X270649999Y-59920000I249999J0D01*
G01*
X271300001Y-59920000D01*
G75*
G02*
X271550000Y-60169999I0J-249999D01*
G01*
G37*
G36*
G01*
X294049999Y-62270000D02*
X294950001Y-62270000D01*
G75*
G02*
X295200000Y-62519999I0J-249999D01*
G01*
X295200000Y-63170001D01*
G75*
G02*
X294950001Y-63420000I-249999J0D01*
G01*
X294049999Y-63420000D01*
G75*
G02*
X293800000Y-63170001I0J249999D01*
G01*
X293800000Y-62519999D01*
G75*
G02*
X294049999Y-62270000I249999J0D01*
G01*
G37*
G36*
G01*
X294049999Y-64320000D02*
X294950001Y-64320000D01*
G75*
G02*
X295200000Y-64569999I0J-249999D01*
G01*
X295200000Y-65220001D01*
G75*
G02*
X294950001Y-65470000I-249999J0D01*
G01*
X294049999Y-65470000D01*
G75*
G02*
X293800000Y-65220001I0J249999D01*
G01*
X293800000Y-64569999D01*
G75*
G02*
X294049999Y-64320000I249999J0D01*
G01*
G37*
G36*
G01*
X291799999Y-62270000D02*
X292700001Y-62270000D01*
G75*
G02*
X292950000Y-62519999I0J-249999D01*
G01*
X292950000Y-63170001D01*
G75*
G02*
X292700001Y-63420000I-249999J0D01*
G01*
X291799999Y-63420000D01*
G75*
G02*
X291550000Y-63170001I0J249999D01*
G01*
X291550000Y-62519999D01*
G75*
G02*
X291799999Y-62270000I249999J0D01*
G01*
G37*
G36*
G01*
X291799999Y-64320000D02*
X292700001Y-64320000D01*
G75*
G02*
X292950000Y-64569999I0J-249999D01*
G01*
X292950000Y-65220001D01*
G75*
G02*
X292700001Y-65470000I-249999J0D01*
G01*
X291799999Y-65470000D01*
G75*
G02*
X291550000Y-65220001I0J249999D01*
G01*
X291550000Y-64569999D01*
G75*
G02*
X291799999Y-64320000I249999J0D01*
G01*
G37*
G36*
G01*
X286799999Y-62270000D02*
X287700001Y-62270000D01*
G75*
G02*
X287950000Y-62519999I0J-249999D01*
G01*
X287950000Y-63170001D01*
G75*
G02*
X287700001Y-63420000I-249999J0D01*
G01*
X286799999Y-63420000D01*
G75*
G02*
X286550000Y-63170001I0J249999D01*
G01*
X286550000Y-62519999D01*
G75*
G02*
X286799999Y-62270000I249999J0D01*
G01*
G37*
G36*
G01*
X286799999Y-64320000D02*
X287700001Y-64320000D01*
G75*
G02*
X287950000Y-64569999I0J-249999D01*
G01*
X287950000Y-65220001D01*
G75*
G02*
X287700001Y-65470000I-249999J0D01*
G01*
X286799999Y-65470000D01*
G75*
G02*
X286550000Y-65220001I0J249999D01*
G01*
X286550000Y-64569999D01*
G75*
G02*
X286799999Y-64320000I249999J0D01*
G01*
G37*
G36*
G01*
X284549999Y-62270000D02*
X285450001Y-62270000D01*
G75*
G02*
X285700000Y-62519999I0J-249999D01*
G01*
X285700000Y-63170001D01*
G75*
G02*
X285450001Y-63420000I-249999J0D01*
G01*
X284549999Y-63420000D01*
G75*
G02*
X284300000Y-63170001I0J249999D01*
G01*
X284300000Y-62519999D01*
G75*
G02*
X284549999Y-62270000I249999J0D01*
G01*
G37*
G36*
G01*
X284549999Y-64320000D02*
X285450001Y-64320000D01*
G75*
G02*
X285700000Y-64569999I0J-249999D01*
G01*
X285700000Y-65220001D01*
G75*
G02*
X285450001Y-65470000I-249999J0D01*
G01*
X284549999Y-65470000D01*
G75*
G02*
X284300000Y-65220001I0J249999D01*
G01*
X284300000Y-64569999D01*
G75*
G02*
X284549999Y-64320000I249999J0D01*
G01*
G37*
G36*
G01*
X282299999Y-62270000D02*
X283200001Y-62270000D01*
G75*
G02*
X283450000Y-62519999I0J-249999D01*
G01*
X283450000Y-63170001D01*
G75*
G02*
X283200001Y-63420000I-249999J0D01*
G01*
X282299999Y-63420000D01*
G75*
G02*
X282050000Y-63170001I0J249999D01*
G01*
X282050000Y-62519999D01*
G75*
G02*
X282299999Y-62270000I249999J0D01*
G01*
G37*
G36*
G01*
X282299999Y-64320000D02*
X283200001Y-64320000D01*
G75*
G02*
X283450000Y-64569999I0J-249999D01*
G01*
X283450000Y-65220001D01*
G75*
G02*
X283200001Y-65470000I-249999J0D01*
G01*
X282299999Y-65470000D01*
G75*
G02*
X282050000Y-65220001I0J249999D01*
G01*
X282050000Y-64569999D01*
G75*
G02*
X282299999Y-64320000I249999J0D01*
G01*
G37*
G36*
G01*
X277299999Y-62270000D02*
X278200001Y-62270000D01*
G75*
G02*
X278450000Y-62519999I0J-249999D01*
G01*
X278450000Y-63170001D01*
G75*
G02*
X278200001Y-63420000I-249999J0D01*
G01*
X277299999Y-63420000D01*
G75*
G02*
X277050000Y-63170001I0J249999D01*
G01*
X277050000Y-62519999D01*
G75*
G02*
X277299999Y-62270000I249999J0D01*
G01*
G37*
G36*
G01*
X277299999Y-64320000D02*
X278200001Y-64320000D01*
G75*
G02*
X278450000Y-64569999I0J-249999D01*
G01*
X278450000Y-65220001D01*
G75*
G02*
X278200001Y-65470000I-249999J0D01*
G01*
X277299999Y-65470000D01*
G75*
G02*
X277050000Y-65220001I0J249999D01*
G01*
X277050000Y-64569999D01*
G75*
G02*
X277299999Y-64320000I249999J0D01*
G01*
G37*
G36*
G01*
X275049999Y-62270000D02*
X275950001Y-62270000D01*
G75*
G02*
X276200000Y-62519999I0J-249999D01*
G01*
X276200000Y-63170001D01*
G75*
G02*
X275950001Y-63420000I-249999J0D01*
G01*
X275049999Y-63420000D01*
G75*
G02*
X274800000Y-63170001I0J249999D01*
G01*
X274800000Y-62519999D01*
G75*
G02*
X275049999Y-62270000I249999J0D01*
G01*
G37*
G36*
G01*
X275049999Y-64320000D02*
X275950001Y-64320000D01*
G75*
G02*
X276200000Y-64569999I0J-249999D01*
G01*
X276200000Y-65220001D01*
G75*
G02*
X275950001Y-65470000I-249999J0D01*
G01*
X275049999Y-65470000D01*
G75*
G02*
X274800000Y-65220001I0J249999D01*
G01*
X274800000Y-64569999D01*
G75*
G02*
X275049999Y-64320000I249999J0D01*
G01*
G37*
G36*
G01*
X272799999Y-62270000D02*
X273700001Y-62270000D01*
G75*
G02*
X273950000Y-62519999I0J-249999D01*
G01*
X273950000Y-63170001D01*
G75*
G02*
X273700001Y-63420000I-249999J0D01*
G01*
X272799999Y-63420000D01*
G75*
G02*
X272550000Y-63170001I0J249999D01*
G01*
X272550000Y-62519999D01*
G75*
G02*
X272799999Y-62270000I249999J0D01*
G01*
G37*
G36*
G01*
X272799999Y-64320000D02*
X273700001Y-64320000D01*
G75*
G02*
X273950000Y-64569999I0J-249999D01*
G01*
X273950000Y-65220001D01*
G75*
G02*
X273700001Y-65470000I-249999J0D01*
G01*
X272799999Y-65470000D01*
G75*
G02*
X272550000Y-65220001I0J249999D01*
G01*
X272550000Y-64569999D01*
G75*
G02*
X272799999Y-64320000I249999J0D01*
G01*
G37*
D27*
X282140000Y-75085000D03*
X282140000Y-74435000D03*
X282140000Y-73785000D03*
X282140000Y-73135000D03*
X282140000Y-72485000D03*
X282140000Y-71835000D03*
X282140000Y-71185000D03*
X282140000Y-70535000D03*
X282140000Y-69885000D03*
X282140000Y-69235000D03*
X276240000Y-69235000D03*
X276240000Y-69885000D03*
X276240000Y-70535000D03*
X276240000Y-71185000D03*
X276240000Y-71835000D03*
X276240000Y-72485000D03*
X276240000Y-73135000D03*
X276240000Y-73785000D03*
X276240000Y-74435000D03*
X276240000Y-75085000D03*
D28*
G36*
X263733853Y-77602081D02*
G01*
X263592431Y-77743503D01*
X262531771Y-76682843D01*
X262673193Y-76541421D01*
X263733853Y-77602081D01*
G37*
G36*
X264016696Y-77319238D02*
G01*
X263875274Y-77460660D01*
X262814614Y-76400000D01*
X262956036Y-76258578D01*
X264016696Y-77319238D01*
G37*
G36*
X264299538Y-77036396D02*
G01*
X264158116Y-77177818D01*
X263097456Y-76117158D01*
X263238878Y-75975736D01*
X264299538Y-77036396D01*
G37*
G36*
X264582381Y-76753553D02*
G01*
X264440959Y-76894975D01*
X263380299Y-75834315D01*
X263521721Y-75692893D01*
X264582381Y-76753553D01*
G37*
G36*
X264865224Y-76470710D02*
G01*
X264723802Y-76612132D01*
X263663142Y-75551472D01*
X263804564Y-75410050D01*
X264865224Y-76470710D01*
G37*
G36*
X265148066Y-76187867D02*
G01*
X265006644Y-76329289D01*
X263945984Y-75268629D01*
X264087406Y-75127207D01*
X265148066Y-76187867D01*
G37*
G36*
X265430909Y-75905025D02*
G01*
X265289487Y-76046447D01*
X264228827Y-74985787D01*
X264370249Y-74844365D01*
X265430909Y-75905025D01*
G37*
G36*
X265713752Y-75622182D02*
G01*
X265572330Y-75763604D01*
X264511670Y-74702944D01*
X264653092Y-74561522D01*
X265713752Y-75622182D01*
G37*
G36*
X265996595Y-75339339D02*
G01*
X265855173Y-75480761D01*
X264794513Y-74420101D01*
X264935935Y-74278679D01*
X265996595Y-75339339D01*
G37*
G36*
X266279437Y-75056497D02*
G01*
X266138015Y-75197919D01*
X265077355Y-74137259D01*
X265218777Y-73995837D01*
X266279437Y-75056497D01*
G37*
G36*
X266562280Y-74773654D02*
G01*
X266420858Y-74915076D01*
X265360198Y-73854416D01*
X265501620Y-73712994D01*
X266562280Y-74773654D01*
G37*
G36*
X266845123Y-74490811D02*
G01*
X266703701Y-74632233D01*
X265643041Y-73571573D01*
X265784463Y-73430151D01*
X266845123Y-74490811D01*
G37*
G36*
X267127965Y-74207968D02*
G01*
X266986543Y-74349390D01*
X265925883Y-73288730D01*
X266067305Y-73147308D01*
X267127965Y-74207968D01*
G37*
G36*
X267410808Y-73925126D02*
G01*
X267269386Y-74066548D01*
X266208726Y-73005888D01*
X266350148Y-72864466D01*
X267410808Y-73925126D01*
G37*
G36*
X267693651Y-73642283D02*
G01*
X267552229Y-73783705D01*
X266491569Y-72723045D01*
X266632991Y-72581623D01*
X267693651Y-73642283D01*
G37*
G36*
X267976494Y-73359440D02*
G01*
X267835072Y-73500862D01*
X266774412Y-72440202D01*
X266915834Y-72298780D01*
X267976494Y-73359440D01*
G37*
G36*
X268259336Y-73076598D02*
G01*
X268117914Y-73218020D01*
X267057254Y-72157360D01*
X267198676Y-72015938D01*
X268259336Y-73076598D01*
G37*
G36*
X268542179Y-72793755D02*
G01*
X268400757Y-72935177D01*
X267340097Y-71874517D01*
X267481519Y-71733095D01*
X268542179Y-72793755D01*
G37*
G36*
X268825022Y-72510912D02*
G01*
X268683600Y-72652334D01*
X267622940Y-71591674D01*
X267764362Y-71450252D01*
X268825022Y-72510912D01*
G37*
G36*
X269107864Y-72228069D02*
G01*
X268966442Y-72369491D01*
X267905782Y-71308831D01*
X268047204Y-71167409D01*
X269107864Y-72228069D01*
G37*
G36*
X269390707Y-71945227D02*
G01*
X269249285Y-72086649D01*
X268188625Y-71025989D01*
X268330047Y-70884567D01*
X269390707Y-71945227D01*
G37*
G36*
X269673550Y-71662384D02*
G01*
X269532128Y-71803806D01*
X268471468Y-70743146D01*
X268612890Y-70601724D01*
X269673550Y-71662384D01*
G37*
G36*
X269956393Y-71379541D02*
G01*
X269814971Y-71520963D01*
X268754311Y-70460303D01*
X268895733Y-70318881D01*
X269956393Y-71379541D01*
G37*
G36*
X270239235Y-71096699D02*
G01*
X270097813Y-71238121D01*
X269037153Y-70177461D01*
X269178575Y-70036039D01*
X270239235Y-71096699D01*
G37*
G36*
X270522078Y-70813856D02*
G01*
X270380656Y-70955278D01*
X269319996Y-69894618D01*
X269461418Y-69753196D01*
X270522078Y-70813856D01*
G37*
G36*
X270380656Y-67066190D02*
G01*
X270522078Y-67207612D01*
X269461418Y-68268272D01*
X269319996Y-68126850D01*
X270380656Y-67066190D01*
G37*
G36*
X270097813Y-66783347D02*
G01*
X270239235Y-66924769D01*
X269178575Y-67985429D01*
X269037153Y-67844007D01*
X270097813Y-66783347D01*
G37*
G36*
X269814971Y-66500505D02*
G01*
X269956393Y-66641927D01*
X268895733Y-67702587D01*
X268754311Y-67561165D01*
X269814971Y-66500505D01*
G37*
G36*
X269532128Y-66217662D02*
G01*
X269673550Y-66359084D01*
X268612890Y-67419744D01*
X268471468Y-67278322D01*
X269532128Y-66217662D01*
G37*
G36*
X269249285Y-65934819D02*
G01*
X269390707Y-66076241D01*
X268330047Y-67136901D01*
X268188625Y-66995479D01*
X269249285Y-65934819D01*
G37*
G36*
X268966442Y-65651977D02*
G01*
X269107864Y-65793399D01*
X268047204Y-66854059D01*
X267905782Y-66712637D01*
X268966442Y-65651977D01*
G37*
G36*
X268683600Y-65369134D02*
G01*
X268825022Y-65510556D01*
X267764362Y-66571216D01*
X267622940Y-66429794D01*
X268683600Y-65369134D01*
G37*
G36*
X268400757Y-65086291D02*
G01*
X268542179Y-65227713D01*
X267481519Y-66288373D01*
X267340097Y-66146951D01*
X268400757Y-65086291D01*
G37*
G36*
X268117914Y-64803448D02*
G01*
X268259336Y-64944870D01*
X267198676Y-66005530D01*
X267057254Y-65864108D01*
X268117914Y-64803448D01*
G37*
G36*
X267835072Y-64520606D02*
G01*
X267976494Y-64662028D01*
X266915834Y-65722688D01*
X266774412Y-65581266D01*
X267835072Y-64520606D01*
G37*
G36*
X267552229Y-64237763D02*
G01*
X267693651Y-64379185D01*
X266632991Y-65439845D01*
X266491569Y-65298423D01*
X267552229Y-64237763D01*
G37*
G36*
X267269386Y-63954920D02*
G01*
X267410808Y-64096342D01*
X266350148Y-65157002D01*
X266208726Y-65015580D01*
X267269386Y-63954920D01*
G37*
G36*
X266986543Y-63672078D02*
G01*
X267127965Y-63813500D01*
X266067305Y-64874160D01*
X265925883Y-64732738D01*
X266986543Y-63672078D01*
G37*
G36*
X266703701Y-63389235D02*
G01*
X266845123Y-63530657D01*
X265784463Y-64591317D01*
X265643041Y-64449895D01*
X266703701Y-63389235D01*
G37*
G36*
X266420858Y-63106392D02*
G01*
X266562280Y-63247814D01*
X265501620Y-64308474D01*
X265360198Y-64167052D01*
X266420858Y-63106392D01*
G37*
G36*
X266138015Y-62823549D02*
G01*
X266279437Y-62964971D01*
X265218777Y-64025631D01*
X265077355Y-63884209D01*
X266138015Y-62823549D01*
G37*
G36*
X265855173Y-62540707D02*
G01*
X265996595Y-62682129D01*
X264935935Y-63742789D01*
X264794513Y-63601367D01*
X265855173Y-62540707D01*
G37*
G36*
X265572330Y-62257864D02*
G01*
X265713752Y-62399286D01*
X264653092Y-63459946D01*
X264511670Y-63318524D01*
X265572330Y-62257864D01*
G37*
G36*
X265289487Y-61975021D02*
G01*
X265430909Y-62116443D01*
X264370249Y-63177103D01*
X264228827Y-63035681D01*
X265289487Y-61975021D01*
G37*
G36*
X265006644Y-61692179D02*
G01*
X265148066Y-61833601D01*
X264087406Y-62894261D01*
X263945984Y-62752839D01*
X265006644Y-61692179D01*
G37*
G36*
X264723802Y-61409336D02*
G01*
X264865224Y-61550758D01*
X263804564Y-62611418D01*
X263663142Y-62469996D01*
X264723802Y-61409336D01*
G37*
G36*
X264440959Y-61126493D02*
G01*
X264582381Y-61267915D01*
X263521721Y-62328575D01*
X263380299Y-62187153D01*
X264440959Y-61126493D01*
G37*
G36*
X264158116Y-60843650D02*
G01*
X264299538Y-60985072D01*
X263238878Y-62045732D01*
X263097456Y-61904310D01*
X264158116Y-60843650D01*
G37*
G36*
X263875274Y-60560808D02*
G01*
X264016696Y-60702230D01*
X262956036Y-61762890D01*
X262814614Y-61621468D01*
X263875274Y-60560808D01*
G37*
G36*
X263592431Y-60277965D02*
G01*
X263733853Y-60419387D01*
X262673193Y-61480047D01*
X262531771Y-61338625D01*
X263592431Y-60277965D01*
G37*
G36*
X261046847Y-61338625D02*
G01*
X260905425Y-61480047D01*
X259844765Y-60419387D01*
X259986187Y-60277965D01*
X261046847Y-61338625D01*
G37*
G36*
X260764004Y-61621468D02*
G01*
X260622582Y-61762890D01*
X259561922Y-60702230D01*
X259703344Y-60560808D01*
X260764004Y-61621468D01*
G37*
G36*
X260481162Y-61904310D02*
G01*
X260339740Y-62045732D01*
X259279080Y-60985072D01*
X259420502Y-60843650D01*
X260481162Y-61904310D01*
G37*
G36*
X260198319Y-62187153D02*
G01*
X260056897Y-62328575D01*
X258996237Y-61267915D01*
X259137659Y-61126493D01*
X260198319Y-62187153D01*
G37*
G36*
X259915476Y-62469996D02*
G01*
X259774054Y-62611418D01*
X258713394Y-61550758D01*
X258854816Y-61409336D01*
X259915476Y-62469996D01*
G37*
G36*
X259632634Y-62752839D02*
G01*
X259491212Y-62894261D01*
X258430552Y-61833601D01*
X258571974Y-61692179D01*
X259632634Y-62752839D01*
G37*
G36*
X259349791Y-63035681D02*
G01*
X259208369Y-63177103D01*
X258147709Y-62116443D01*
X258289131Y-61975021D01*
X259349791Y-63035681D01*
G37*
G36*
X259066948Y-63318524D02*
G01*
X258925526Y-63459946D01*
X257864866Y-62399286D01*
X258006288Y-62257864D01*
X259066948Y-63318524D01*
G37*
G36*
X258784105Y-63601367D02*
G01*
X258642683Y-63742789D01*
X257582023Y-62682129D01*
X257723445Y-62540707D01*
X258784105Y-63601367D01*
G37*
G36*
X258501263Y-63884209D02*
G01*
X258359841Y-64025631D01*
X257299181Y-62964971D01*
X257440603Y-62823549D01*
X258501263Y-63884209D01*
G37*
G36*
X258218420Y-64167052D02*
G01*
X258076998Y-64308474D01*
X257016338Y-63247814D01*
X257157760Y-63106392D01*
X258218420Y-64167052D01*
G37*
G36*
X257935577Y-64449895D02*
G01*
X257794155Y-64591317D01*
X256733495Y-63530657D01*
X256874917Y-63389235D01*
X257935577Y-64449895D01*
G37*
G36*
X257652735Y-64732738D02*
G01*
X257511313Y-64874160D01*
X256450653Y-63813500D01*
X256592075Y-63672078D01*
X257652735Y-64732738D01*
G37*
G36*
X257369892Y-65015580D02*
G01*
X257228470Y-65157002D01*
X256167810Y-64096342D01*
X256309232Y-63954920D01*
X257369892Y-65015580D01*
G37*
G36*
X257087049Y-65298423D02*
G01*
X256945627Y-65439845D01*
X255884967Y-64379185D01*
X256026389Y-64237763D01*
X257087049Y-65298423D01*
G37*
G36*
X256804206Y-65581266D02*
G01*
X256662784Y-65722688D01*
X255602124Y-64662028D01*
X255743546Y-64520606D01*
X256804206Y-65581266D01*
G37*
G36*
X256521364Y-65864108D02*
G01*
X256379942Y-66005530D01*
X255319282Y-64944870D01*
X255460704Y-64803448D01*
X256521364Y-65864108D01*
G37*
G36*
X256238521Y-66146951D02*
G01*
X256097099Y-66288373D01*
X255036439Y-65227713D01*
X255177861Y-65086291D01*
X256238521Y-66146951D01*
G37*
G36*
X255955678Y-66429794D02*
G01*
X255814256Y-66571216D01*
X254753596Y-65510556D01*
X254895018Y-65369134D01*
X255955678Y-66429794D01*
G37*
G36*
X255672836Y-66712637D02*
G01*
X255531414Y-66854059D01*
X254470754Y-65793399D01*
X254612176Y-65651977D01*
X255672836Y-66712637D01*
G37*
G36*
X255389993Y-66995479D02*
G01*
X255248571Y-67136901D01*
X254187911Y-66076241D01*
X254329333Y-65934819D01*
X255389993Y-66995479D01*
G37*
G36*
X255107150Y-67278322D02*
G01*
X254965728Y-67419744D01*
X253905068Y-66359084D01*
X254046490Y-66217662D01*
X255107150Y-67278322D01*
G37*
G36*
X254824307Y-67561165D02*
G01*
X254682885Y-67702587D01*
X253622225Y-66641927D01*
X253763647Y-66500505D01*
X254824307Y-67561165D01*
G37*
G36*
X254541465Y-67844007D02*
G01*
X254400043Y-67985429D01*
X253339383Y-66924769D01*
X253480805Y-66783347D01*
X254541465Y-67844007D01*
G37*
G36*
X254258622Y-68126850D02*
G01*
X254117200Y-68268272D01*
X253056540Y-67207612D01*
X253197962Y-67066190D01*
X254258622Y-68126850D01*
G37*
G36*
X254117200Y-69753196D02*
G01*
X254258622Y-69894618D01*
X253197962Y-70955278D01*
X253056540Y-70813856D01*
X254117200Y-69753196D01*
G37*
G36*
X254400043Y-70036039D02*
G01*
X254541465Y-70177461D01*
X253480805Y-71238121D01*
X253339383Y-71096699D01*
X254400043Y-70036039D01*
G37*
G36*
X254682885Y-70318881D02*
G01*
X254824307Y-70460303D01*
X253763647Y-71520963D01*
X253622225Y-71379541D01*
X254682885Y-70318881D01*
G37*
G36*
X254965728Y-70601724D02*
G01*
X255107150Y-70743146D01*
X254046490Y-71803806D01*
X253905068Y-71662384D01*
X254965728Y-70601724D01*
G37*
G36*
X255248571Y-70884567D02*
G01*
X255389993Y-71025989D01*
X254329333Y-72086649D01*
X254187911Y-71945227D01*
X255248571Y-70884567D01*
G37*
G36*
X255531414Y-71167409D02*
G01*
X255672836Y-71308831D01*
X254612176Y-72369491D01*
X254470754Y-72228069D01*
X255531414Y-71167409D01*
G37*
G36*
X255814256Y-71450252D02*
G01*
X255955678Y-71591674D01*
X254895018Y-72652334D01*
X254753596Y-72510912D01*
X255814256Y-71450252D01*
G37*
G36*
X256097099Y-71733095D02*
G01*
X256238521Y-71874517D01*
X255177861Y-72935177D01*
X255036439Y-72793755D01*
X256097099Y-71733095D01*
G37*
G36*
X256379942Y-72015938D02*
G01*
X256521364Y-72157360D01*
X255460704Y-73218020D01*
X255319282Y-73076598D01*
X256379942Y-72015938D01*
G37*
G36*
X256662784Y-72298780D02*
G01*
X256804206Y-72440202D01*
X255743546Y-73500862D01*
X255602124Y-73359440D01*
X256662784Y-72298780D01*
G37*
G36*
X256945627Y-72581623D02*
G01*
X257087049Y-72723045D01*
X256026389Y-73783705D01*
X255884967Y-73642283D01*
X256945627Y-72581623D01*
G37*
G36*
X257228470Y-72864466D02*
G01*
X257369892Y-73005888D01*
X256309232Y-74066548D01*
X256167810Y-73925126D01*
X257228470Y-72864466D01*
G37*
G36*
X257511313Y-73147308D02*
G01*
X257652735Y-73288730D01*
X256592075Y-74349390D01*
X256450653Y-74207968D01*
X257511313Y-73147308D01*
G37*
G36*
X257794155Y-73430151D02*
G01*
X257935577Y-73571573D01*
X256874917Y-74632233D01*
X256733495Y-74490811D01*
X257794155Y-73430151D01*
G37*
G36*
X258076998Y-73712994D02*
G01*
X258218420Y-73854416D01*
X257157760Y-74915076D01*
X257016338Y-74773654D01*
X258076998Y-73712994D01*
G37*
G36*
X258359841Y-73995837D02*
G01*
X258501263Y-74137259D01*
X257440603Y-75197919D01*
X257299181Y-75056497D01*
X258359841Y-73995837D01*
G37*
G36*
X258642683Y-74278679D02*
G01*
X258784105Y-74420101D01*
X257723445Y-75480761D01*
X257582023Y-75339339D01*
X258642683Y-74278679D01*
G37*
G36*
X258925526Y-74561522D02*
G01*
X259066948Y-74702944D01*
X258006288Y-75763604D01*
X257864866Y-75622182D01*
X258925526Y-74561522D01*
G37*
G36*
X259208369Y-74844365D02*
G01*
X259349791Y-74985787D01*
X258289131Y-76046447D01*
X258147709Y-75905025D01*
X259208369Y-74844365D01*
G37*
G36*
X259491212Y-75127207D02*
G01*
X259632634Y-75268629D01*
X258571974Y-76329289D01*
X258430552Y-76187867D01*
X259491212Y-75127207D01*
G37*
G36*
X259774054Y-75410050D02*
G01*
X259915476Y-75551472D01*
X258854816Y-76612132D01*
X258713394Y-76470710D01*
X259774054Y-75410050D01*
G37*
G36*
X260056897Y-75692893D02*
G01*
X260198319Y-75834315D01*
X259137659Y-76894975D01*
X258996237Y-76753553D01*
X260056897Y-75692893D01*
G37*
G36*
X260339740Y-75975736D02*
G01*
X260481162Y-76117158D01*
X259420502Y-77177818D01*
X259279080Y-77036396D01*
X260339740Y-75975736D01*
G37*
G36*
X260622582Y-76258578D02*
G01*
X260764004Y-76400000D01*
X259703344Y-77460660D01*
X259561922Y-77319238D01*
X260622582Y-76258578D01*
G37*
G36*
X260905425Y-76541421D02*
G01*
X261046847Y-76682843D01*
X259986187Y-77743503D01*
X259844765Y-77602081D01*
X260905425Y-76541421D01*
G37*
G36*
G01*
X255001085Y-75763603D02*
X253692936Y-77071752D01*
G75*
G02*
X253339384Y-77071752I-176776J176776D01*
G01*
X252101945Y-75834313D01*
G75*
G02*
X252101945Y-75480761I176776J176776D01*
G01*
X253410094Y-74172612D01*
G75*
G02*
X253763646Y-74172612I176776J-176776D01*
G01*
X255001085Y-75410051D01*
G75*
G02*
X255001085Y-75763603I-176776J-176776D01*
G01*
G37*
G36*
G01*
X251394841Y-72157359D02*
X250086692Y-73465508D01*
G75*
G02*
X249733140Y-73465508I-176776J176776D01*
G01*
X248495701Y-72228069D01*
G75*
G02*
X248495701Y-71874517I176776J176776D01*
G01*
X249803850Y-70566368D01*
G75*
G02*
X250157402Y-70566368I176776J-176776D01*
G01*
X251394841Y-71803807D01*
G75*
G02*
X251394841Y-72157359I-176776J-176776D01*
G01*
G37*
G36*
G01*
X254603337Y-63804660D02*
X254267461Y-63468784D01*
G75*
G02*
X254267461Y-63132908I167938J167938D01*
G01*
X254674047Y-62726322D01*
G75*
G02*
X255009923Y-62726322I167938J-167938D01*
G01*
X255345799Y-63062198D01*
G75*
G02*
X255345799Y-63398074I-167938J-167938D01*
G01*
X254939213Y-63804660D01*
G75*
G02*
X254603337Y-63804660I-167938J167938D01*
G01*
G37*
G36*
G01*
X255840773Y-62567224D02*
X255504897Y-62231348D01*
G75*
G02*
X255504897Y-61895472I167938J167938D01*
G01*
X255911483Y-61488886D01*
G75*
G02*
X256247359Y-61488886I167938J-167938D01*
G01*
X256583235Y-61824762D01*
G75*
G02*
X256583235Y-62160638I-167938J-167938D01*
G01*
X256176649Y-62567224D01*
G75*
G02*
X255840773Y-62567224I-167938J167938D01*
G01*
G37*
G36*
G01*
X268038366Y-75825475D02*
X267702490Y-75489599D01*
G75*
G02*
X267702490Y-75153723I167938J167938D01*
G01*
X268109076Y-74747137D01*
G75*
G02*
X268444952Y-74747137I167938J-167938D01*
G01*
X268780828Y-75083013D01*
G75*
G02*
X268780828Y-75418889I-167938J-167938D01*
G01*
X268374242Y-75825475D01*
G75*
G02*
X268038366Y-75825475I-167938J167938D01*
G01*
G37*
G36*
G01*
X269275802Y-74588039D02*
X268939926Y-74252163D01*
G75*
G02*
X268939926Y-73916287I167938J167938D01*
G01*
X269346512Y-73509701D01*
G75*
G02*
X269682388Y-73509701I167938J-167938D01*
G01*
X270018264Y-73845577D01*
G75*
G02*
X270018264Y-74181453I-167938J-167938D01*
G01*
X269611678Y-74588039D01*
G75*
G02*
X269275802Y-74588039I-167938J167938D01*
G01*
G37*
G36*
G01*
X252547594Y-49079403D02*
X253022594Y-49079403D01*
G75*
G02*
X253260094Y-49316903I0J-237500D01*
G01*
X253260094Y-49891903D01*
G75*
G02*
X253022594Y-50129403I-237500J0D01*
G01*
X252547594Y-50129403D01*
G75*
G02*
X252310094Y-49891903I0J237500D01*
G01*
X252310094Y-49316903D01*
G75*
G02*
X252547594Y-49079403I237500J0D01*
G01*
G37*
G36*
G01*
X252547594Y-50829403D02*
X253022594Y-50829403D01*
G75*
G02*
X253260094Y-51066903I0J-237500D01*
G01*
X253260094Y-51641903D01*
G75*
G02*
X253022594Y-51879403I-237500J0D01*
G01*
X252547594Y-51879403D01*
G75*
G02*
X252310094Y-51641903I0J237500D01*
G01*
X252310094Y-51066903D01*
G75*
G02*
X252547594Y-50829403I237500J0D01*
G01*
G37*
D15*
X256035095Y-44069404D03*
X256035095Y-46609404D03*
X256035095Y-49149404D03*
X256035095Y-51689404D03*
D16*
X256035095Y-54229404D03*
D24*
X95270000Y-204920000D03*
X95270000Y-49980000D03*
D22*
X288907000Y-202250000D03*
X177147000Y-202250000D03*
D23*
X280652000Y-203266000D03*
X278112000Y-203266000D03*
X275572000Y-203266000D03*
X273032000Y-203266000D03*
X270492000Y-203266000D03*
X267952000Y-203266000D03*
X265412000Y-203266000D03*
X262872000Y-203266000D03*
X260332000Y-203266000D03*
X257792000Y-203266000D03*
X255252000Y-203266000D03*
X252712000Y-203266000D03*
X250172000Y-203266000D03*
X247632000Y-203266000D03*
X245092000Y-203266000D03*
X242552000Y-203266000D03*
X240012000Y-203266000D03*
X237472000Y-203266000D03*
X236202000Y-200726000D03*
X238742000Y-200726000D03*
X241282000Y-200726000D03*
X243822000Y-200726000D03*
X246362000Y-200726000D03*
X248902000Y-200726000D03*
X251442000Y-200726000D03*
X253982000Y-200726000D03*
X256522000Y-200726000D03*
X259062000Y-200726000D03*
X261602000Y-200726000D03*
X264142000Y-200726000D03*
X266682000Y-200726000D03*
X269222000Y-200726000D03*
X271762000Y-200726000D03*
X274302000Y-200726000D03*
X276842000Y-200726000D03*
X279382000Y-200726000D03*
X228582000Y-200726000D03*
X226042000Y-200726000D03*
X223502000Y-200726000D03*
X220962000Y-200726000D03*
X218422000Y-200726000D03*
X215882000Y-200726000D03*
X213342000Y-200726000D03*
X210802000Y-200726000D03*
X208262000Y-200726000D03*
X205722000Y-200726000D03*
X203182000Y-200726000D03*
X200642000Y-200726000D03*
X198102000Y-200726000D03*
X195562000Y-200726000D03*
X193022000Y-200726000D03*
X190482000Y-200726000D03*
X187942000Y-200726000D03*
X185402000Y-200726000D03*
X186672000Y-203266000D03*
X189212000Y-203266000D03*
X191752000Y-203266000D03*
X194292000Y-203266000D03*
X196832000Y-203266000D03*
X199372000Y-203266000D03*
X201912000Y-203266000D03*
X204452000Y-203266000D03*
X206992000Y-203266000D03*
X209532000Y-203266000D03*
X212072000Y-203266000D03*
X214612000Y-203266000D03*
X217152000Y-203266000D03*
X219692000Y-203266000D03*
X222232000Y-203266000D03*
X224772000Y-203266000D03*
X227312000Y-203266000D03*
X229852000Y-203266000D03*
D22*
X233027000Y-202250000D03*
D29*
X278910000Y-53420000D03*
X281200000Y-53420000D03*
X283490000Y-53420000D03*
X276620000Y-53420000D03*
D30*
X274330000Y-53420000D03*
D31*
X265035000Y-51440000D03*
D29*
X283490000Y-49460000D03*
X281200000Y-49460000D03*
X278910000Y-49460000D03*
X276620000Y-49460000D03*
X274330000Y-49460000D03*
X275475000Y-51440000D03*
X273185000Y-51440000D03*
X280055000Y-51440000D03*
X282345000Y-51440000D03*
X277765000Y-51440000D03*
D31*
X290025000Y-51440000D03*
G36*
G01*
X286420174Y-180419813D02*
X286756050Y-180755689D01*
G75*
G02*
X286756050Y-181091565I-167938J-167938D01*
G01*
X286349464Y-181498151D01*
G75*
G02*
X286013588Y-181498151I-167938J167938D01*
G01*
X285677712Y-181162275D01*
G75*
G02*
X285677712Y-180826399I167938J167938D01*
G01*
X286084298Y-180419813D01*
G75*
G02*
X286420174Y-180419813I167938J-167938D01*
G01*
G37*
G36*
G01*
X285182738Y-181657249D02*
X285518614Y-181993125D01*
G75*
G02*
X285518614Y-182329001I-167938J-167938D01*
G01*
X285112028Y-182735587D01*
G75*
G02*
X284776152Y-182735587I-167938J167938D01*
G01*
X284440276Y-182399711D01*
G75*
G02*
X284440276Y-182063835I167938J167938D01*
G01*
X284846862Y-181657249D01*
G75*
G02*
X285182738Y-181657249I167938J-167938D01*
G01*
G37*
G36*
G01*
X246850001Y-183250000D02*
X245949999Y-183250000D01*
G75*
G02*
X245700000Y-183000001I0J249999D01*
G01*
X245700000Y-182349999D01*
G75*
G02*
X245949999Y-182100000I249999J0D01*
G01*
X246850001Y-182100000D01*
G75*
G02*
X247100000Y-182349999I0J-249999D01*
G01*
X247100000Y-183000001D01*
G75*
G02*
X246850001Y-183250000I-249999J0D01*
G01*
G37*
G36*
G01*
X246850001Y-181200000D02*
X245949999Y-181200000D01*
G75*
G02*
X245700000Y-180950001I0J249999D01*
G01*
X245700000Y-180299999D01*
G75*
G02*
X245949999Y-180050000I249999J0D01*
G01*
X246850001Y-180050000D01*
G75*
G02*
X247100000Y-180299999I0J-249999D01*
G01*
X247100000Y-180950001D01*
G75*
G02*
X246850001Y-181200000I-249999J0D01*
G01*
G37*
G36*
G01*
X242950001Y-187250000D02*
X242049999Y-187250000D01*
G75*
G02*
X241800000Y-187000001I0J249999D01*
G01*
X241800000Y-186349999D01*
G75*
G02*
X242049999Y-186100000I249999J0D01*
G01*
X242950001Y-186100000D01*
G75*
G02*
X243200000Y-186349999I0J-249999D01*
G01*
X243200000Y-187000001D01*
G75*
G02*
X242950001Y-187250000I-249999J0D01*
G01*
G37*
G36*
G01*
X242950001Y-185200000D02*
X242049999Y-185200000D01*
G75*
G02*
X241800000Y-184950001I0J249999D01*
G01*
X241800000Y-184299999D01*
G75*
G02*
X242049999Y-184050000I249999J0D01*
G01*
X242950001Y-184050000D01*
G75*
G02*
X243200000Y-184299999I0J-249999D01*
G01*
X243200000Y-184950001D01*
G75*
G02*
X242950001Y-185200000I-249999J0D01*
G01*
G37*
G36*
G01*
X241750001Y-183250000D02*
X240849999Y-183250000D01*
G75*
G02*
X240600000Y-183000001I0J249999D01*
G01*
X240600000Y-182349999D01*
G75*
G02*
X240849999Y-182100000I249999J0D01*
G01*
X241750001Y-182100000D01*
G75*
G02*
X242000000Y-182349999I0J-249999D01*
G01*
X242000000Y-183000001D01*
G75*
G02*
X241750001Y-183250000I-249999J0D01*
G01*
G37*
G36*
G01*
X241750001Y-181200000D02*
X240849999Y-181200000D01*
G75*
G02*
X240600000Y-180950001I0J249999D01*
G01*
X240600000Y-180299999D01*
G75*
G02*
X240849999Y-180050000I249999J0D01*
G01*
X241750001Y-180050000D01*
G75*
G02*
X242000000Y-180299999I0J-249999D01*
G01*
X242000000Y-180950001D01*
G75*
G02*
X241750001Y-181200000I-249999J0D01*
G01*
G37*
G36*
G01*
X245600001Y-187250000D02*
X244699999Y-187250000D01*
G75*
G02*
X244450000Y-187000001I0J249999D01*
G01*
X244450000Y-186349999D01*
G75*
G02*
X244699999Y-186100000I249999J0D01*
G01*
X245600001Y-186100000D01*
G75*
G02*
X245850000Y-186349999I0J-249999D01*
G01*
X245850000Y-187000001D01*
G75*
G02*
X245600001Y-187250000I-249999J0D01*
G01*
G37*
G36*
G01*
X245600001Y-185200000D02*
X244699999Y-185200000D01*
G75*
G02*
X244450000Y-184950001I0J249999D01*
G01*
X244450000Y-184299999D01*
G75*
G02*
X244699999Y-184050000I249999J0D01*
G01*
X245600001Y-184050000D01*
G75*
G02*
X245850000Y-184299999I0J-249999D01*
G01*
X245850000Y-184950001D01*
G75*
G02*
X245600001Y-185200000I-249999J0D01*
G01*
G37*
G36*
G01*
X217650001Y-187250000D02*
X216749999Y-187250000D01*
G75*
G02*
X216500000Y-187000001I0J249999D01*
G01*
X216500000Y-186349999D01*
G75*
G02*
X216749999Y-186100000I249999J0D01*
G01*
X217650001Y-186100000D01*
G75*
G02*
X217900000Y-186349999I0J-249999D01*
G01*
X217900000Y-187000001D01*
G75*
G02*
X217650001Y-187250000I-249999J0D01*
G01*
G37*
G36*
G01*
X217650001Y-185200000D02*
X216749999Y-185200000D01*
G75*
G02*
X216500000Y-184950001I0J249999D01*
G01*
X216500000Y-184299999D01*
G75*
G02*
X216749999Y-184050000I249999J0D01*
G01*
X217650001Y-184050000D01*
G75*
G02*
X217900000Y-184299999I0J-249999D01*
G01*
X217900000Y-184950001D01*
G75*
G02*
X217650001Y-185200000I-249999J0D01*
G01*
G37*
G36*
G01*
X226550001Y-183250000D02*
X225649999Y-183250000D01*
G75*
G02*
X225400000Y-183000001I0J249999D01*
G01*
X225400000Y-182349999D01*
G75*
G02*
X225649999Y-182100000I249999J0D01*
G01*
X226550001Y-182100000D01*
G75*
G02*
X226800000Y-182349999I0J-249999D01*
G01*
X226800000Y-183000001D01*
G75*
G02*
X226550001Y-183250000I-249999J0D01*
G01*
G37*
G36*
G01*
X226550001Y-181200000D02*
X225649999Y-181200000D01*
G75*
G02*
X225400000Y-180950001I0J249999D01*
G01*
X225400000Y-180299999D01*
G75*
G02*
X225649999Y-180050000I249999J0D01*
G01*
X226550001Y-180050000D01*
G75*
G02*
X226800000Y-180299999I0J-249999D01*
G01*
X226800000Y-180950001D01*
G75*
G02*
X226550001Y-181200000I-249999J0D01*
G01*
G37*
G36*
G01*
X225150001Y-187250000D02*
X224249999Y-187250000D01*
G75*
G02*
X224000000Y-187000001I0J249999D01*
G01*
X224000000Y-186349999D01*
G75*
G02*
X224249999Y-186100000I249999J0D01*
G01*
X225150001Y-186100000D01*
G75*
G02*
X225400000Y-186349999I0J-249999D01*
G01*
X225400000Y-187000001D01*
G75*
G02*
X225150001Y-187250000I-249999J0D01*
G01*
G37*
G36*
G01*
X225150001Y-185200000D02*
X224249999Y-185200000D01*
G75*
G02*
X224000000Y-184950001I0J249999D01*
G01*
X224000000Y-184299999D01*
G75*
G02*
X224249999Y-184050000I249999J0D01*
G01*
X225150001Y-184050000D01*
G75*
G02*
X225400000Y-184299999I0J-249999D01*
G01*
X225400000Y-184950001D01*
G75*
G02*
X225150001Y-185200000I-249999J0D01*
G01*
G37*
G36*
G01*
X223950001Y-183250000D02*
X223049999Y-183250000D01*
G75*
G02*
X222800000Y-183000001I0J249999D01*
G01*
X222800000Y-182349999D01*
G75*
G02*
X223049999Y-182100000I249999J0D01*
G01*
X223950001Y-182100000D01*
G75*
G02*
X224200000Y-182349999I0J-249999D01*
G01*
X224200000Y-183000001D01*
G75*
G02*
X223950001Y-183250000I-249999J0D01*
G01*
G37*
G36*
G01*
X223950001Y-181200000D02*
X223049999Y-181200000D01*
G75*
G02*
X222800000Y-180950001I0J249999D01*
G01*
X222800000Y-180299999D01*
G75*
G02*
X223049999Y-180050000I249999J0D01*
G01*
X223950001Y-180050000D01*
G75*
G02*
X224200000Y-180299999I0J-249999D01*
G01*
X224200000Y-180950001D01*
G75*
G02*
X223950001Y-181200000I-249999J0D01*
G01*
G37*
G36*
G01*
X222750001Y-187250000D02*
X221849999Y-187250000D01*
G75*
G02*
X221600000Y-187000001I0J249999D01*
G01*
X221600000Y-186349999D01*
G75*
G02*
X221849999Y-186100000I249999J0D01*
G01*
X222750001Y-186100000D01*
G75*
G02*
X223000000Y-186349999I0J-249999D01*
G01*
X223000000Y-187000001D01*
G75*
G02*
X222750001Y-187250000I-249999J0D01*
G01*
G37*
G36*
G01*
X222750001Y-185200000D02*
X221849999Y-185200000D01*
G75*
G02*
X221600000Y-184950001I0J249999D01*
G01*
X221600000Y-184299999D01*
G75*
G02*
X221849999Y-184050000I249999J0D01*
G01*
X222750001Y-184050000D01*
G75*
G02*
X223000000Y-184299999I0J-249999D01*
G01*
X223000000Y-184950001D01*
G75*
G02*
X222750001Y-185200000I-249999J0D01*
G01*
G37*
G36*
G01*
X239150001Y-183250000D02*
X238249999Y-183250000D01*
G75*
G02*
X238000000Y-183000001I0J249999D01*
G01*
X238000000Y-182349999D01*
G75*
G02*
X238249999Y-182100000I249999J0D01*
G01*
X239150001Y-182100000D01*
G75*
G02*
X239400000Y-182349999I0J-249999D01*
G01*
X239400000Y-183000001D01*
G75*
G02*
X239150001Y-183250000I-249999J0D01*
G01*
G37*
G36*
G01*
X239150001Y-181200000D02*
X238249999Y-181200000D01*
G75*
G02*
X238000000Y-180950001I0J249999D01*
G01*
X238000000Y-180299999D01*
G75*
G02*
X238249999Y-180050000I249999J0D01*
G01*
X239150001Y-180050000D01*
G75*
G02*
X239400000Y-180299999I0J-249999D01*
G01*
X239400000Y-180950001D01*
G75*
G02*
X239150001Y-181200000I-249999J0D01*
G01*
G37*
G36*
G01*
X240450001Y-187250000D02*
X239549999Y-187250000D01*
G75*
G02*
X239300000Y-187000001I0J249999D01*
G01*
X239300000Y-186349999D01*
G75*
G02*
X239549999Y-186100000I249999J0D01*
G01*
X240450001Y-186100000D01*
G75*
G02*
X240700000Y-186349999I0J-249999D01*
G01*
X240700000Y-187000001D01*
G75*
G02*
X240450001Y-187250000I-249999J0D01*
G01*
G37*
G36*
G01*
X240450001Y-185200000D02*
X239549999Y-185200000D01*
G75*
G02*
X239300000Y-184950001I0J249999D01*
G01*
X239300000Y-184299999D01*
G75*
G02*
X239549999Y-184050000I249999J0D01*
G01*
X240450001Y-184050000D01*
G75*
G02*
X240700000Y-184299999I0J-249999D01*
G01*
X240700000Y-184950001D01*
G75*
G02*
X240450001Y-185200000I-249999J0D01*
G01*
G37*
G36*
G01*
X235350001Y-187250000D02*
X234449999Y-187250000D01*
G75*
G02*
X234200000Y-187000001I0J249999D01*
G01*
X234200000Y-186349999D01*
G75*
G02*
X234449999Y-186100000I249999J0D01*
G01*
X235350001Y-186100000D01*
G75*
G02*
X235600000Y-186349999I0J-249999D01*
G01*
X235600000Y-187000001D01*
G75*
G02*
X235350001Y-187250000I-249999J0D01*
G01*
G37*
G36*
G01*
X235350001Y-185200000D02*
X234449999Y-185200000D01*
G75*
G02*
X234200000Y-184950001I0J249999D01*
G01*
X234200000Y-184299999D01*
G75*
G02*
X234449999Y-184050000I249999J0D01*
G01*
X235350001Y-184050000D01*
G75*
G02*
X235600000Y-184299999I0J-249999D01*
G01*
X235600000Y-184950001D01*
G75*
G02*
X235350001Y-185200000I-249999J0D01*
G01*
G37*
G36*
G01*
X237850001Y-187250000D02*
X236949999Y-187250000D01*
G75*
G02*
X236700000Y-187000001I0J249999D01*
G01*
X236700000Y-186349999D01*
G75*
G02*
X236949999Y-186100000I249999J0D01*
G01*
X237850001Y-186100000D01*
G75*
G02*
X238100000Y-186349999I0J-249999D01*
G01*
X238100000Y-187000001D01*
G75*
G02*
X237850001Y-187250000I-249999J0D01*
G01*
G37*
G36*
G01*
X237850001Y-185200000D02*
X236949999Y-185200000D01*
G75*
G02*
X236700000Y-184950001I0J249999D01*
G01*
X236700000Y-184299999D01*
G75*
G02*
X236949999Y-184050000I249999J0D01*
G01*
X237850001Y-184050000D01*
G75*
G02*
X238100000Y-184299999I0J-249999D01*
G01*
X238100000Y-184950001D01*
G75*
G02*
X237850001Y-185200000I-249999J0D01*
G01*
G37*
G36*
G01*
X293942023Y-177264348D02*
X293305626Y-177900745D01*
G75*
G02*
X292952074Y-177900745I-176776J176776D01*
G01*
X292492453Y-177441124D01*
G75*
G02*
X292492453Y-177087572I176776J176776D01*
G01*
X293128850Y-176451175D01*
G75*
G02*
X293482402Y-176451175I176776J-176776D01*
G01*
X293942023Y-176910796D01*
G75*
G02*
X293942023Y-177264348I-176776J-176776D01*
G01*
G37*
G36*
G01*
X292492455Y-175814780D02*
X291856058Y-176451177D01*
G75*
G02*
X291502506Y-176451177I-176776J176776D01*
G01*
X291042885Y-175991556D01*
G75*
G02*
X291042885Y-175638004I176776J176776D01*
G01*
X291679282Y-175001607D01*
G75*
G02*
X292032834Y-175001607I176776J-176776D01*
G01*
X292492455Y-175461228D01*
G75*
G02*
X292492455Y-175814780I-176776J-176776D01*
G01*
G37*
G36*
G01*
X295533013Y-175673357D02*
X294896616Y-176309754D01*
G75*
G02*
X294543064Y-176309754I-176776J176776D01*
G01*
X294083443Y-175850133D01*
G75*
G02*
X294083443Y-175496581I176776J176776D01*
G01*
X294719840Y-174860184D01*
G75*
G02*
X295073392Y-174860184I176776J-176776D01*
G01*
X295533013Y-175319805D01*
G75*
G02*
X295533013Y-175673357I-176776J-176776D01*
G01*
G37*
G36*
G01*
X294083445Y-174223789D02*
X293447048Y-174860186D01*
G75*
G02*
X293093496Y-174860186I-176776J176776D01*
G01*
X292633875Y-174400565D01*
G75*
G02*
X292633875Y-174047013I176776J176776D01*
G01*
X293270272Y-173410616D01*
G75*
G02*
X293623824Y-173410616I176776J-176776D01*
G01*
X294083445Y-173870237D01*
G75*
G02*
X294083445Y-174223789I-176776J-176776D01*
G01*
G37*
G36*
G01*
X299952430Y-171253940D02*
X299316033Y-171890337D01*
G75*
G02*
X298962481Y-171890337I-176776J176776D01*
G01*
X298502860Y-171430716D01*
G75*
G02*
X298502860Y-171077164I176776J176776D01*
G01*
X299139257Y-170440767D01*
G75*
G02*
X299492809Y-170440767I176776J-176776D01*
G01*
X299952430Y-170900388D01*
G75*
G02*
X299952430Y-171253940I-176776J-176776D01*
G01*
G37*
G36*
G01*
X298502862Y-169804372D02*
X297866465Y-170440769D01*
G75*
G02*
X297512913Y-170440769I-176776J176776D01*
G01*
X297053292Y-169981148D01*
G75*
G02*
X297053292Y-169627596I176776J176776D01*
G01*
X297689689Y-168991199D01*
G75*
G02*
X298043241Y-168991199I176776J-176776D01*
G01*
X298502862Y-169450820D01*
G75*
G02*
X298502862Y-169804372I-176776J-176776D01*
G01*
G37*
G36*
G01*
X298361440Y-172844930D02*
X297725043Y-173481327D01*
G75*
G02*
X297371491Y-173481327I-176776J176776D01*
G01*
X296911870Y-173021706D01*
G75*
G02*
X296911870Y-172668154I176776J176776D01*
G01*
X297548267Y-172031757D01*
G75*
G02*
X297901819Y-172031757I176776J-176776D01*
G01*
X298361440Y-172491378D01*
G75*
G02*
X298361440Y-172844930I-176776J-176776D01*
G01*
G37*
G36*
G01*
X296911872Y-171395362D02*
X296275475Y-172031759D01*
G75*
G02*
X295921923Y-172031759I-176776J176776D01*
G01*
X295462302Y-171572138D01*
G75*
G02*
X295462302Y-171218586I176776J176776D01*
G01*
X296098699Y-170582189D01*
G75*
G02*
X296452251Y-170582189I176776J-176776D01*
G01*
X296911872Y-171041810D01*
G75*
G02*
X296911872Y-171395362I-176776J-176776D01*
G01*
G37*
G36*
G01*
X264738513Y-174718763D02*
X264102116Y-175355160D01*
G75*
G02*
X263748564Y-175355160I-176776J176776D01*
G01*
X263288943Y-174895539D01*
G75*
G02*
X263288943Y-174541987I176776J176776D01*
G01*
X263925340Y-173905590D01*
G75*
G02*
X264278892Y-173905590I176776J-176776D01*
G01*
X264738513Y-174365211D01*
G75*
G02*
X264738513Y-174718763I-176776J-176776D01*
G01*
G37*
G36*
G01*
X263288945Y-173269195D02*
X262652548Y-173905592D01*
G75*
G02*
X262298996Y-173905592I-176776J176776D01*
G01*
X261839375Y-173445971D01*
G75*
G02*
X261839375Y-173092419I176776J176776D01*
G01*
X262475772Y-172456022D01*
G75*
G02*
X262829324Y-172456022I176776J-176776D01*
G01*
X263288945Y-172915643D01*
G75*
G02*
X263288945Y-173269195I-176776J-176776D01*
G01*
G37*
G36*
G01*
X267920000Y-78532500D02*
X267920000Y-79007500D01*
G75*
G02*
X267682500Y-79245000I-237500J0D01*
G01*
X267107500Y-79245000D01*
G75*
G02*
X266870000Y-79007500I0J237500D01*
G01*
X266870000Y-78532500D01*
G75*
G02*
X267107500Y-78295000I237500J0D01*
G01*
X267682500Y-78295000D01*
G75*
G02*
X267920000Y-78532500I0J-237500D01*
G01*
G37*
G36*
G01*
X266170000Y-78532500D02*
X266170000Y-79007500D01*
G75*
G02*
X265932500Y-79245000I-237500J0D01*
G01*
X265357500Y-79245000D01*
G75*
G02*
X265120000Y-79007500I0J237500D01*
G01*
X265120000Y-78532500D01*
G75*
G02*
X265357500Y-78295000I237500J0D01*
G01*
X265932500Y-78295000D01*
G75*
G02*
X266170000Y-78532500I0J-237500D01*
G01*
G37*
D32*
X205170000Y-52230000D03*
X203900000Y-52230000D03*
X202630000Y-52230000D03*
X201360000Y-52230000D03*
X200090000Y-52230000D03*
X198820000Y-52230000D03*
X197550000Y-52230000D03*
X197550000Y-46830000D03*
X198820000Y-46830000D03*
X200090000Y-46830000D03*
X201360000Y-46830000D03*
X202630000Y-46830000D03*
X203900000Y-46830000D03*
X205170000Y-46830000D03*
G36*
G01*
X154475000Y-202925000D02*
X154475000Y-201675000D01*
G75*
G02*
X154725000Y-201425000I250000J0D01*
G01*
X155650000Y-201425000D01*
G75*
G02*
X155900000Y-201675000I0J-250000D01*
G01*
X155900000Y-202925000D01*
G75*
G02*
X155650000Y-203175000I-250000J0D01*
G01*
X154725000Y-203175000D01*
G75*
G02*
X154475000Y-202925000I0J250000D01*
G01*
G37*
G36*
G01*
X151500000Y-202925000D02*
X151500000Y-201675000D01*
G75*
G02*
X151750000Y-201425000I250000J0D01*
G01*
X152675000Y-201425000D01*
G75*
G02*
X152925000Y-201675000I0J-250000D01*
G01*
X152925000Y-202925000D01*
G75*
G02*
X152675000Y-203175000I-250000J0D01*
G01*
X151750000Y-203175000D01*
G75*
G02*
X151500000Y-202925000I0J250000D01*
G01*
G37*
G36*
G01*
X117686828Y-168949569D02*
X117050431Y-168313172D01*
G75*
G02*
X117050431Y-167959620I176776J176776D01*
G01*
X117510052Y-167499999D01*
G75*
G02*
X117863604Y-167499999I176776J-176776D01*
G01*
X118500001Y-168136396D01*
G75*
G02*
X118500001Y-168489948I-176776J-176776D01*
G01*
X118040380Y-168949569D01*
G75*
G02*
X117686828Y-168949569I-176776J176776D01*
G01*
G37*
G36*
G01*
X119136396Y-167500001D02*
X118499999Y-166863604D01*
G75*
G02*
X118499999Y-166510052I176776J176776D01*
G01*
X118959620Y-166050431D01*
G75*
G02*
X119313172Y-166050431I176776J-176776D01*
G01*
X119949569Y-166686828D01*
G75*
G02*
X119949569Y-167040380I-176776J-176776D01*
G01*
X119489948Y-167500001D01*
G75*
G02*
X119136396Y-167500001I-176776J176776D01*
G01*
G37*
G36*
G01*
X142936828Y-184849569D02*
X142300431Y-184213172D01*
G75*
G02*
X142300431Y-183859620I176776J176776D01*
G01*
X142760052Y-183399999D01*
G75*
G02*
X143113604Y-183399999I176776J-176776D01*
G01*
X143750001Y-184036396D01*
G75*
G02*
X143750001Y-184389948I-176776J-176776D01*
G01*
X143290380Y-184849569D01*
G75*
G02*
X142936828Y-184849569I-176776J176776D01*
G01*
G37*
G36*
G01*
X144386396Y-183400001D02*
X143749999Y-182763604D01*
G75*
G02*
X143749999Y-182410052I176776J176776D01*
G01*
X144209620Y-181950431D01*
G75*
G02*
X144563172Y-181950431I176776J-176776D01*
G01*
X145199569Y-182586828D01*
G75*
G02*
X145199569Y-182940380I-176776J-176776D01*
G01*
X144739948Y-183400001D01*
G75*
G02*
X144386396Y-183400001I-176776J176776D01*
G01*
G37*
G36*
G01*
X137730496Y-183810688D02*
X138630498Y-183810688D01*
G75*
G02*
X138880497Y-184060687I0J-249999D01*
G01*
X138880497Y-184710689D01*
G75*
G02*
X138630498Y-184960688I-249999J0D01*
G01*
X137730496Y-184960688D01*
G75*
G02*
X137480497Y-184710689I0J249999D01*
G01*
X137480497Y-184060687D01*
G75*
G02*
X137730496Y-183810688I249999J0D01*
G01*
G37*
G36*
G01*
X137730496Y-185860688D02*
X138630498Y-185860688D01*
G75*
G02*
X138880497Y-186110687I0J-249999D01*
G01*
X138880497Y-186760689D01*
G75*
G02*
X138630498Y-187010688I-249999J0D01*
G01*
X137730496Y-187010688D01*
G75*
G02*
X137480497Y-186760689I0J249999D01*
G01*
X137480497Y-186110687D01*
G75*
G02*
X137730496Y-185860688I249999J0D01*
G01*
G37*
G36*
G01*
X140936828Y-182849569D02*
X140300431Y-182213172D01*
G75*
G02*
X140300431Y-181859620I176776J176776D01*
G01*
X140760052Y-181399999D01*
G75*
G02*
X141113604Y-181399999I176776J-176776D01*
G01*
X141750001Y-182036396D01*
G75*
G02*
X141750001Y-182389948I-176776J-176776D01*
G01*
X141290380Y-182849569D01*
G75*
G02*
X140936828Y-182849569I-176776J176776D01*
G01*
G37*
G36*
G01*
X142386396Y-181400001D02*
X141749999Y-180763604D01*
G75*
G02*
X141749999Y-180410052I176776J176776D01*
G01*
X142209620Y-179950431D01*
G75*
G02*
X142563172Y-179950431I176776J-176776D01*
G01*
X143199569Y-180586828D01*
G75*
G02*
X143199569Y-180940380I-176776J-176776D01*
G01*
X142739948Y-181400001D01*
G75*
G02*
X142386396Y-181400001I-176776J176776D01*
G01*
G37*
G36*
G01*
X122813172Y-162550431D02*
X123449569Y-163186828D01*
G75*
G02*
X123449569Y-163540380I-176776J-176776D01*
G01*
X122989948Y-164000001D01*
G75*
G02*
X122636396Y-164000001I-176776J176776D01*
G01*
X121999999Y-163363604D01*
G75*
G02*
X121999999Y-163010052I176776J176776D01*
G01*
X122459620Y-162550431D01*
G75*
G02*
X122813172Y-162550431I176776J-176776D01*
G01*
G37*
G36*
G01*
X121363604Y-163999999D02*
X122000001Y-164636396D01*
G75*
G02*
X122000001Y-164989948I-176776J-176776D01*
G01*
X121540380Y-165449569D01*
G75*
G02*
X121186828Y-165449569I-176776J176776D01*
G01*
X120550431Y-164813172D01*
G75*
G02*
X120550431Y-164459620I176776J176776D01*
G01*
X121010052Y-163999999D01*
G75*
G02*
X121363604Y-163999999I176776J-176776D01*
G01*
G37*
G36*
G01*
X134902069Y-183810688D02*
X135802071Y-183810688D01*
G75*
G02*
X136052070Y-184060687I0J-249999D01*
G01*
X136052070Y-184710689D01*
G75*
G02*
X135802071Y-184960688I-249999J0D01*
G01*
X134902069Y-184960688D01*
G75*
G02*
X134652070Y-184710689I0J249999D01*
G01*
X134652070Y-184060687D01*
G75*
G02*
X134902069Y-183810688I249999J0D01*
G01*
G37*
G36*
G01*
X134902069Y-185860688D02*
X135802071Y-185860688D01*
G75*
G02*
X136052070Y-186110687I0J-249999D01*
G01*
X136052070Y-186760689D01*
G75*
G02*
X135802071Y-187010688I-249999J0D01*
G01*
X134902069Y-187010688D01*
G75*
G02*
X134652070Y-186760689I0J249999D01*
G01*
X134652070Y-186110687D01*
G75*
G02*
X134902069Y-185860688I249999J0D01*
G01*
G37*
D11*
X159800000Y-186715000D03*
X159800000Y-185445000D03*
X159800000Y-184175000D03*
X159800000Y-182905000D03*
X159800000Y-181635000D03*
X159800000Y-180365000D03*
X159800000Y-179095000D03*
X159800000Y-177825000D03*
X159800000Y-176555000D03*
X159800000Y-175285000D03*
X169200000Y-175285000D03*
X169200000Y-176555000D03*
X169200000Y-177825000D03*
X169200000Y-179095000D03*
X169200000Y-180365000D03*
X169200000Y-181635000D03*
X169200000Y-182905000D03*
X169200000Y-184175000D03*
X169200000Y-185445000D03*
X169200000Y-186715000D03*
X146300000Y-171715000D03*
X146300000Y-170445000D03*
X146300000Y-169175000D03*
X146300000Y-167905000D03*
X146300000Y-166635000D03*
X146300000Y-165365000D03*
X146300000Y-164095000D03*
X146300000Y-162825000D03*
X146300000Y-161555000D03*
X146300000Y-160285000D03*
X155700000Y-160285000D03*
X155700000Y-161555000D03*
X155700000Y-162825000D03*
X155700000Y-164095000D03*
X155700000Y-165365000D03*
X155700000Y-166635000D03*
X155700000Y-167905000D03*
X155700000Y-169175000D03*
X155700000Y-170445000D03*
X155700000Y-171715000D03*
X169200000Y-160285000D03*
X169200000Y-161555000D03*
X169200000Y-162825000D03*
X169200000Y-164095000D03*
X169200000Y-165365000D03*
X169200000Y-166635000D03*
X169200000Y-167905000D03*
X169200000Y-169175000D03*
X169200000Y-170445000D03*
X169200000Y-171715000D03*
X159800000Y-171715000D03*
X159800000Y-170445000D03*
X159800000Y-169175000D03*
X159800000Y-167905000D03*
X159800000Y-166635000D03*
X159800000Y-165365000D03*
X159800000Y-164095000D03*
X159800000Y-162825000D03*
X159800000Y-161555000D03*
X159800000Y-160285000D03*
D17*
X151200000Y-148690000D03*
X151200000Y-149960000D03*
X151200000Y-151230000D03*
X151200000Y-152500000D03*
X151200000Y-153770000D03*
X151200000Y-155040000D03*
X151200000Y-156310000D03*
X145800000Y-156310000D03*
X145800000Y-155040000D03*
X145800000Y-153770000D03*
X145800000Y-152500000D03*
X145800000Y-151230000D03*
X145800000Y-149960000D03*
X145800000Y-148690000D03*
X155300000Y-156445000D03*
X155300000Y-155175000D03*
X155300000Y-153905000D03*
X155300000Y-152635000D03*
X155300000Y-151365000D03*
X155300000Y-150095000D03*
X155300000Y-148825000D03*
X155300000Y-147555000D03*
X160700000Y-147555000D03*
X160700000Y-148825000D03*
X160700000Y-150095000D03*
X160700000Y-151365000D03*
X160700000Y-152635000D03*
X160700000Y-153905000D03*
X160700000Y-155175000D03*
X160700000Y-156445000D03*
G36*
G01*
X165299999Y-80450000D02*
X166200001Y-80450000D01*
G75*
G02*
X166450000Y-80699999I0J-249999D01*
G01*
X166450000Y-81350001D01*
G75*
G02*
X166200001Y-81600000I-249999J0D01*
G01*
X165299999Y-81600000D01*
G75*
G02*
X165050000Y-81350001I0J249999D01*
G01*
X165050000Y-80699999D01*
G75*
G02*
X165299999Y-80450000I249999J0D01*
G01*
G37*
G36*
G01*
X165299999Y-82500000D02*
X166200001Y-82500000D01*
G75*
G02*
X166450000Y-82749999I0J-249999D01*
G01*
X166450000Y-83400001D01*
G75*
G02*
X166200001Y-83650000I-249999J0D01*
G01*
X165299999Y-83650000D01*
G75*
G02*
X165050000Y-83400001I0J249999D01*
G01*
X165050000Y-82749999D01*
G75*
G02*
X165299999Y-82500000I249999J0D01*
G01*
G37*
D29*
X185380000Y-184320000D03*
D30*
X187380000Y-184320000D03*
D29*
X230880000Y-182320000D03*
D30*
X230880000Y-180320000D03*
D29*
X297710000Y-183440000D03*
D30*
X299710000Y-183440000D03*
D29*
X297710000Y-189440000D03*
D30*
X299710000Y-189440000D03*
D29*
X164130000Y-204870000D03*
D30*
X162130000Y-204870000D03*
D29*
X181380000Y-184320000D03*
D30*
X179380000Y-184320000D03*
D29*
X282880000Y-120820000D03*
D30*
X284880000Y-120820000D03*
D29*
X282880000Y-113320000D03*
D30*
X284880000Y-113320000D03*
D29*
X166270000Y-89390000D03*
D30*
X164270000Y-89390000D03*
G36*
G01*
X286105000Y-103394999D02*
X286105000Y-104245001D01*
G75*
G02*
X285855001Y-104495000I-249999J0D01*
G01*
X284779999Y-104495000D01*
G75*
G02*
X284530000Y-104245001I0J249999D01*
G01*
X284530000Y-103394999D01*
G75*
G02*
X284779999Y-103145000I249999J0D01*
G01*
X285855001Y-103145000D01*
G75*
G02*
X286105000Y-103394999I0J-249999D01*
G01*
G37*
G36*
G01*
X283230000Y-103394999D02*
X283230000Y-104245001D01*
G75*
G02*
X282980001Y-104495000I-249999J0D01*
G01*
X281904999Y-104495000D01*
G75*
G02*
X281655000Y-104245001I0J249999D01*
G01*
X281655000Y-103394999D01*
G75*
G02*
X281904999Y-103145000I249999J0D01*
G01*
X282980001Y-103145000D01*
G75*
G02*
X283230000Y-103394999I0J-249999D01*
G01*
G37*
G36*
G01*
X286042500Y-108394999D02*
X286042500Y-109245001D01*
G75*
G02*
X285792501Y-109495000I-249999J0D01*
G01*
X284717499Y-109495000D01*
G75*
G02*
X284467500Y-109245001I0J249999D01*
G01*
X284467500Y-108394999D01*
G75*
G02*
X284717499Y-108145000I249999J0D01*
G01*
X285792501Y-108145000D01*
G75*
G02*
X286042500Y-108394999I0J-249999D01*
G01*
G37*
G36*
G01*
X283167500Y-108394999D02*
X283167500Y-109245001D01*
G75*
G02*
X282917501Y-109495000I-249999J0D01*
G01*
X281842499Y-109495000D01*
G75*
G02*
X281592500Y-109245001I0J249999D01*
G01*
X281592500Y-108394999D01*
G75*
G02*
X281842499Y-108145000I249999J0D01*
G01*
X282917501Y-108145000D01*
G75*
G02*
X283167500Y-108394999I0J-249999D01*
G01*
G37*
G36*
G01*
X286105000Y-105894999D02*
X286105000Y-106745001D01*
G75*
G02*
X285855001Y-106995000I-249999J0D01*
G01*
X284779999Y-106995000D01*
G75*
G02*
X284530000Y-106745001I0J249999D01*
G01*
X284530000Y-105894999D01*
G75*
G02*
X284779999Y-105645000I249999J0D01*
G01*
X285855001Y-105645000D01*
G75*
G02*
X286105000Y-105894999I0J-249999D01*
G01*
G37*
G36*
G01*
X283230000Y-105894999D02*
X283230000Y-106745001D01*
G75*
G02*
X282980001Y-106995000I-249999J0D01*
G01*
X281904999Y-106995000D01*
G75*
G02*
X281655000Y-106745001I0J249999D01*
G01*
X281655000Y-105894999D01*
G75*
G02*
X281904999Y-105645000I249999J0D01*
G01*
X282980001Y-105645000D01*
G75*
G02*
X283230000Y-105894999I0J-249999D01*
G01*
G37*
G36*
G01*
X113050000Y-188125000D02*
X113050000Y-186875000D01*
G75*
G02*
X113300000Y-186625000I250000J0D01*
G01*
X114225000Y-186625000D01*
G75*
G02*
X114475000Y-186875000I0J-250000D01*
G01*
X114475000Y-188125000D01*
G75*
G02*
X114225000Y-188375000I-250000J0D01*
G01*
X113300000Y-188375000D01*
G75*
G02*
X113050000Y-188125000I0J250000D01*
G01*
G37*
G36*
G01*
X116025000Y-188125000D02*
X116025000Y-186875000D01*
G75*
G02*
X116275000Y-186625000I250000J0D01*
G01*
X117200000Y-186625000D01*
G75*
G02*
X117450000Y-186875000I0J-250000D01*
G01*
X117450000Y-188125000D01*
G75*
G02*
X117200000Y-188375000I-250000J0D01*
G01*
X116275000Y-188375000D01*
G75*
G02*
X116025000Y-188125000I0J250000D01*
G01*
G37*
G36*
G01*
X171050000Y-136375000D02*
X171050000Y-135125000D01*
G75*
G02*
X171300000Y-134875000I250000J0D01*
G01*
X172225000Y-134875000D01*
G75*
G02*
X172475000Y-135125000I0J-250000D01*
G01*
X172475000Y-136375000D01*
G75*
G02*
X172225000Y-136625000I-250000J0D01*
G01*
X171300000Y-136625000D01*
G75*
G02*
X171050000Y-136375000I0J250000D01*
G01*
G37*
G36*
G01*
X174025000Y-136375000D02*
X174025000Y-135125000D01*
G75*
G02*
X174275000Y-134875000I250000J0D01*
G01*
X175200000Y-134875000D01*
G75*
G02*
X175450000Y-135125000I0J-250000D01*
G01*
X175450000Y-136375000D01*
G75*
G02*
X175200000Y-136625000I-250000J0D01*
G01*
X174275000Y-136625000D01*
G75*
G02*
X174025000Y-136375000I0J250000D01*
G01*
G37*
G36*
G01*
X283363693Y-183502423D02*
X284247577Y-184386307D01*
G75*
G02*
X284247577Y-184739861I-176777J-176777D01*
G01*
X283593503Y-185393935D01*
G75*
G02*
X283239949Y-185393935I-176777J176777D01*
G01*
X282356065Y-184510051D01*
G75*
G02*
X282356065Y-184156497I176777J176777D01*
G01*
X283010139Y-183502423D01*
G75*
G02*
X283363693Y-183502423I176777J-176777D01*
G01*
G37*
G36*
G01*
X281260051Y-185606065D02*
X282143935Y-186489949D01*
G75*
G02*
X282143935Y-186843503I-176777J-176777D01*
G01*
X281489861Y-187497577D01*
G75*
G02*
X281136307Y-187497577I-176777J176777D01*
G01*
X280252423Y-186613693D01*
G75*
G02*
X280252423Y-186260139I176777J176777D01*
G01*
X280906497Y-185606065D01*
G75*
G02*
X281260051Y-185606065I176777J-176777D01*
G01*
G37*
G36*
G01*
X262386307Y-154247577D02*
X261502423Y-153363693D01*
G75*
G02*
X261502423Y-153010139I176777J176777D01*
G01*
X262156497Y-152356065D01*
G75*
G02*
X262510051Y-152356065I176777J-176777D01*
G01*
X263393935Y-153239949D01*
G75*
G02*
X263393935Y-153593503I-176777J-176777D01*
G01*
X262739861Y-154247577D01*
G75*
G02*
X262386307Y-154247577I-176777J176777D01*
G01*
G37*
G36*
G01*
X264489949Y-152143935D02*
X263606065Y-151260051D01*
G75*
G02*
X263606065Y-150906497I176777J176777D01*
G01*
X264260139Y-150252423D01*
G75*
G02*
X264613693Y-150252423I176777J-176777D01*
G01*
X265497577Y-151136307D01*
G75*
G02*
X265497577Y-151489861I-176777J-176777D01*
G01*
X264843503Y-152143935D01*
G75*
G02*
X264489949Y-152143935I-176777J176777D01*
G01*
G37*
G36*
G01*
X291002423Y-153386307D02*
X291886307Y-152502423D01*
G75*
G02*
X292239861Y-152502423I176777J-176777D01*
G01*
X292893935Y-153156497D01*
G75*
G02*
X292893935Y-153510051I-176777J-176777D01*
G01*
X292010051Y-154393935D01*
G75*
G02*
X291656497Y-154393935I-176777J176777D01*
G01*
X291002423Y-153739861D01*
G75*
G02*
X291002423Y-153386307I176777J176777D01*
G01*
G37*
G36*
G01*
X293106065Y-155489949D02*
X293989949Y-154606065D01*
G75*
G02*
X294343503Y-154606065I176777J-176777D01*
G01*
X294997577Y-155260139D01*
G75*
G02*
X294997577Y-155613693I-176777J-176777D01*
G01*
X294113693Y-156497577D01*
G75*
G02*
X293760139Y-156497577I-176777J176777D01*
G01*
X293106065Y-155843503D01*
G75*
G02*
X293106065Y-155489949I176777J176777D01*
G01*
G37*
G36*
G01*
X162747577Y-137363693D02*
X161863693Y-138247577D01*
G75*
G02*
X161510139Y-138247577I-176777J176777D01*
G01*
X160856065Y-137593503D01*
G75*
G02*
X160856065Y-137239949I176777J176777D01*
G01*
X161739949Y-136356065D01*
G75*
G02*
X162093503Y-136356065I176777J-176777D01*
G01*
X162747577Y-137010139D01*
G75*
G02*
X162747577Y-137363693I-176777J-176777D01*
G01*
G37*
G36*
G01*
X160643935Y-135260051D02*
X159760051Y-136143935D01*
G75*
G02*
X159406497Y-136143935I-176777J176777D01*
G01*
X158752423Y-135489861D01*
G75*
G02*
X158752423Y-135136307I176777J176777D01*
G01*
X159636307Y-134252423D01*
G75*
G02*
X159989861Y-134252423I176777J-176777D01*
G01*
X160643935Y-134906497D01*
G75*
G02*
X160643935Y-135260051I-176777J-176777D01*
G01*
G37*
G36*
G01*
X140363693Y-149752423D02*
X141247577Y-150636307D01*
G75*
G02*
X141247577Y-150989861I-176777J-176777D01*
G01*
X140593503Y-151643935D01*
G75*
G02*
X140239949Y-151643935I-176777J176777D01*
G01*
X139356065Y-150760051D01*
G75*
G02*
X139356065Y-150406497I176777J176777D01*
G01*
X140010139Y-149752423D01*
G75*
G02*
X140363693Y-149752423I176777J-176777D01*
G01*
G37*
G36*
G01*
X138260051Y-151856065D02*
X139143935Y-152739949D01*
G75*
G02*
X139143935Y-153093503I-176777J-176777D01*
G01*
X138489861Y-153747577D01*
G75*
G02*
X138136307Y-153747577I-176777J176777D01*
G01*
X137252423Y-152863693D01*
G75*
G02*
X137252423Y-152510139I176777J176777D01*
G01*
X137906497Y-151856065D01*
G75*
G02*
X138260051Y-151856065I176777J-176777D01*
G01*
G37*
G36*
G01*
X166252423Y-142636307D02*
X167136307Y-141752423D01*
G75*
G02*
X167489861Y-141752423I176777J-176777D01*
G01*
X168143935Y-142406497D01*
G75*
G02*
X168143935Y-142760051I-176777J-176777D01*
G01*
X167260051Y-143643935D01*
G75*
G02*
X166906497Y-143643935I-176777J176777D01*
G01*
X166252423Y-142989861D01*
G75*
G02*
X166252423Y-142636307I176777J176777D01*
G01*
G37*
G36*
G01*
X168356065Y-144739949D02*
X169239949Y-143856065D01*
G75*
G02*
X169593503Y-143856065I176777J-176777D01*
G01*
X170247577Y-144510139D01*
G75*
G02*
X170247577Y-144863693I-176777J-176777D01*
G01*
X169363693Y-145747577D01*
G75*
G02*
X169010139Y-145747577I-176777J176777D01*
G01*
X168356065Y-145093503D01*
G75*
G02*
X168356065Y-144739949I176777J176777D01*
G01*
G37*
G36*
G01*
X165800000Y-157875000D02*
X165800000Y-156625000D01*
G75*
G02*
X166050000Y-156375000I250000J0D01*
G01*
X166975000Y-156375000D01*
G75*
G02*
X167225000Y-156625000I0J-250000D01*
G01*
X167225000Y-157875000D01*
G75*
G02*
X166975000Y-158125000I-250000J0D01*
G01*
X166050000Y-158125000D01*
G75*
G02*
X165800000Y-157875000I0J250000D01*
G01*
G37*
G36*
G01*
X168775000Y-157875000D02*
X168775000Y-156625000D01*
G75*
G02*
X169025000Y-156375000I250000J0D01*
G01*
X169950000Y-156375000D01*
G75*
G02*
X170200000Y-156625000I0J-250000D01*
G01*
X170200000Y-157875000D01*
G75*
G02*
X169950000Y-158125000I-250000J0D01*
G01*
X169025000Y-158125000D01*
G75*
G02*
X168775000Y-157875000I0J250000D01*
G01*
G37*
D33*
X265680000Y-109850000D03*
X263140000Y-109850000D03*
X260600000Y-109850000D03*
X258060000Y-109850000D03*
X255520000Y-109850000D03*
X252980000Y-109850000D03*
X250440000Y-109850000D03*
X247900000Y-109850000D03*
X268220000Y-107310000D03*
X263140000Y-107310000D03*
X260600000Y-107310000D03*
X258060000Y-107310000D03*
X255520000Y-107310000D03*
X252980000Y-107310000D03*
X250440000Y-107310000D03*
X247900000Y-107310000D03*
X245360000Y-107310000D03*
X242820000Y-107310000D03*
X242820000Y-104770000D03*
X242820000Y-102230000D03*
X242820000Y-99690000D03*
X242820000Y-97150000D03*
X242820000Y-94610000D03*
X242820000Y-92070000D03*
X242820000Y-89530000D03*
X242820000Y-86990000D03*
X245360000Y-109850000D03*
X245360000Y-104770000D03*
X245360000Y-102230000D03*
X245360000Y-99690000D03*
X245360000Y-97150000D03*
X245360000Y-94610000D03*
X245360000Y-92070000D03*
X245360000Y-89530000D03*
X245360000Y-86990000D03*
X245360000Y-84450000D03*
X247900000Y-84450000D03*
X250440000Y-84450000D03*
X252980000Y-84450000D03*
X255520000Y-84450000D03*
X258060000Y-84450000D03*
X260600000Y-84450000D03*
X263140000Y-84450000D03*
X265680000Y-84450000D03*
X247900000Y-86990000D03*
X250440000Y-86990000D03*
X252980000Y-86990000D03*
X255520000Y-86990000D03*
X258060000Y-86990000D03*
X260600000Y-86990000D03*
X263140000Y-86990000D03*
X265680000Y-86990000D03*
X268220000Y-104770000D03*
X268220000Y-102230000D03*
X268220000Y-99690000D03*
X268220000Y-86990000D03*
X268220000Y-89530000D03*
X268220000Y-92070000D03*
X268220000Y-94610000D03*
D34*
X268220000Y-97150000D03*
D33*
X265680000Y-107310000D03*
X265680000Y-104770000D03*
X265680000Y-102230000D03*
X265680000Y-99690000D03*
X265680000Y-89530000D03*
X265680000Y-92070000D03*
X265680000Y-94610000D03*
X265680000Y-97150000D03*
D35*
X262910000Y-118530000D03*
X265450000Y-118530000D03*
X267990000Y-118530000D03*
X270530000Y-118530000D03*
X273070000Y-118530000D03*
X265450000Y-121070000D03*
X267990000Y-121070000D03*
X270530000Y-121070000D03*
X275610000Y-121070000D03*
X275610000Y-123610000D03*
X275610000Y-126150000D03*
X275610000Y-128690000D03*
X273070000Y-121070000D03*
X273070000Y-123610000D03*
X273070000Y-126150000D03*
X273070000Y-128690000D03*
X273070000Y-131230000D03*
X270530000Y-131230000D03*
X267990000Y-131230000D03*
X265450000Y-131230000D03*
X262910000Y-131230000D03*
X270530000Y-128690000D03*
X267990000Y-128690000D03*
X265450000Y-128690000D03*
X262910000Y-128690000D03*
X260370000Y-121070000D03*
X260370000Y-123610000D03*
X260370000Y-128690000D03*
X260370000Y-126150000D03*
X262910000Y-118530000D03*
X262910000Y-121070000D03*
X262910000Y-126150000D03*
X262910000Y-123610000D03*
D36*
X184440000Y-79510000D03*
X190940000Y-79510000D03*
X190940000Y-83710000D03*
X184440000Y-83710000D03*
X109080000Y-149790000D03*
X115580000Y-149790000D03*
X115580000Y-153990000D03*
X109080000Y-153990000D03*
G36*
G01*
X296375001Y-97140000D02*
X299174999Y-97140000D01*
G75*
G02*
X299425000Y-97390001I0J-250001D01*
G01*
X299425000Y-99589999D01*
G75*
G02*
X299174999Y-99840000I-250001J0D01*
G01*
X296375001Y-99840000D01*
G75*
G02*
X296125000Y-99589999I0J250001D01*
G01*
X296125000Y-97390001D01*
G75*
G02*
X296375001Y-97140000I250001J0D01*
G01*
G37*
D37*
X297775000Y-102690000D03*
X297775000Y-106890000D03*
X297775000Y-111090000D03*
X297775000Y-115290000D03*
X297775000Y-119490000D03*
X297775000Y-123690000D03*
X297775000Y-127890000D03*
X297775000Y-132090000D03*
X297775000Y-136290000D03*
X297775000Y-140490000D03*
X297775000Y-144690000D03*
X292275000Y-98490000D03*
X292275000Y-102690000D03*
X292275000Y-106890000D03*
X292275000Y-111090000D03*
X292275000Y-115290000D03*
X292275000Y-119490000D03*
X292275000Y-123690000D03*
X292275000Y-127890000D03*
X292275000Y-132090000D03*
X292275000Y-136290000D03*
X292275000Y-140490000D03*
X292275000Y-144690000D03*
D38*
X171630000Y-50760000D03*
X164830000Y-50760000D03*
X164830000Y-48260000D03*
X171630000Y-48260000D03*
X169530000Y-48260000D03*
X166930000Y-48260000D03*
X187630000Y-50760000D03*
X180830000Y-50760000D03*
X180830000Y-48260000D03*
X187630000Y-48260000D03*
X185530000Y-48260000D03*
X182930000Y-48260000D03*
D39*
X247920000Y-55100000D03*
X245630000Y-55100000D03*
X236490000Y-55100000D03*
X234200000Y-55100000D03*
D19*
X232930000Y-49390000D03*
X249190000Y-49390000D03*
D40*
X247410000Y-45960000D03*
X234710000Y-45960000D03*
D39*
X244640000Y-50280000D03*
X242600000Y-50280000D03*
X240560000Y-50280000D03*
X238520000Y-50280000D03*
X243620000Y-48500000D03*
X241580000Y-48500000D03*
X239540000Y-48500000D03*
D41*
X237500000Y-48500000D03*
D42*
X239359533Y-73212954D03*
X239359533Y-64712954D03*
D43*
X207460000Y-56870000D03*
D44*
X159200000Y-72110000D03*
X204920000Y-56870000D03*
X161740000Y-72110000D03*
X202380000Y-56870000D03*
X164280000Y-72110000D03*
X199840000Y-56870000D03*
X166820000Y-72110000D03*
X197300000Y-56870000D03*
X169360000Y-72110000D03*
X194760000Y-56870000D03*
X171900000Y-72110000D03*
X192220000Y-56870000D03*
X174440000Y-72110000D03*
X189680000Y-56870000D03*
X176980000Y-72110000D03*
X187140000Y-56870000D03*
X179520000Y-72110000D03*
X184600000Y-56870000D03*
X182060000Y-72110000D03*
X182060000Y-56870000D03*
X184600000Y-72110000D03*
X179520000Y-56870000D03*
X187140000Y-72110000D03*
X176980000Y-56870000D03*
X189680000Y-72110000D03*
X174440000Y-56870000D03*
X192220000Y-72110000D03*
X171900000Y-56870000D03*
X194760000Y-72110000D03*
X169360000Y-56870000D03*
X197300000Y-72110000D03*
X166820000Y-56870000D03*
X199840000Y-72110000D03*
X164280000Y-56870000D03*
X202380000Y-72110000D03*
X161740000Y-56870000D03*
X204920000Y-72110000D03*
X159200000Y-56870000D03*
X207460000Y-72110000D03*
D30*
X222740000Y-53050000D03*
D29*
X215120000Y-53050000D03*
X215120000Y-45430000D03*
X222740000Y-45430000D03*
D45*
X284325000Y-133800000D03*
D46*
X284325000Y-136340000D03*
D28*
G36*
X287330574Y-154813708D02*
G01*
X288691755Y-153452527D01*
X289186730Y-153947502D01*
X287825549Y-155308683D01*
X287330574Y-154813708D01*
G37*
G36*
X286432549Y-153915682D02*
G01*
X287793730Y-152554501D01*
X288288705Y-153049476D01*
X286927524Y-154410657D01*
X286432549Y-153915682D01*
G37*
G36*
X285534523Y-153017657D02*
G01*
X286895704Y-151656476D01*
X287390679Y-152151451D01*
X286029498Y-153512632D01*
X285534523Y-153017657D01*
G37*
G36*
X284636497Y-152119631D02*
G01*
X285997678Y-150758450D01*
X286492653Y-151253425D01*
X285131472Y-152614606D01*
X284636497Y-152119631D01*
G37*
G36*
X283738472Y-151221605D02*
G01*
X285099653Y-149860424D01*
X285594628Y-150355399D01*
X284233447Y-151716580D01*
X283738472Y-151221605D01*
G37*
G36*
X282840446Y-150323580D02*
G01*
X284201627Y-148962399D01*
X284696602Y-149457374D01*
X283335421Y-150818555D01*
X282840446Y-150323580D01*
G37*
G36*
X281942420Y-149425554D02*
G01*
X283303601Y-148064373D01*
X283798576Y-148559348D01*
X282437395Y-149920529D01*
X281942420Y-149425554D01*
G37*
G36*
X281044395Y-148527529D02*
G01*
X282405576Y-147166348D01*
X282900551Y-147661323D01*
X281539370Y-149022504D01*
X281044395Y-148527529D01*
G37*
G36*
X280146369Y-147629503D02*
G01*
X281507550Y-146268322D01*
X282002525Y-146763297D01*
X280641344Y-148124478D01*
X280146369Y-147629503D01*
G37*
G36*
X279248344Y-146731477D02*
G01*
X280609525Y-145370296D01*
X281104500Y-145865271D01*
X279743319Y-147226452D01*
X279248344Y-146731477D01*
G37*
G36*
X278350318Y-145833452D02*
G01*
X279711499Y-144472271D01*
X280206474Y-144967246D01*
X278845293Y-146328427D01*
X278350318Y-145833452D01*
G37*
G36*
X288228600Y-155711733D02*
G01*
X289589781Y-154350552D01*
X290084756Y-154845527D01*
X288723575Y-156206708D01*
X288228600Y-155711733D01*
G37*
G36*
X289126625Y-156609759D02*
G01*
X290487806Y-155248578D01*
X290982781Y-155743553D01*
X289621600Y-157104734D01*
X289126625Y-156609759D01*
G37*
G36*
X290024651Y-157507785D02*
G01*
X291385832Y-156146604D01*
X291880807Y-156641579D01*
X290519626Y-158002760D01*
X290024651Y-157507785D01*
G37*
G36*
X290922677Y-158405810D02*
G01*
X292283858Y-157044629D01*
X292778833Y-157539604D01*
X291417652Y-158900785D01*
X290922677Y-158405810D01*
G37*
G36*
X291820702Y-159303836D02*
G01*
X293181883Y-157942655D01*
X293676858Y-158437630D01*
X292315677Y-159798811D01*
X291820702Y-159303836D01*
G37*
G36*
X292718728Y-160201862D02*
G01*
X294079909Y-158840681D01*
X294574884Y-159335656D01*
X293213703Y-160696837D01*
X292718728Y-160201862D01*
G37*
G36*
X293616753Y-161099887D02*
G01*
X294977934Y-159738706D01*
X295472909Y-160233681D01*
X294111728Y-161594862D01*
X293616753Y-161099887D01*
G37*
G36*
X294514779Y-161997913D02*
G01*
X295875960Y-160636732D01*
X296370935Y-161131707D01*
X295009754Y-162492888D01*
X294514779Y-161997913D01*
G37*
G36*
X295412805Y-162895938D02*
G01*
X296773986Y-161534757D01*
X297268961Y-162029732D01*
X295907780Y-163390913D01*
X295412805Y-162895938D01*
G37*
G36*
X296310830Y-163793964D02*
G01*
X297672011Y-162432783D01*
X298166986Y-162927758D01*
X296805805Y-164288939D01*
X296310830Y-163793964D01*
G37*
G36*
X276211320Y-144967246D02*
G01*
X276706295Y-144472271D01*
X278067476Y-145833452D01*
X277572501Y-146328427D01*
X276211320Y-144967246D01*
G37*
G36*
X275313294Y-145865271D02*
G01*
X275808269Y-145370296D01*
X277169450Y-146731477D01*
X276674475Y-147226452D01*
X275313294Y-145865271D01*
G37*
G36*
X274415269Y-146763297D02*
G01*
X274910244Y-146268322D01*
X276271425Y-147629503D01*
X275776450Y-148124478D01*
X274415269Y-146763297D01*
G37*
G36*
X273517243Y-147661323D02*
G01*
X274012218Y-147166348D01*
X275373399Y-148527529D01*
X274878424Y-149022504D01*
X273517243Y-147661323D01*
G37*
G36*
X272619218Y-148559348D02*
G01*
X273114193Y-148064373D01*
X274475374Y-149425554D01*
X273980399Y-149920529D01*
X272619218Y-148559348D01*
G37*
G36*
X271721192Y-149457374D02*
G01*
X272216167Y-148962399D01*
X273577348Y-150323580D01*
X273082373Y-150818555D01*
X271721192Y-149457374D01*
G37*
G36*
X270823166Y-150355399D02*
G01*
X271318141Y-149860424D01*
X272679322Y-151221605D01*
X272184347Y-151716580D01*
X270823166Y-150355399D01*
G37*
G36*
X269925141Y-151253425D02*
G01*
X270420116Y-150758450D01*
X271781297Y-152119631D01*
X271286322Y-152614606D01*
X269925141Y-151253425D01*
G37*
G36*
X269027115Y-152151451D02*
G01*
X269522090Y-151656476D01*
X270883271Y-153017657D01*
X270388296Y-153512632D01*
X269027115Y-152151451D01*
G37*
G36*
X268129089Y-153049476D02*
G01*
X268624064Y-152554501D01*
X269985245Y-153915682D01*
X269490270Y-154410657D01*
X268129089Y-153049476D01*
G37*
G36*
X267231064Y-153947502D02*
G01*
X267726039Y-153452527D01*
X269087220Y-154813708D01*
X268592245Y-155308683D01*
X267231064Y-153947502D01*
G37*
G36*
X266333038Y-154845527D02*
G01*
X266828013Y-154350552D01*
X268189194Y-155711733D01*
X267694219Y-156206708D01*
X266333038Y-154845527D01*
G37*
G36*
X265435013Y-155743553D02*
G01*
X265929988Y-155248578D01*
X267291169Y-156609759D01*
X266796194Y-157104734D01*
X265435013Y-155743553D01*
G37*
G36*
X264536987Y-156641579D02*
G01*
X265031962Y-156146604D01*
X266393143Y-157507785D01*
X265898168Y-158002760D01*
X264536987Y-156641579D01*
G37*
G36*
X263638961Y-157539604D02*
G01*
X264133936Y-157044629D01*
X265495117Y-158405810D01*
X265000142Y-158900785D01*
X263638961Y-157539604D01*
G37*
G36*
X262740936Y-158437630D02*
G01*
X263235911Y-157942655D01*
X264597092Y-159303836D01*
X264102117Y-159798811D01*
X262740936Y-158437630D01*
G37*
G36*
X261842910Y-159335656D02*
G01*
X262337885Y-158840681D01*
X263699066Y-160201862D01*
X263204091Y-160696837D01*
X261842910Y-159335656D01*
G37*
G36*
X260944885Y-160233681D02*
G01*
X261439860Y-159738706D01*
X262801041Y-161099887D01*
X262306066Y-161594862D01*
X260944885Y-160233681D01*
G37*
G36*
X260046859Y-161131707D02*
G01*
X260541834Y-160636732D01*
X261903015Y-161997913D01*
X261408040Y-162492888D01*
X260046859Y-161131707D01*
G37*
G36*
X259148833Y-162029732D02*
G01*
X259643808Y-161534757D01*
X261004989Y-162895938D01*
X260510014Y-163390913D01*
X259148833Y-162029732D01*
G37*
G36*
X258250808Y-162927758D02*
G01*
X258745783Y-162432783D01*
X260106964Y-163793964D01*
X259611989Y-164288939D01*
X258250808Y-162927758D01*
G37*
G36*
X258250808Y-165932962D02*
G01*
X259611989Y-164571781D01*
X260106964Y-165066756D01*
X258745783Y-166427937D01*
X258250808Y-165932962D01*
G37*
G36*
X259148833Y-166830988D02*
G01*
X260510014Y-165469807D01*
X261004989Y-165964782D01*
X259643808Y-167325963D01*
X259148833Y-166830988D01*
G37*
G36*
X260046859Y-167729013D02*
G01*
X261408040Y-166367832D01*
X261903015Y-166862807D01*
X260541834Y-168223988D01*
X260046859Y-167729013D01*
G37*
G36*
X260944885Y-168627039D02*
G01*
X262306066Y-167265858D01*
X262801041Y-167760833D01*
X261439860Y-169122014D01*
X260944885Y-168627039D01*
G37*
G36*
X261842910Y-169525064D02*
G01*
X263204091Y-168163883D01*
X263699066Y-168658858D01*
X262337885Y-170020039D01*
X261842910Y-169525064D01*
G37*
G36*
X262740936Y-170423090D02*
G01*
X264102117Y-169061909D01*
X264597092Y-169556884D01*
X263235911Y-170918065D01*
X262740936Y-170423090D01*
G37*
G36*
X263638961Y-171321116D02*
G01*
X265000142Y-169959935D01*
X265495117Y-170454910D01*
X264133936Y-171816091D01*
X263638961Y-171321116D01*
G37*
G36*
X264536987Y-172219141D02*
G01*
X265898168Y-170857960D01*
X266393143Y-171352935D01*
X265031962Y-172714116D01*
X264536987Y-172219141D01*
G37*
G36*
X265435013Y-173117167D02*
G01*
X266796194Y-171755986D01*
X267291169Y-172250961D01*
X265929988Y-173612142D01*
X265435013Y-173117167D01*
G37*
G36*
X266333038Y-174015193D02*
G01*
X267694219Y-172654012D01*
X268189194Y-173148987D01*
X266828013Y-174510168D01*
X266333038Y-174015193D01*
G37*
G36*
X267231064Y-174913218D02*
G01*
X268592245Y-173552037D01*
X269087220Y-174047012D01*
X267726039Y-175408193D01*
X267231064Y-174913218D01*
G37*
G36*
X268129089Y-175811244D02*
G01*
X269490270Y-174450063D01*
X269985245Y-174945038D01*
X268624064Y-176306219D01*
X268129089Y-175811244D01*
G37*
G36*
X269027115Y-176709269D02*
G01*
X270388296Y-175348088D01*
X270883271Y-175843063D01*
X269522090Y-177204244D01*
X269027115Y-176709269D01*
G37*
G36*
X269925141Y-177607295D02*
G01*
X271286322Y-176246114D01*
X271781297Y-176741089D01*
X270420116Y-178102270D01*
X269925141Y-177607295D01*
G37*
G36*
X270823166Y-178505321D02*
G01*
X272184347Y-177144140D01*
X272679322Y-177639115D01*
X271318141Y-179000296D01*
X270823166Y-178505321D01*
G37*
G36*
X271721192Y-179403346D02*
G01*
X273082373Y-178042165D01*
X273577348Y-178537140D01*
X272216167Y-179898321D01*
X271721192Y-179403346D01*
G37*
G36*
X272619218Y-180301372D02*
G01*
X273980399Y-178940191D01*
X274475374Y-179435166D01*
X273114193Y-180796347D01*
X272619218Y-180301372D01*
G37*
G36*
X273517243Y-181199397D02*
G01*
X274878424Y-179838216D01*
X275373399Y-180333191D01*
X274012218Y-181694372D01*
X273517243Y-181199397D01*
G37*
G36*
X274415269Y-182097423D02*
G01*
X275776450Y-180736242D01*
X276271425Y-181231217D01*
X274910244Y-182592398D01*
X274415269Y-182097423D01*
G37*
G36*
X275313294Y-182995449D02*
G01*
X276674475Y-181634268D01*
X277169450Y-182129243D01*
X275808269Y-183490424D01*
X275313294Y-182995449D01*
G37*
G36*
X276211320Y-183893474D02*
G01*
X277572501Y-182532293D01*
X278067476Y-183027268D01*
X276706295Y-184388449D01*
X276211320Y-183893474D01*
G37*
G36*
X278350318Y-183027268D02*
G01*
X278845293Y-182532293D01*
X280206474Y-183893474D01*
X279711499Y-184388449D01*
X278350318Y-183027268D01*
G37*
G36*
X279248344Y-182129243D02*
G01*
X279743319Y-181634268D01*
X281104500Y-182995449D01*
X280609525Y-183490424D01*
X279248344Y-182129243D01*
G37*
G36*
X280146369Y-181231217D02*
G01*
X280641344Y-180736242D01*
X282002525Y-182097423D01*
X281507550Y-182592398D01*
X280146369Y-181231217D01*
G37*
G36*
X281044395Y-180333191D02*
G01*
X281539370Y-179838216D01*
X282900551Y-181199397D01*
X282405576Y-181694372D01*
X281044395Y-180333191D01*
G37*
G36*
X281942420Y-179435166D02*
G01*
X282437395Y-178940191D01*
X283798576Y-180301372D01*
X283303601Y-180796347D01*
X281942420Y-179435166D01*
G37*
G36*
X282840446Y-178537140D02*
G01*
X283335421Y-178042165D01*
X284696602Y-179403346D01*
X284201627Y-179898321D01*
X282840446Y-178537140D01*
G37*
G36*
X283738472Y-177639115D02*
G01*
X284233447Y-177144140D01*
X285594628Y-178505321D01*
X285099653Y-179000296D01*
X283738472Y-177639115D01*
G37*
G36*
X284636497Y-176741089D02*
G01*
X285131472Y-176246114D01*
X286492653Y-177607295D01*
X285997678Y-178102270D01*
X284636497Y-176741089D01*
G37*
G36*
X285534523Y-175843063D02*
G01*
X286029498Y-175348088D01*
X287390679Y-176709269D01*
X286895704Y-177204244D01*
X285534523Y-175843063D01*
G37*
G36*
X286432549Y-174945038D02*
G01*
X286927524Y-174450063D01*
X288288705Y-175811244D01*
X287793730Y-176306219D01*
X286432549Y-174945038D01*
G37*
G36*
X287330574Y-174047012D02*
G01*
X287825549Y-173552037D01*
X289186730Y-174913218D01*
X288691755Y-175408193D01*
X287330574Y-174047012D01*
G37*
G36*
X288228600Y-173148987D02*
G01*
X288723575Y-172654012D01*
X290084756Y-174015193D01*
X289589781Y-174510168D01*
X288228600Y-173148987D01*
G37*
G36*
X289126625Y-172250961D02*
G01*
X289621600Y-171755986D01*
X290982781Y-173117167D01*
X290487806Y-173612142D01*
X289126625Y-172250961D01*
G37*
G36*
X290024651Y-171352935D02*
G01*
X290519626Y-170857960D01*
X291880807Y-172219141D01*
X291385832Y-172714116D01*
X290024651Y-171352935D01*
G37*
G36*
X290922677Y-170454910D02*
G01*
X291417652Y-169959935D01*
X292778833Y-171321116D01*
X292283858Y-171816091D01*
X290922677Y-170454910D01*
G37*
G36*
X291820702Y-169556884D02*
G01*
X292315677Y-169061909D01*
X293676858Y-170423090D01*
X293181883Y-170918065D01*
X291820702Y-169556884D01*
G37*
G36*
X292718728Y-168658858D02*
G01*
X293213703Y-168163883D01*
X294574884Y-169525064D01*
X294079909Y-170020039D01*
X292718728Y-168658858D01*
G37*
G36*
X293616753Y-167760833D02*
G01*
X294111728Y-167265858D01*
X295472909Y-168627039D01*
X294977934Y-169122014D01*
X293616753Y-167760833D01*
G37*
G36*
X294514779Y-166862807D02*
G01*
X295009754Y-166367832D01*
X296370935Y-167729013D01*
X295875960Y-168223988D01*
X294514779Y-166862807D01*
G37*
G36*
X295412805Y-165964782D02*
G01*
X295907780Y-165469807D01*
X297268961Y-166830988D01*
X296773986Y-167325963D01*
X295412805Y-165964782D01*
G37*
G36*
X296310830Y-165066756D02*
G01*
X296805805Y-164571781D01*
X298166986Y-165932962D01*
X297672011Y-166427937D01*
X296310830Y-165066756D01*
G37*
D47*
X165260000Y-193460000D03*
X165260000Y-196000000D03*
X162720000Y-193460000D03*
X162720000Y-196000000D03*
X160180000Y-193460000D03*
X160180000Y-196000000D03*
X157640000Y-193460000D03*
X157640000Y-196000000D03*
X155100000Y-193460000D03*
X155100000Y-196000000D03*
X152560000Y-193460000D03*
X152560000Y-196000000D03*
X150020000Y-193460000D03*
X150020000Y-196000000D03*
X147480000Y-193460000D03*
X147480000Y-196000000D03*
X144940000Y-193460000D03*
X144940000Y-196000000D03*
X142400000Y-193460000D03*
X142400000Y-196000000D03*
X139860000Y-193460000D03*
X139860000Y-196000000D03*
X137320000Y-193460000D03*
X137320000Y-196000000D03*
X134780000Y-193460000D03*
X134780000Y-196000000D03*
X132240000Y-193460000D03*
X132240000Y-196000000D03*
X129700000Y-193460000D03*
X129700000Y-196000000D03*
X127160000Y-193460000D03*
X127160000Y-196000000D03*
X124620000Y-193460000D03*
X124620000Y-196000000D03*
X122080000Y-193460000D03*
X122080000Y-196000000D03*
X119540000Y-193460000D03*
X119540000Y-196000000D03*
X117000000Y-193460000D03*
D48*
X117000000Y-196000000D03*
D47*
X96460000Y-153360000D03*
X99000000Y-153360000D03*
X96460000Y-155900000D03*
X99000000Y-155900000D03*
X96460000Y-158440000D03*
X99000000Y-158440000D03*
X96460000Y-160980000D03*
X99000000Y-160980000D03*
X96460000Y-163520000D03*
X99000000Y-163520000D03*
X96460000Y-166060000D03*
X99000000Y-166060000D03*
X96460000Y-168600000D03*
X99000000Y-168600000D03*
X96460000Y-171140000D03*
X99000000Y-171140000D03*
X96460000Y-173680000D03*
X99000000Y-173680000D03*
X96460000Y-176220000D03*
X99000000Y-176220000D03*
X96460000Y-178760000D03*
X99000000Y-178760000D03*
X96460000Y-181300000D03*
X99000000Y-181300000D03*
X96460000Y-183840000D03*
X99000000Y-183840000D03*
X96460000Y-186380000D03*
X99000000Y-186380000D03*
X96460000Y-188920000D03*
X99000000Y-188920000D03*
X96460000Y-191460000D03*
X99000000Y-191460000D03*
X96460000Y-194000000D03*
D48*
X99000000Y-194000000D03*
D28*
G36*
X128863604Y-182621677D02*
G01*
X129358579Y-183116652D01*
X127997398Y-184477833D01*
X127502423Y-183982858D01*
X128863604Y-182621677D01*
G37*
G36*
X127965578Y-181723652D02*
G01*
X128460553Y-182218627D01*
X127099372Y-183579808D01*
X126604397Y-183084833D01*
X127965578Y-181723652D01*
G37*
G36*
X127067553Y-180825626D02*
G01*
X127562528Y-181320601D01*
X126201347Y-182681782D01*
X125706372Y-182186807D01*
X127067553Y-180825626D01*
G37*
G36*
X126169527Y-179927600D02*
G01*
X126664502Y-180422575D01*
X125303321Y-181783756D01*
X124808346Y-181288781D01*
X126169527Y-179927600D01*
G37*
G36*
X125271502Y-179029575D02*
G01*
X125766477Y-179524550D01*
X124405296Y-180885731D01*
X123910321Y-180390756D01*
X125271502Y-179029575D01*
G37*
G36*
X124373476Y-178131549D02*
G01*
X124868451Y-178626524D01*
X123507270Y-179987705D01*
X123012295Y-179492730D01*
X124373476Y-178131549D01*
G37*
G36*
X123475450Y-177233523D02*
G01*
X123970425Y-177728498D01*
X122609244Y-179089679D01*
X122114269Y-178594704D01*
X123475450Y-177233523D01*
G37*
G36*
X122577425Y-176335498D02*
G01*
X123072400Y-176830473D01*
X121711219Y-178191654D01*
X121216244Y-177696679D01*
X122577425Y-176335498D01*
G37*
G36*
X121679399Y-175437472D02*
G01*
X122174374Y-175932447D01*
X120813193Y-177293628D01*
X120318218Y-176798653D01*
X121679399Y-175437472D01*
G37*
G36*
X120781373Y-174539447D02*
G01*
X121276348Y-175034422D01*
X119915167Y-176395603D01*
X119420192Y-175900628D01*
X120781373Y-174539447D01*
G37*
G36*
X119883348Y-173641421D02*
G01*
X120378323Y-174136396D01*
X119017142Y-175497577D01*
X118522167Y-175002602D01*
X119883348Y-173641421D01*
G37*
G36*
X119017142Y-171502423D02*
G01*
X120378323Y-172863604D01*
X119883348Y-173358579D01*
X118522167Y-171997398D01*
X119017142Y-171502423D01*
G37*
G36*
X119915167Y-170604397D02*
G01*
X121276348Y-171965578D01*
X120781373Y-172460553D01*
X119420192Y-171099372D01*
X119915167Y-170604397D01*
G37*
G36*
X120813193Y-169706372D02*
G01*
X122174374Y-171067553D01*
X121679399Y-171562528D01*
X120318218Y-170201347D01*
X120813193Y-169706372D01*
G37*
G36*
X121711219Y-168808346D02*
G01*
X123072400Y-170169527D01*
X122577425Y-170664502D01*
X121216244Y-169303321D01*
X121711219Y-168808346D01*
G37*
G36*
X122609244Y-167910321D02*
G01*
X123970425Y-169271502D01*
X123475450Y-169766477D01*
X122114269Y-168405296D01*
X122609244Y-167910321D01*
G37*
G36*
X123507270Y-167012295D02*
G01*
X124868451Y-168373476D01*
X124373476Y-168868451D01*
X123012295Y-167507270D01*
X123507270Y-167012295D01*
G37*
G36*
X124405296Y-166114269D02*
G01*
X125766477Y-167475450D01*
X125271502Y-167970425D01*
X123910321Y-166609244D01*
X124405296Y-166114269D01*
G37*
G36*
X125303321Y-165216244D02*
G01*
X126664502Y-166577425D01*
X126169527Y-167072400D01*
X124808346Y-165711219D01*
X125303321Y-165216244D01*
G37*
G36*
X126201347Y-164318218D02*
G01*
X127562528Y-165679399D01*
X127067553Y-166174374D01*
X125706372Y-164813193D01*
X126201347Y-164318218D01*
G37*
G36*
X127099372Y-163420192D02*
G01*
X128460553Y-164781373D01*
X127965578Y-165276348D01*
X126604397Y-163915167D01*
X127099372Y-163420192D01*
G37*
G36*
X127997398Y-162522167D02*
G01*
X129358579Y-163883348D01*
X128863604Y-164378323D01*
X127502423Y-163017142D01*
X127997398Y-162522167D01*
G37*
G36*
X131002602Y-162522167D02*
G01*
X131497577Y-163017142D01*
X130136396Y-164378323D01*
X129641421Y-163883348D01*
X131002602Y-162522167D01*
G37*
G36*
X131900628Y-163420192D02*
G01*
X132395603Y-163915167D01*
X131034422Y-165276348D01*
X130539447Y-164781373D01*
X131900628Y-163420192D01*
G37*
G36*
X132798653Y-164318218D02*
G01*
X133293628Y-164813193D01*
X131932447Y-166174374D01*
X131437472Y-165679399D01*
X132798653Y-164318218D01*
G37*
G36*
X133696679Y-165216244D02*
G01*
X134191654Y-165711219D01*
X132830473Y-167072400D01*
X132335498Y-166577425D01*
X133696679Y-165216244D01*
G37*
G36*
X134594704Y-166114269D02*
G01*
X135089679Y-166609244D01*
X133728498Y-167970425D01*
X133233523Y-167475450D01*
X134594704Y-166114269D01*
G37*
G36*
X135492730Y-167012295D02*
G01*
X135987705Y-167507270D01*
X134626524Y-168868451D01*
X134131549Y-168373476D01*
X135492730Y-167012295D01*
G37*
G36*
X136390756Y-167910321D02*
G01*
X136885731Y-168405296D01*
X135524550Y-169766477D01*
X135029575Y-169271502D01*
X136390756Y-167910321D01*
G37*
G36*
X137288781Y-168808346D02*
G01*
X137783756Y-169303321D01*
X136422575Y-170664502D01*
X135927600Y-170169527D01*
X137288781Y-168808346D01*
G37*
G36*
X138186807Y-169706372D02*
G01*
X138681782Y-170201347D01*
X137320601Y-171562528D01*
X136825626Y-171067553D01*
X138186807Y-169706372D01*
G37*
G36*
X139084833Y-170604397D02*
G01*
X139579808Y-171099372D01*
X138218627Y-172460553D01*
X137723652Y-171965578D01*
X139084833Y-170604397D01*
G37*
G36*
X139982858Y-171502423D02*
G01*
X140477833Y-171997398D01*
X139116652Y-173358579D01*
X138621677Y-172863604D01*
X139982858Y-171502423D01*
G37*
G36*
X130136396Y-182621677D02*
G01*
X131497577Y-183982858D01*
X131002602Y-184477833D01*
X129641421Y-183116652D01*
X130136396Y-182621677D01*
G37*
G36*
X131034422Y-181723652D02*
G01*
X132395603Y-183084833D01*
X131900628Y-183579808D01*
X130539447Y-182218627D01*
X131034422Y-181723652D01*
G37*
G36*
X131932447Y-180825626D02*
G01*
X133293628Y-182186807D01*
X132798653Y-182681782D01*
X131437472Y-181320601D01*
X131932447Y-180825626D01*
G37*
G36*
X132830473Y-179927600D02*
G01*
X134191654Y-181288781D01*
X133696679Y-181783756D01*
X132335498Y-180422575D01*
X132830473Y-179927600D01*
G37*
G36*
X133728498Y-179029575D02*
G01*
X135089679Y-180390756D01*
X134594704Y-180885731D01*
X133233523Y-179524550D01*
X133728498Y-179029575D01*
G37*
G36*
X139116652Y-173641421D02*
G01*
X140477833Y-175002602D01*
X139982858Y-175497577D01*
X138621677Y-174136396D01*
X139116652Y-173641421D01*
G37*
G36*
X138218627Y-174539447D02*
G01*
X139579808Y-175900628D01*
X139084833Y-176395603D01*
X137723652Y-175034422D01*
X138218627Y-174539447D01*
G37*
G36*
X137320601Y-175437472D02*
G01*
X138681782Y-176798653D01*
X138186807Y-177293628D01*
X136825626Y-175932447D01*
X137320601Y-175437472D01*
G37*
G36*
X136422575Y-176335498D02*
G01*
X137783756Y-177696679D01*
X137288781Y-178191654D01*
X135927600Y-176830473D01*
X136422575Y-176335498D01*
G37*
G36*
X135524550Y-177233523D02*
G01*
X136885731Y-178594704D01*
X136390756Y-179089679D01*
X135029575Y-177728498D01*
X135524550Y-177233523D01*
G37*
G36*
X134626524Y-178131549D02*
G01*
X135987705Y-179492730D01*
X135492730Y-179987705D01*
X134131549Y-178626524D01*
X134626524Y-178131549D01*
G37*
D36*
X129650000Y-154000000D03*
X123150000Y-154000000D03*
X123150000Y-149800000D03*
X129650000Y-149800000D03*
M02*
