%TF.GenerationSoftware,KiCad,Pcbnew,5.1.9*%
%TF.CreationDate,2021-03-28T04:41:59-04:00*%
%TF.ProjectId,C68,4336382e-6b69-4636-9164-5f7063625858,rev?*%
%TF.SameCoordinates,Original*%
%TF.FileFunction,Soldermask,Bot*%
%TF.FilePolarity,Negative*%
%FSLAX46Y46*%
G04 Gerber Fmt 4.6, Leading zero omitted, Abs format (unit mm)*
G04 Created by KiCad (PCBNEW 5.1.9) date 2021-03-28 04:41:59*
%MOMM*%
%LPD*%
G01*
G04 APERTURE LIST*
%TA.AperFunction,Profile*%
%ADD10C,0.050000*%
%TD*%
%ADD11O,2.200000X1.700000*%
%ADD12R,1.200000X1.200000*%
%ADD13C,1.200000*%
%ADD14O,1.700000X1.700000*%
%ADD15R,1.700000X1.700000*%
%ADD16C,2.000000*%
%ADD17C,1.397000*%
%ADD18R,1.397000X1.397000*%
%ADD19C,2.410000*%
%ADD20O,1.200000X2.000000*%
%ADD21C,6.000000*%
%ADD22C,1.600000*%
%ADD23R,1.600000X1.600000*%
%ADD24C,4.000000*%
%ADD25C,1.422400*%
%ADD26R,1.422400X1.422400*%
%ADD27C,1.750000*%
%ADD28O,3.300000X2.700000*%
%ADD29C,1.524000*%
%ADD30C,1.500000*%
%ADD31C,3.250000*%
%ADD32R,1.500000X1.500000*%
%ADD33R,1.600000X2.400000*%
%ADD34O,1.600000X2.400000*%
%ADD35C,1.800000*%
%ADD36R,1.800000X1.800000*%
%ADD37O,1.727200X1.727200*%
%ADD38R,1.727200X1.727200*%
G04 APERTURE END LIST*
D10*
X304000000Y-210000000D02*
X90000000Y-210000000D01*
X304000000Y-40000000D02*
X304000000Y-210000000D01*
X90000000Y-40000000D02*
X304000000Y-40000000D01*
X90000000Y-210000000D02*
X90000000Y-40000000D01*
D11*
X105430000Y-65220000D03*
X110510000Y-65220000D03*
X105430000Y-67760000D03*
X105430000Y-70300000D03*
X105430000Y-72840000D03*
X105430000Y-75380000D03*
X105430000Y-77920000D03*
X105430000Y-80460000D03*
X105430000Y-83000000D03*
X105430000Y-85540000D03*
X105430000Y-88080000D03*
X105430000Y-90620000D03*
X105430000Y-93160000D03*
X105430000Y-95700000D03*
X105430000Y-98240000D03*
X105430000Y-100780000D03*
X105430000Y-103320000D03*
X105430000Y-105860000D03*
X105430000Y-108400000D03*
X105430000Y-110940000D03*
X105430000Y-113480000D03*
X105430000Y-116020000D03*
X105430000Y-118560000D03*
X105430000Y-121100000D03*
X105430000Y-123640000D03*
X105430000Y-126180000D03*
X105430000Y-128720000D03*
X105430000Y-131260000D03*
X105430000Y-133800000D03*
X105430000Y-136340000D03*
X105430000Y-138880000D03*
X105430000Y-141420000D03*
X110510000Y-67760000D03*
X110510000Y-70300000D03*
X110510000Y-72840000D03*
X110510000Y-75380000D03*
X110510000Y-77920000D03*
X110510000Y-80460000D03*
X110510000Y-83000000D03*
X110510000Y-85540000D03*
X110510000Y-88080000D03*
X110510000Y-90620000D03*
X110510000Y-93160000D03*
X110510000Y-95700000D03*
X110510000Y-98240000D03*
X110510000Y-100780000D03*
X110510000Y-103320000D03*
X110510000Y-105860000D03*
X110510000Y-108400000D03*
X110510000Y-110940000D03*
X110510000Y-113480000D03*
X110510000Y-116020000D03*
X110510000Y-118560000D03*
X110510000Y-121100000D03*
X110510000Y-123640000D03*
X110510000Y-126180000D03*
X110510000Y-128720000D03*
X110510000Y-131260000D03*
X110510000Y-133800000D03*
X110510000Y-136340000D03*
X110510000Y-138880000D03*
X110510000Y-141420000D03*
D12*
X296250000Y-199320000D03*
D13*
X296250000Y-196780000D03*
X296250000Y-194240000D03*
X301330000Y-199320000D03*
X301330000Y-194240000D03*
D14*
X277740000Y-90230000D03*
X275200000Y-90230000D03*
X277740000Y-87690000D03*
X275200000Y-87690000D03*
X277740000Y-85150000D03*
D15*
X275200000Y-85150000D03*
D14*
X187890000Y-92610000D03*
X185350000Y-92610000D03*
X182810000Y-92610000D03*
X180270000Y-92610000D03*
X177730000Y-92610000D03*
D15*
X175190000Y-92610000D03*
D16*
X176190000Y-79610000D03*
X176190000Y-84110000D03*
X169690000Y-79610000D03*
X169690000Y-84110000D03*
D17*
X234040000Y-112510000D03*
X234040000Y-109970000D03*
X234040000Y-107430000D03*
X234040000Y-104890000D03*
X234040000Y-102350000D03*
X234040000Y-99810000D03*
X234040000Y-97270000D03*
X234040000Y-94730000D03*
X234040000Y-92190000D03*
X234040000Y-89650000D03*
X234040000Y-87110000D03*
X234040000Y-84570000D03*
X234040000Y-82030000D03*
X231500000Y-112510000D03*
X231500000Y-109970000D03*
X231500000Y-107430000D03*
X231500000Y-104890000D03*
X231500000Y-102350000D03*
X231500000Y-99810000D03*
X231500000Y-97270000D03*
X231500000Y-94730000D03*
X231500000Y-92190000D03*
X231500000Y-89650000D03*
X231500000Y-87110000D03*
X231500000Y-84570000D03*
X231500000Y-82030000D03*
X228960000Y-112510000D03*
X228960000Y-109970000D03*
X228960000Y-107430000D03*
X228960000Y-104890000D03*
X228960000Y-102350000D03*
X228960000Y-99810000D03*
X228960000Y-97270000D03*
X228960000Y-94730000D03*
X228960000Y-92190000D03*
X228960000Y-89650000D03*
X228960000Y-87110000D03*
X228960000Y-84570000D03*
X228960000Y-82030000D03*
X226420000Y-112510000D03*
X226420000Y-109970000D03*
X226420000Y-107430000D03*
X226420000Y-104890000D03*
X226420000Y-94730000D03*
X226420000Y-89650000D03*
X226420000Y-87110000D03*
X226420000Y-84570000D03*
X226420000Y-82030000D03*
X223880000Y-112510000D03*
X223880000Y-109970000D03*
X223880000Y-107430000D03*
X223880000Y-87110000D03*
X223880000Y-84570000D03*
X223880000Y-82030000D03*
X221340000Y-112510000D03*
X221340000Y-109970000D03*
X221340000Y-107430000D03*
X221340000Y-87110000D03*
X221340000Y-84570000D03*
X221340000Y-82030000D03*
X218800000Y-112510000D03*
X218800000Y-109970000D03*
X218800000Y-107430000D03*
X218800000Y-87110000D03*
X218800000Y-84570000D03*
X218800000Y-82030000D03*
X216260000Y-112510000D03*
X216260000Y-109970000D03*
X216260000Y-107430000D03*
X216260000Y-87110000D03*
X216260000Y-84570000D03*
X216260000Y-82030000D03*
X213720000Y-112510000D03*
X213720000Y-109970000D03*
X213720000Y-107430000D03*
X213720000Y-104890000D03*
X213720000Y-89650000D03*
X213720000Y-87110000D03*
X213720000Y-84570000D03*
X213720000Y-82030000D03*
X211180000Y-112510000D03*
X211180000Y-109970000D03*
X211180000Y-107430000D03*
X211180000Y-104890000D03*
X211180000Y-94730000D03*
X211180000Y-89650000D03*
X211180000Y-87110000D03*
X211180000Y-84570000D03*
X211180000Y-82030000D03*
X208640000Y-112510000D03*
X208640000Y-109970000D03*
X208640000Y-107430000D03*
X208640000Y-104890000D03*
X208640000Y-102350000D03*
X208640000Y-99810000D03*
X208640000Y-97270000D03*
X208640000Y-94730000D03*
X208640000Y-92190000D03*
X208640000Y-89650000D03*
X208640000Y-87110000D03*
X208640000Y-84570000D03*
X208640000Y-82030000D03*
X206100000Y-112510000D03*
X206100000Y-109970000D03*
X206100000Y-107430000D03*
X206100000Y-104890000D03*
X206100000Y-102350000D03*
X206100000Y-99810000D03*
X206100000Y-97270000D03*
X206100000Y-94730000D03*
X206100000Y-92190000D03*
X206100000Y-89650000D03*
X206100000Y-87110000D03*
X206100000Y-84570000D03*
X206100000Y-82030000D03*
X203560000Y-112510000D03*
X203560000Y-109970000D03*
X203560000Y-107430000D03*
X203560000Y-104890000D03*
X203560000Y-102350000D03*
X203560000Y-99810000D03*
X203560000Y-97270000D03*
X203560000Y-94730000D03*
X203560000Y-92190000D03*
X203560000Y-89650000D03*
X203560000Y-87110000D03*
X203560000Y-84570000D03*
D18*
X203560000Y-82030000D03*
D19*
X288907000Y-192250000D03*
X177147000Y-192250000D03*
D20*
X280652000Y-193266000D03*
X278112000Y-193266000D03*
X275572000Y-193266000D03*
X273032000Y-193266000D03*
X270492000Y-193266000D03*
X267952000Y-193266000D03*
X265412000Y-193266000D03*
X262872000Y-193266000D03*
X260332000Y-193266000D03*
X257792000Y-193266000D03*
X255252000Y-193266000D03*
X252712000Y-193266000D03*
X250172000Y-193266000D03*
X247632000Y-193266000D03*
X245092000Y-193266000D03*
X242552000Y-193266000D03*
X240012000Y-193266000D03*
X237472000Y-193266000D03*
X236202000Y-190726000D03*
X238742000Y-190726000D03*
X241282000Y-190726000D03*
X243822000Y-190726000D03*
X246362000Y-190726000D03*
X248902000Y-190726000D03*
X251442000Y-190726000D03*
X253982000Y-190726000D03*
X256522000Y-190726000D03*
X259062000Y-190726000D03*
X261602000Y-190726000D03*
X264142000Y-190726000D03*
X266682000Y-190726000D03*
X269222000Y-190726000D03*
X271762000Y-190726000D03*
X274302000Y-190726000D03*
X276842000Y-190726000D03*
X279382000Y-190726000D03*
X228582000Y-190726000D03*
X226042000Y-190726000D03*
X223502000Y-190726000D03*
X220962000Y-190726000D03*
X218422000Y-190726000D03*
X215882000Y-190726000D03*
X213342000Y-190726000D03*
X210802000Y-190726000D03*
X208262000Y-190726000D03*
X205722000Y-190726000D03*
X203182000Y-190726000D03*
X200642000Y-190726000D03*
X198102000Y-190726000D03*
X195562000Y-190726000D03*
X193022000Y-190726000D03*
X190482000Y-190726000D03*
X187942000Y-190726000D03*
X185402000Y-190726000D03*
X186672000Y-193266000D03*
X189212000Y-193266000D03*
X191752000Y-193266000D03*
X194292000Y-193266000D03*
X196832000Y-193266000D03*
X199372000Y-193266000D03*
X201912000Y-193266000D03*
X204452000Y-193266000D03*
X206992000Y-193266000D03*
X209532000Y-193266000D03*
X212072000Y-193266000D03*
X214612000Y-193266000D03*
X217152000Y-193266000D03*
X219692000Y-193266000D03*
X222232000Y-193266000D03*
X224772000Y-193266000D03*
X227312000Y-193266000D03*
X229852000Y-193266000D03*
D19*
X233027000Y-192250000D03*
D21*
X140990000Y-49980000D03*
X298470000Y-72840000D03*
X298470000Y-204920000D03*
X140990000Y-204920000D03*
D11*
X125750000Y-65220000D03*
X130830000Y-65220000D03*
X125750000Y-67760000D03*
X125750000Y-70300000D03*
X125750000Y-72840000D03*
X125750000Y-75380000D03*
X125750000Y-77920000D03*
X125750000Y-80460000D03*
X125750000Y-83000000D03*
X125750000Y-85540000D03*
X125750000Y-88080000D03*
X125750000Y-90620000D03*
X125750000Y-93160000D03*
X125750000Y-95700000D03*
X125750000Y-98240000D03*
X125750000Y-100780000D03*
X125750000Y-103320000D03*
X125750000Y-105860000D03*
X125750000Y-108400000D03*
X125750000Y-110940000D03*
X125750000Y-113480000D03*
X125750000Y-116020000D03*
X125750000Y-118560000D03*
X125750000Y-121100000D03*
X125750000Y-123640000D03*
X125750000Y-126180000D03*
X125750000Y-128720000D03*
X125750000Y-131260000D03*
X125750000Y-133800000D03*
X125750000Y-136340000D03*
X125750000Y-138880000D03*
X125750000Y-141420000D03*
X130830000Y-67760000D03*
X130830000Y-70300000D03*
X130830000Y-72840000D03*
X130830000Y-75380000D03*
X130830000Y-77920000D03*
X130830000Y-80460000D03*
X130830000Y-83000000D03*
X130830000Y-85540000D03*
X130830000Y-88080000D03*
X130830000Y-90620000D03*
X130830000Y-93160000D03*
X130830000Y-95700000D03*
X130830000Y-98240000D03*
X130830000Y-100780000D03*
X130830000Y-103320000D03*
X130830000Y-105860000D03*
X130830000Y-108400000D03*
X130830000Y-110940000D03*
X130830000Y-113480000D03*
X130830000Y-116020000D03*
X130830000Y-118560000D03*
X130830000Y-121100000D03*
X130830000Y-123640000D03*
X130830000Y-126180000D03*
X130830000Y-128720000D03*
X130830000Y-131260000D03*
X130830000Y-133800000D03*
X130830000Y-136340000D03*
X130830000Y-138880000D03*
X130830000Y-141420000D03*
X146070000Y-65220000D03*
X151150000Y-65220000D03*
X146070000Y-67760000D03*
X146070000Y-70300000D03*
X146070000Y-72840000D03*
X146070000Y-75380000D03*
X146070000Y-77920000D03*
X146070000Y-80460000D03*
X146070000Y-83000000D03*
X146070000Y-85540000D03*
X146070000Y-88080000D03*
X146070000Y-90620000D03*
X146070000Y-93160000D03*
X146070000Y-95700000D03*
X146070000Y-98240000D03*
X146070000Y-100780000D03*
X146070000Y-103320000D03*
X146070000Y-105860000D03*
X146070000Y-108400000D03*
X146070000Y-110940000D03*
X146070000Y-113480000D03*
X146070000Y-116020000D03*
X146070000Y-118560000D03*
X146070000Y-121100000D03*
X146070000Y-123640000D03*
X146070000Y-126180000D03*
X146070000Y-128720000D03*
X146070000Y-131260000D03*
X146070000Y-133800000D03*
X146070000Y-136340000D03*
X146070000Y-138880000D03*
X146070000Y-141420000D03*
X151150000Y-67760000D03*
X151150000Y-70300000D03*
X151150000Y-72840000D03*
X151150000Y-75380000D03*
X151150000Y-77920000D03*
X151150000Y-80460000D03*
X151150000Y-83000000D03*
X151150000Y-85540000D03*
X151150000Y-88080000D03*
X151150000Y-90620000D03*
X151150000Y-93160000D03*
X151150000Y-95700000D03*
X151150000Y-98240000D03*
X151150000Y-100780000D03*
X151150000Y-103320000D03*
X151150000Y-105860000D03*
X151150000Y-108400000D03*
X151150000Y-110940000D03*
X151150000Y-113480000D03*
X151150000Y-116020000D03*
X151150000Y-118560000D03*
X151150000Y-121100000D03*
X151150000Y-123640000D03*
X151150000Y-126180000D03*
X151150000Y-128720000D03*
X151150000Y-131260000D03*
X151150000Y-133800000D03*
X151150000Y-136340000D03*
X151150000Y-138880000D03*
X151150000Y-141420000D03*
G36*
G01*
X239762500Y-42850000D02*
X240237500Y-42850000D01*
G75*
G02*
X240475000Y-43087500I0J-237500D01*
G01*
X240475000Y-43662500D01*
G75*
G02*
X240237500Y-43900000I-237500J0D01*
G01*
X239762500Y-43900000D01*
G75*
G02*
X239525000Y-43662500I0J237500D01*
G01*
X239525000Y-43087500D01*
G75*
G02*
X239762500Y-42850000I237500J0D01*
G01*
G37*
G36*
G01*
X239762500Y-44600000D02*
X240237500Y-44600000D01*
G75*
G02*
X240475000Y-44837500I0J-237500D01*
G01*
X240475000Y-45412500D01*
G75*
G02*
X240237500Y-45650000I-237500J0D01*
G01*
X239762500Y-45650000D01*
G75*
G02*
X239525000Y-45412500I0J237500D01*
G01*
X239525000Y-44837500D01*
G75*
G02*
X239762500Y-44600000I237500J0D01*
G01*
G37*
G36*
G01*
X241487500Y-60150000D02*
X241012500Y-60150000D01*
G75*
G02*
X240775000Y-59912500I0J237500D01*
G01*
X240775000Y-59337500D01*
G75*
G02*
X241012500Y-59100000I237500J0D01*
G01*
X241487500Y-59100000D01*
G75*
G02*
X241725000Y-59337500I0J-237500D01*
G01*
X241725000Y-59912500D01*
G75*
G02*
X241487500Y-60150000I-237500J0D01*
G01*
G37*
G36*
G01*
X241487500Y-58400000D02*
X241012500Y-58400000D01*
G75*
G02*
X240775000Y-58162500I0J237500D01*
G01*
X240775000Y-57587500D01*
G75*
G02*
X241012500Y-57350000I237500J0D01*
G01*
X241487500Y-57350000D01*
G75*
G02*
X241725000Y-57587500I0J-237500D01*
G01*
X241725000Y-58162500D01*
G75*
G02*
X241487500Y-58400000I-237500J0D01*
G01*
G37*
G36*
G01*
X249150000Y-52262500D02*
X249150000Y-52737500D01*
G75*
G02*
X248912500Y-52975000I-237500J0D01*
G01*
X248337500Y-52975000D01*
G75*
G02*
X248100000Y-52737500I0J237500D01*
G01*
X248100000Y-52262500D01*
G75*
G02*
X248337500Y-52025000I237500J0D01*
G01*
X248912500Y-52025000D01*
G75*
G02*
X249150000Y-52262500I0J-237500D01*
G01*
G37*
G36*
G01*
X250900000Y-52262500D02*
X250900000Y-52737500D01*
G75*
G02*
X250662500Y-52975000I-237500J0D01*
G01*
X250087500Y-52975000D01*
G75*
G02*
X249850000Y-52737500I0J237500D01*
G01*
X249850000Y-52262500D01*
G75*
G02*
X250087500Y-52025000I237500J0D01*
G01*
X250662500Y-52025000D01*
G75*
G02*
X250900000Y-52262500I0J-237500D01*
G01*
G37*
G36*
G01*
X234850000Y-52737500D02*
X234850000Y-52262500D01*
G75*
G02*
X235087500Y-52025000I237500J0D01*
G01*
X235662500Y-52025000D01*
G75*
G02*
X235900000Y-52262500I0J-237500D01*
G01*
X235900000Y-52737500D01*
G75*
G02*
X235662500Y-52975000I-237500J0D01*
G01*
X235087500Y-52975000D01*
G75*
G02*
X234850000Y-52737500I0J237500D01*
G01*
G37*
G36*
G01*
X233100000Y-52737500D02*
X233100000Y-52262500D01*
G75*
G02*
X233337500Y-52025000I237500J0D01*
G01*
X233912500Y-52025000D01*
G75*
G02*
X234150000Y-52262500I0J-237500D01*
G01*
X234150000Y-52737500D01*
G75*
G02*
X233912500Y-52975000I-237500J0D01*
G01*
X233337500Y-52975000D01*
G75*
G02*
X233100000Y-52737500I0J237500D01*
G01*
G37*
G36*
G01*
X243737500Y-42900000D02*
X243262500Y-42900000D01*
G75*
G02*
X243025000Y-42662500I0J237500D01*
G01*
X243025000Y-42087500D01*
G75*
G02*
X243262500Y-41850000I237500J0D01*
G01*
X243737500Y-41850000D01*
G75*
G02*
X243975000Y-42087500I0J-237500D01*
G01*
X243975000Y-42662500D01*
G75*
G02*
X243737500Y-42900000I-237500J0D01*
G01*
G37*
G36*
G01*
X243737500Y-44650000D02*
X243262500Y-44650000D01*
G75*
G02*
X243025000Y-44412500I0J237500D01*
G01*
X243025000Y-43837500D01*
G75*
G02*
X243262500Y-43600000I237500J0D01*
G01*
X243737500Y-43600000D01*
G75*
G02*
X243975000Y-43837500I0J-237500D01*
G01*
X243975000Y-44412500D01*
G75*
G02*
X243737500Y-44650000I-237500J0D01*
G01*
G37*
G36*
G01*
X241512500Y-44600000D02*
X241987500Y-44600000D01*
G75*
G02*
X242225000Y-44837500I0J-237500D01*
G01*
X242225000Y-45412500D01*
G75*
G02*
X241987500Y-45650000I-237500J0D01*
G01*
X241512500Y-45650000D01*
G75*
G02*
X241275000Y-45412500I0J237500D01*
G01*
X241275000Y-44837500D01*
G75*
G02*
X241512500Y-44600000I237500J0D01*
G01*
G37*
G36*
G01*
X241512500Y-42850000D02*
X241987500Y-42850000D01*
G75*
G02*
X242225000Y-43087500I0J-237500D01*
G01*
X242225000Y-43662500D01*
G75*
G02*
X241987500Y-43900000I-237500J0D01*
G01*
X241512500Y-43900000D01*
G75*
G02*
X241275000Y-43662500I0J237500D01*
G01*
X241275000Y-43087500D01*
G75*
G02*
X241512500Y-42850000I237500J0D01*
G01*
G37*
G36*
G01*
X239737500Y-55650000D02*
X239262500Y-55650000D01*
G75*
G02*
X239025000Y-55412500I0J237500D01*
G01*
X239025000Y-54837500D01*
G75*
G02*
X239262500Y-54600000I237500J0D01*
G01*
X239737500Y-54600000D01*
G75*
G02*
X239975000Y-54837500I0J-237500D01*
G01*
X239975000Y-55412500D01*
G75*
G02*
X239737500Y-55650000I-237500J0D01*
G01*
G37*
G36*
G01*
X239737500Y-57400000D02*
X239262500Y-57400000D01*
G75*
G02*
X239025000Y-57162500I0J237500D01*
G01*
X239025000Y-56587500D01*
G75*
G02*
X239262500Y-56350000I237500J0D01*
G01*
X239737500Y-56350000D01*
G75*
G02*
X239975000Y-56587500I0J-237500D01*
G01*
X239975000Y-57162500D01*
G75*
G02*
X239737500Y-57400000I-237500J0D01*
G01*
G37*
G36*
G01*
X241012500Y-55100000D02*
X241487500Y-55100000D01*
G75*
G02*
X241725000Y-55337500I0J-237500D01*
G01*
X241725000Y-55912500D01*
G75*
G02*
X241487500Y-56150000I-237500J0D01*
G01*
X241012500Y-56150000D01*
G75*
G02*
X240775000Y-55912500I0J237500D01*
G01*
X240775000Y-55337500D01*
G75*
G02*
X241012500Y-55100000I237500J0D01*
G01*
G37*
G36*
G01*
X241012500Y-53350000D02*
X241487500Y-53350000D01*
G75*
G02*
X241725000Y-53587500I0J-237500D01*
G01*
X241725000Y-54162500D01*
G75*
G02*
X241487500Y-54400000I-237500J0D01*
G01*
X241012500Y-54400000D01*
G75*
G02*
X240775000Y-54162500I0J237500D01*
G01*
X240775000Y-53587500D01*
G75*
G02*
X241012500Y-53350000I237500J0D01*
G01*
G37*
D14*
X256035095Y-44069404D03*
X256035095Y-46609404D03*
X256035095Y-49149404D03*
X256035095Y-51689404D03*
D15*
X256035095Y-54229404D03*
D21*
X95270000Y-204920000D03*
X95270000Y-49980000D03*
D19*
X288907000Y-202250000D03*
X177147000Y-202250000D03*
D20*
X280652000Y-203266000D03*
X278112000Y-203266000D03*
X275572000Y-203266000D03*
X273032000Y-203266000D03*
X270492000Y-203266000D03*
X267952000Y-203266000D03*
X265412000Y-203266000D03*
X262872000Y-203266000D03*
X260332000Y-203266000D03*
X257792000Y-203266000D03*
X255252000Y-203266000D03*
X252712000Y-203266000D03*
X250172000Y-203266000D03*
X247632000Y-203266000D03*
X245092000Y-203266000D03*
X242552000Y-203266000D03*
X240012000Y-203266000D03*
X237472000Y-203266000D03*
X236202000Y-200726000D03*
X238742000Y-200726000D03*
X241282000Y-200726000D03*
X243822000Y-200726000D03*
X246362000Y-200726000D03*
X248902000Y-200726000D03*
X251442000Y-200726000D03*
X253982000Y-200726000D03*
X256522000Y-200726000D03*
X259062000Y-200726000D03*
X261602000Y-200726000D03*
X264142000Y-200726000D03*
X266682000Y-200726000D03*
X269222000Y-200726000D03*
X271762000Y-200726000D03*
X274302000Y-200726000D03*
X276842000Y-200726000D03*
X279382000Y-200726000D03*
X228582000Y-200726000D03*
X226042000Y-200726000D03*
X223502000Y-200726000D03*
X220962000Y-200726000D03*
X218422000Y-200726000D03*
X215882000Y-200726000D03*
X213342000Y-200726000D03*
X210802000Y-200726000D03*
X208262000Y-200726000D03*
X205722000Y-200726000D03*
X203182000Y-200726000D03*
X200642000Y-200726000D03*
X198102000Y-200726000D03*
X195562000Y-200726000D03*
X193022000Y-200726000D03*
X190482000Y-200726000D03*
X187942000Y-200726000D03*
X185402000Y-200726000D03*
X186672000Y-203266000D03*
X189212000Y-203266000D03*
X191752000Y-203266000D03*
X194292000Y-203266000D03*
X196832000Y-203266000D03*
X199372000Y-203266000D03*
X201912000Y-203266000D03*
X204452000Y-203266000D03*
X206992000Y-203266000D03*
X209532000Y-203266000D03*
X212072000Y-203266000D03*
X214612000Y-203266000D03*
X217152000Y-203266000D03*
X219692000Y-203266000D03*
X222232000Y-203266000D03*
X224772000Y-203266000D03*
X227312000Y-203266000D03*
X229852000Y-203266000D03*
D19*
X233027000Y-202250000D03*
D22*
X278910000Y-53420000D03*
X281200000Y-53420000D03*
X283490000Y-53420000D03*
X276620000Y-53420000D03*
D23*
X274330000Y-53420000D03*
D24*
X265035000Y-51440000D03*
D22*
X283490000Y-49460000D03*
X281200000Y-49460000D03*
X278910000Y-49460000D03*
X276620000Y-49460000D03*
X274330000Y-49460000D03*
X275475000Y-51440000D03*
X273185000Y-51440000D03*
X280055000Y-51440000D03*
X282345000Y-51440000D03*
X277765000Y-51440000D03*
D24*
X290025000Y-51440000D03*
G36*
G01*
X267100001Y-183350000D02*
X266199999Y-183350000D01*
G75*
G02*
X265950000Y-183100001I0J249999D01*
G01*
X265950000Y-182449999D01*
G75*
G02*
X266199999Y-182200000I249999J0D01*
G01*
X267100001Y-182200000D01*
G75*
G02*
X267350000Y-182449999I0J-249999D01*
G01*
X267350000Y-183100001D01*
G75*
G02*
X267100001Y-183350000I-249999J0D01*
G01*
G37*
G36*
G01*
X267100001Y-181300000D02*
X266199999Y-181300000D01*
G75*
G02*
X265950000Y-181050001I0J249999D01*
G01*
X265950000Y-180399999D01*
G75*
G02*
X266199999Y-180150000I249999J0D01*
G01*
X267100001Y-180150000D01*
G75*
G02*
X267350000Y-180399999I0J-249999D01*
G01*
X267350000Y-181050001D01*
G75*
G02*
X267100001Y-181300000I-249999J0D01*
G01*
G37*
G36*
G01*
X265850001Y-187350000D02*
X264949999Y-187350000D01*
G75*
G02*
X264700000Y-187100001I0J249999D01*
G01*
X264700000Y-186449999D01*
G75*
G02*
X264949999Y-186200000I249999J0D01*
G01*
X265850001Y-186200000D01*
G75*
G02*
X266100000Y-186449999I0J-249999D01*
G01*
X266100000Y-187100001D01*
G75*
G02*
X265850001Y-187350000I-249999J0D01*
G01*
G37*
G36*
G01*
X265850001Y-185300000D02*
X264949999Y-185300000D01*
G75*
G02*
X264700000Y-185050001I0J249999D01*
G01*
X264700000Y-184399999D01*
G75*
G02*
X264949999Y-184150000I249999J0D01*
G01*
X265850001Y-184150000D01*
G75*
G02*
X266100000Y-184399999I0J-249999D01*
G01*
X266100000Y-185050001D01*
G75*
G02*
X265850001Y-185300000I-249999J0D01*
G01*
G37*
G36*
G01*
X264600001Y-183350000D02*
X263699999Y-183350000D01*
G75*
G02*
X263450000Y-183100001I0J249999D01*
G01*
X263450000Y-182449999D01*
G75*
G02*
X263699999Y-182200000I249999J0D01*
G01*
X264600001Y-182200000D01*
G75*
G02*
X264850000Y-182449999I0J-249999D01*
G01*
X264850000Y-183100001D01*
G75*
G02*
X264600001Y-183350000I-249999J0D01*
G01*
G37*
G36*
G01*
X264600001Y-181300000D02*
X263699999Y-181300000D01*
G75*
G02*
X263450000Y-181050001I0J249999D01*
G01*
X263450000Y-180399999D01*
G75*
G02*
X263699999Y-180150000I249999J0D01*
G01*
X264600001Y-180150000D01*
G75*
G02*
X264850000Y-180399999I0J-249999D01*
G01*
X264850000Y-181050001D01*
G75*
G02*
X264600001Y-181300000I-249999J0D01*
G01*
G37*
G36*
G01*
X263350001Y-187350000D02*
X262449999Y-187350000D01*
G75*
G02*
X262200000Y-187100001I0J249999D01*
G01*
X262200000Y-186449999D01*
G75*
G02*
X262449999Y-186200000I249999J0D01*
G01*
X263350001Y-186200000D01*
G75*
G02*
X263600000Y-186449999I0J-249999D01*
G01*
X263600000Y-187100001D01*
G75*
G02*
X263350001Y-187350000I-249999J0D01*
G01*
G37*
G36*
G01*
X263350001Y-185300000D02*
X262449999Y-185300000D01*
G75*
G02*
X262200000Y-185050001I0J249999D01*
G01*
X262200000Y-184399999D01*
G75*
G02*
X262449999Y-184150000I249999J0D01*
G01*
X263350001Y-184150000D01*
G75*
G02*
X263600000Y-184399999I0J-249999D01*
G01*
X263600000Y-185050001D01*
G75*
G02*
X263350001Y-185300000I-249999J0D01*
G01*
G37*
G36*
G01*
X262050001Y-183350000D02*
X261149999Y-183350000D01*
G75*
G02*
X260900000Y-183100001I0J249999D01*
G01*
X260900000Y-182449999D01*
G75*
G02*
X261149999Y-182200000I249999J0D01*
G01*
X262050001Y-182200000D01*
G75*
G02*
X262300000Y-182449999I0J-249999D01*
G01*
X262300000Y-183100001D01*
G75*
G02*
X262050001Y-183350000I-249999J0D01*
G01*
G37*
G36*
G01*
X262050001Y-181300000D02*
X261149999Y-181300000D01*
G75*
G02*
X260900000Y-181050001I0J249999D01*
G01*
X260900000Y-180399999D01*
G75*
G02*
X261149999Y-180150000I249999J0D01*
G01*
X262050001Y-180150000D01*
G75*
G02*
X262300000Y-180399999I0J-249999D01*
G01*
X262300000Y-181050001D01*
G75*
G02*
X262050001Y-181300000I-249999J0D01*
G01*
G37*
G36*
G01*
X260750001Y-187350000D02*
X259849999Y-187350000D01*
G75*
G02*
X259600000Y-187100001I0J249999D01*
G01*
X259600000Y-186449999D01*
G75*
G02*
X259849999Y-186200000I249999J0D01*
G01*
X260750001Y-186200000D01*
G75*
G02*
X261000000Y-186449999I0J-249999D01*
G01*
X261000000Y-187100001D01*
G75*
G02*
X260750001Y-187350000I-249999J0D01*
G01*
G37*
G36*
G01*
X260750001Y-185300000D02*
X259849999Y-185300000D01*
G75*
G02*
X259600000Y-185050001I0J249999D01*
G01*
X259600000Y-184399999D01*
G75*
G02*
X259849999Y-184150000I249999J0D01*
G01*
X260750001Y-184150000D01*
G75*
G02*
X261000000Y-184399999I0J-249999D01*
G01*
X261000000Y-185050001D01*
G75*
G02*
X260750001Y-185300000I-249999J0D01*
G01*
G37*
G36*
G01*
X259450001Y-183350000D02*
X258549999Y-183350000D01*
G75*
G02*
X258300000Y-183100001I0J249999D01*
G01*
X258300000Y-182449999D01*
G75*
G02*
X258549999Y-182200000I249999J0D01*
G01*
X259450001Y-182200000D01*
G75*
G02*
X259700000Y-182449999I0J-249999D01*
G01*
X259700000Y-183100001D01*
G75*
G02*
X259450001Y-183350000I-249999J0D01*
G01*
G37*
G36*
G01*
X259450001Y-181300000D02*
X258549999Y-181300000D01*
G75*
G02*
X258300000Y-181050001I0J249999D01*
G01*
X258300000Y-180399999D01*
G75*
G02*
X258549999Y-180150000I249999J0D01*
G01*
X259450001Y-180150000D01*
G75*
G02*
X259700000Y-180399999I0J-249999D01*
G01*
X259700000Y-181050001D01*
G75*
G02*
X259450001Y-181300000I-249999J0D01*
G01*
G37*
G36*
G01*
X258250001Y-187350000D02*
X257349999Y-187350000D01*
G75*
G02*
X257100000Y-187100001I0J249999D01*
G01*
X257100000Y-186449999D01*
G75*
G02*
X257349999Y-186200000I249999J0D01*
G01*
X258250001Y-186200000D01*
G75*
G02*
X258500000Y-186449999I0J-249999D01*
G01*
X258500000Y-187100001D01*
G75*
G02*
X258250001Y-187350000I-249999J0D01*
G01*
G37*
G36*
G01*
X258250001Y-185300000D02*
X257349999Y-185300000D01*
G75*
G02*
X257100000Y-185050001I0J249999D01*
G01*
X257100000Y-184399999D01*
G75*
G02*
X257349999Y-184150000I249999J0D01*
G01*
X258250001Y-184150000D01*
G75*
G02*
X258500000Y-184399999I0J-249999D01*
G01*
X258500000Y-185050001D01*
G75*
G02*
X258250001Y-185300000I-249999J0D01*
G01*
G37*
D22*
X185380000Y-184320000D03*
D23*
X187380000Y-184320000D03*
D22*
X230880000Y-182320000D03*
D23*
X230880000Y-180320000D03*
D22*
X297710000Y-183440000D03*
D23*
X299710000Y-183440000D03*
D22*
X297710000Y-189440000D03*
D23*
X299710000Y-189440000D03*
D22*
X164130000Y-204870000D03*
D23*
X162130000Y-204870000D03*
D22*
X181380000Y-184320000D03*
D23*
X179380000Y-184320000D03*
D22*
X282880000Y-120820000D03*
D23*
X284880000Y-120820000D03*
D22*
X282880000Y-113320000D03*
D23*
X284880000Y-113320000D03*
D22*
X166270000Y-89390000D03*
D23*
X164270000Y-89390000D03*
D25*
X265680000Y-109850000D03*
X263140000Y-109850000D03*
X260600000Y-109850000D03*
X258060000Y-109850000D03*
X255520000Y-109850000D03*
X252980000Y-109850000D03*
X250440000Y-109850000D03*
X247900000Y-109850000D03*
X268220000Y-107310000D03*
X263140000Y-107310000D03*
X260600000Y-107310000D03*
X258060000Y-107310000D03*
X255520000Y-107310000D03*
X252980000Y-107310000D03*
X250440000Y-107310000D03*
X247900000Y-107310000D03*
X245360000Y-107310000D03*
X242820000Y-107310000D03*
X242820000Y-104770000D03*
X242820000Y-102230000D03*
X242820000Y-99690000D03*
X242820000Y-97150000D03*
X242820000Y-94610000D03*
X242820000Y-92070000D03*
X242820000Y-89530000D03*
X242820000Y-86990000D03*
X245360000Y-109850000D03*
X245360000Y-104770000D03*
X245360000Y-102230000D03*
X245360000Y-99690000D03*
X245360000Y-97150000D03*
X245360000Y-94610000D03*
X245360000Y-92070000D03*
X245360000Y-89530000D03*
X245360000Y-86990000D03*
X245360000Y-84450000D03*
X247900000Y-84450000D03*
X250440000Y-84450000D03*
X252980000Y-84450000D03*
X255520000Y-84450000D03*
X258060000Y-84450000D03*
X260600000Y-84450000D03*
X263140000Y-84450000D03*
X265680000Y-84450000D03*
X247900000Y-86990000D03*
X250440000Y-86990000D03*
X252980000Y-86990000D03*
X255520000Y-86990000D03*
X258060000Y-86990000D03*
X260600000Y-86990000D03*
X263140000Y-86990000D03*
X265680000Y-86990000D03*
X268220000Y-104770000D03*
X268220000Y-102230000D03*
X268220000Y-99690000D03*
X268220000Y-86990000D03*
X268220000Y-89530000D03*
X268220000Y-92070000D03*
X268220000Y-94610000D03*
D26*
X268220000Y-97150000D03*
D25*
X265680000Y-107310000D03*
X265680000Y-104770000D03*
X265680000Y-102230000D03*
X265680000Y-99690000D03*
X265680000Y-89530000D03*
X265680000Y-92070000D03*
X265680000Y-94610000D03*
X265680000Y-97150000D03*
D27*
X262910000Y-118530000D03*
X265450000Y-118530000D03*
X267990000Y-118530000D03*
X270530000Y-118530000D03*
X273070000Y-118530000D03*
X265450000Y-121070000D03*
X267990000Y-121070000D03*
X270530000Y-121070000D03*
X275610000Y-121070000D03*
X275610000Y-123610000D03*
X275610000Y-126150000D03*
X275610000Y-128690000D03*
X273070000Y-121070000D03*
X273070000Y-123610000D03*
X273070000Y-126150000D03*
X273070000Y-128690000D03*
X273070000Y-131230000D03*
X270530000Y-131230000D03*
X267990000Y-131230000D03*
X265450000Y-131230000D03*
X262910000Y-131230000D03*
X270530000Y-128690000D03*
X267990000Y-128690000D03*
X265450000Y-128690000D03*
X262910000Y-128690000D03*
X260370000Y-121070000D03*
X260370000Y-123610000D03*
X260370000Y-128690000D03*
X260370000Y-126150000D03*
X262910000Y-118530000D03*
X262910000Y-121070000D03*
X262910000Y-126150000D03*
X262910000Y-123610000D03*
G36*
G01*
X296375001Y-97140000D02*
X299174999Y-97140000D01*
G75*
G02*
X299425000Y-97390001I0J-250001D01*
G01*
X299425000Y-99589999D01*
G75*
G02*
X299174999Y-99840000I-250001J0D01*
G01*
X296375001Y-99840000D01*
G75*
G02*
X296125000Y-99589999I0J250001D01*
G01*
X296125000Y-97390001D01*
G75*
G02*
X296375001Y-97140000I250001J0D01*
G01*
G37*
D28*
X297775000Y-102690000D03*
X297775000Y-106890000D03*
X297775000Y-111090000D03*
X297775000Y-115290000D03*
X297775000Y-119490000D03*
X297775000Y-123690000D03*
X297775000Y-127890000D03*
X297775000Y-132090000D03*
X297775000Y-136290000D03*
X297775000Y-140490000D03*
X297775000Y-144690000D03*
X292275000Y-98490000D03*
X292275000Y-102690000D03*
X292275000Y-106890000D03*
X292275000Y-111090000D03*
X292275000Y-115290000D03*
X292275000Y-119490000D03*
X292275000Y-123690000D03*
X292275000Y-127890000D03*
X292275000Y-132090000D03*
X292275000Y-136290000D03*
X292275000Y-140490000D03*
X292275000Y-144690000D03*
D29*
X171630000Y-50760000D03*
X164830000Y-50760000D03*
X164830000Y-48260000D03*
X171630000Y-48260000D03*
X169530000Y-48260000D03*
X166930000Y-48260000D03*
X187630000Y-50760000D03*
X180830000Y-50760000D03*
X180830000Y-48260000D03*
X187630000Y-48260000D03*
X185530000Y-48260000D03*
X182930000Y-48260000D03*
D30*
X247920000Y-55100000D03*
X245630000Y-55100000D03*
X236490000Y-55100000D03*
X234200000Y-55100000D03*
D16*
X232930000Y-49390000D03*
X249190000Y-49390000D03*
D31*
X247410000Y-45960000D03*
X234710000Y-45960000D03*
D30*
X244640000Y-50280000D03*
X242600000Y-50280000D03*
X240560000Y-50280000D03*
X238520000Y-50280000D03*
X243620000Y-48500000D03*
X241580000Y-48500000D03*
X239540000Y-48500000D03*
D32*
X237500000Y-48500000D03*
G36*
G01*
X238150000Y-58512500D02*
X238150000Y-58987500D01*
G75*
G02*
X237912500Y-59225000I-237500J0D01*
G01*
X237337500Y-59225000D01*
G75*
G02*
X237100000Y-58987500I0J237500D01*
G01*
X237100000Y-58512500D01*
G75*
G02*
X237337500Y-58275000I237500J0D01*
G01*
X237912500Y-58275000D01*
G75*
G02*
X238150000Y-58512500I0J-237500D01*
G01*
G37*
G36*
G01*
X239900000Y-58512500D02*
X239900000Y-58987500D01*
G75*
G02*
X239662500Y-59225000I-237500J0D01*
G01*
X239087500Y-59225000D01*
G75*
G02*
X238850000Y-58987500I0J237500D01*
G01*
X238850000Y-58512500D01*
G75*
G02*
X239087500Y-58275000I237500J0D01*
G01*
X239662500Y-58275000D01*
G75*
G02*
X239900000Y-58512500I0J-237500D01*
G01*
G37*
D33*
X207460000Y-56870000D03*
D34*
X159200000Y-72110000D03*
X204920000Y-56870000D03*
X161740000Y-72110000D03*
X202380000Y-56870000D03*
X164280000Y-72110000D03*
X199840000Y-56870000D03*
X166820000Y-72110000D03*
X197300000Y-56870000D03*
X169360000Y-72110000D03*
X194760000Y-56870000D03*
X171900000Y-72110000D03*
X192220000Y-56870000D03*
X174440000Y-72110000D03*
X189680000Y-56870000D03*
X176980000Y-72110000D03*
X187140000Y-56870000D03*
X179520000Y-72110000D03*
X184600000Y-56870000D03*
X182060000Y-72110000D03*
X182060000Y-56870000D03*
X184600000Y-72110000D03*
X179520000Y-56870000D03*
X187140000Y-72110000D03*
X176980000Y-56870000D03*
X189680000Y-72110000D03*
X174440000Y-56870000D03*
X192220000Y-72110000D03*
X171900000Y-56870000D03*
X194760000Y-72110000D03*
X169360000Y-56870000D03*
X197300000Y-72110000D03*
X166820000Y-56870000D03*
X199840000Y-72110000D03*
X164280000Y-56870000D03*
X202380000Y-72110000D03*
X161740000Y-56870000D03*
X204920000Y-72110000D03*
X159200000Y-56870000D03*
X207460000Y-72110000D03*
D23*
X222740000Y-53050000D03*
D22*
X215120000Y-53050000D03*
X215120000Y-45430000D03*
X222740000Y-45430000D03*
D35*
X284325000Y-133800000D03*
D36*
X284325000Y-136340000D03*
D37*
X165260000Y-193460000D03*
X165260000Y-196000000D03*
X162720000Y-193460000D03*
X162720000Y-196000000D03*
X160180000Y-193460000D03*
X160180000Y-196000000D03*
X157640000Y-193460000D03*
X157640000Y-196000000D03*
X155100000Y-193460000D03*
X155100000Y-196000000D03*
X152560000Y-193460000D03*
X152560000Y-196000000D03*
X150020000Y-193460000D03*
X150020000Y-196000000D03*
X147480000Y-193460000D03*
X147480000Y-196000000D03*
X144940000Y-193460000D03*
X144940000Y-196000000D03*
X142400000Y-193460000D03*
X142400000Y-196000000D03*
X139860000Y-193460000D03*
X139860000Y-196000000D03*
X137320000Y-193460000D03*
X137320000Y-196000000D03*
X134780000Y-193460000D03*
X134780000Y-196000000D03*
X132240000Y-193460000D03*
X132240000Y-196000000D03*
X129700000Y-193460000D03*
X129700000Y-196000000D03*
X127160000Y-193460000D03*
X127160000Y-196000000D03*
X124620000Y-193460000D03*
X124620000Y-196000000D03*
X122080000Y-193460000D03*
X122080000Y-196000000D03*
X119540000Y-193460000D03*
X119540000Y-196000000D03*
X117000000Y-193460000D03*
D38*
X117000000Y-196000000D03*
D37*
X96460000Y-153360000D03*
X99000000Y-153360000D03*
X96460000Y-155900000D03*
X99000000Y-155900000D03*
X96460000Y-158440000D03*
X99000000Y-158440000D03*
X96460000Y-160980000D03*
X99000000Y-160980000D03*
X96460000Y-163520000D03*
X99000000Y-163520000D03*
X96460000Y-166060000D03*
X99000000Y-166060000D03*
X96460000Y-168600000D03*
X99000000Y-168600000D03*
X96460000Y-171140000D03*
X99000000Y-171140000D03*
X96460000Y-173680000D03*
X99000000Y-173680000D03*
X96460000Y-176220000D03*
X99000000Y-176220000D03*
X96460000Y-178760000D03*
X99000000Y-178760000D03*
X96460000Y-181300000D03*
X99000000Y-181300000D03*
X96460000Y-183840000D03*
X99000000Y-183840000D03*
X96460000Y-186380000D03*
X99000000Y-186380000D03*
X96460000Y-188920000D03*
X99000000Y-188920000D03*
X96460000Y-191460000D03*
X99000000Y-191460000D03*
X96460000Y-194000000D03*
D38*
X99000000Y-194000000D03*
M02*
