M48
;DRILL file {KiCad 5.0.1-33cea8e~68~ubuntu18.04.1} date Sat 03 Nov 2018 11:21:16 PM EDT
;FORMAT={-:-/ absolute / inch / decimal}
FMAT,2
INCH,TZ
T1C0.0138
T2C0.0157
T3C0.0310
T4C0.0315
T5C0.0374
T6C0.0394
T7C0.0433
T8C0.0618
%
G90
G05
M72
T1
X1.9126Y-4.1815
X1.9634Y-3.902
X2.1256Y-4.7748
X2.2516Y-2.4492
X2.3189Y-1.9736
X2.3205Y-2.0555
X2.3437Y-1.9295
X2.3492Y-2.4909
X2.3748Y-1.9839
X2.3854Y-2.5126
X2.3929Y-2.5524
X2.3941Y-1.9201
X2.4059Y-2.3008
X2.4169Y-2.9382
X2.4323Y-2.5512
X2.4413Y-2.3335
X2.4469Y-1.9091
X2.4862Y-2.1205
X2.5079Y-2.9319
X2.5181Y-2.3823
X2.5299Y-2.3398
X2.5598Y-2.0335
X2.5673Y-2.4354
X2.5768Y-1.6469
X2.5858Y-1.9248
X2.5902Y-4.7736
X2.6004Y-2.6819
X2.6102Y-2.1386
X2.6126Y-2.1846
X2.6161Y-2.2374
X2.628Y-2.4051
X2.6429Y-2.6701
X2.6445Y-2.1594
X2.6531Y-2.2831
X2.6575Y-2.5886
X2.661Y-2.3524
X2.6717Y-2.2488
X2.6764Y-2.698
X2.6787Y-2.1488
X2.6862Y-1.339
X2.6984Y-2.5752
X2.7409Y-2.5654
X2.7681Y-2.4843
X2.785Y-2.5594
X2.8197Y-2.0724
X2.8819Y-2.1343
X2.9465Y-1.9295
X2.9614Y-3.0602
X3.0594Y-4.7736
X3.189Y-1.437
X3.189Y-1.8701
X3.1921Y-2.1264
X3.1937Y-2.5012
X3.1992Y-4.2591
X3.2024Y-3.2722
X3.2177Y-4.2012
X3.2524Y-4.137
X3.3012Y-3.211
X3.3098Y-3.263
X3.3307Y-2.9591
X3.3634Y-3.1965
X3.9394Y-1.2669
X3.9811Y-1.2394
X4.7933Y-3.3744
X4.8799Y-1.6004
X4.9396Y-3.8376
X4.9396Y-3.8876
X4.9396Y-3.9376
X4.9396Y-3.9876
X4.9396Y-4.0376
X4.9396Y-4.0876
X4.9396Y-4.1376
X4.9396Y-4.1876
X4.9736Y-3.1413
X4.976Y-4.2756
X5.0461Y-4.5362
X5.0555Y-3.1433
X5.0705Y-3.2799
X5.0898Y-2.9547
X5.1071Y-3.1417
X5.1122Y-3.0134
X5.1283Y-3.0823
X5.1626Y-2.8189
X5.1791Y-3.8004
X5.1799Y-4.238
X5.187Y-3.2531
X5.2012Y-3.1244
X5.202Y-2.8472
X5.2028Y-2.9222
X5.2118Y-2.9795
X5.2201Y-4.1372
X5.2205Y-3.8372
X5.2205Y-3.8872
X5.2209Y-4.0372
X5.222Y-4.0872
X5.2228Y-3.9872
X5.224Y-3.072
X5.2264Y-3.1724
X6.0909Y-3.7169
T2
X3.1764Y-4.4492
X3.1906Y-3.4224
X3.1913Y-4.387
X3.2031Y-4.5165
X3.2315Y-3.4732
X3.2504Y-3.3134
X3.2657Y-4.274
X3.2736Y-4.3886
X3.274Y-3.4236
X3.3126Y-3.5209
X3.3516Y-4.352
X3.3854Y-3.3642
X3.3882Y-4.487
X3.3886Y-3.5224
X3.4232Y-3.4736
X3.4248Y-4.437
X3.4449Y-2.7752
X3.4591Y-4.537
X3.4634Y-3.5732
X3.5461Y-3.7449
X3.7646Y-3.4228
X3.7657Y-4.3854
X3.802Y-4.4362
X3.8031Y-3.4728
X3.8354Y-3.3642
X3.837Y-4.3563
X3.876Y-3.4421
X3.8783Y-4.4307
X3.9193Y-4.4874
X3.9201Y-3.5228
X3.9697Y-3.3398
X3.9701Y-3.4732
X3.9701Y-4.4378
X3.9992Y-4.3083
X4.0055Y-3.5228
X4.0079Y-4.4878
X4.0354Y-2.7752
X4.0437Y-4.537
X4.0449Y-3.5728
X4.1378Y-3.7449
X4.1429Y-1.898
X4.213Y-1.9236
X4.3583Y-4.4882
X4.3669Y-3.322
X4.3752Y-4.2894
X4.3972Y-3.5673
X4.4272Y-3.4618
X4.4366Y-4.35
X4.4476Y-4.5161
X4.4614Y-4.4244
X4.4634Y-3.3878
X4.4736Y-3.5488
X4.513Y-3.5102
X4.5142Y-4.5209
X4.5591Y-4.4382
X4.5602Y-3.4732
X4.5941Y-4.3043
X4.5965Y-4.4878
X4.5972Y-3.5228
X4.6138Y-3.3382
X4.626Y-2.7752
X4.6327Y-4.5378
X4.6335Y-3.5724
X4.728Y-3.7449
X4.9669Y-4.3354
X4.9677Y-3.389
X4.9988Y-4.3862
X4.9992Y-3.4913
X5.0535Y-3.5276
X5.0551Y-3.4787
X5.087Y-4.437
X5.1079Y-3.3059
X5.1154Y-3.5657
X5.1173Y-4.3846
X5.1264Y-3.4913
X5.1516Y-4.489
X5.1894Y-3.3693
X5.1937Y-4.3374
X5.2004Y-3.4472
X5.2165Y-2.7756
X5.2323Y-4.4382
X5.2335Y-4.278
T3
X3.4398Y-1.3551
X3.4398Y-1.4551
X3.4398Y-1.5551
X3.4398Y-1.6551
X3.4398Y-1.7551
X3.4398Y-1.8551
X3.4398Y-1.9551
X3.4398Y-2.0551
X3.4398Y-2.1551
X3.4398Y-2.2551
X3.4398Y-2.3551
X3.4398Y-2.4551
X3.4398Y-2.5551
X3.5398Y-1.3551
X3.5398Y-1.4551
X3.5398Y-1.5551
X3.5398Y-1.6551
X3.5398Y-1.7551
X3.5398Y-1.8551
X3.5398Y-1.9551
X3.5398Y-2.0551
X3.5398Y-2.1551
X3.5398Y-2.2551
X3.5398Y-2.3551
X3.5398Y-2.4551
X3.5398Y-2.5551
X3.6398Y-1.3551
X3.6398Y-1.4551
X3.6398Y-1.5551
X3.6398Y-1.6551
X3.6398Y-1.7551
X3.6398Y-1.8551
X3.6398Y-1.9551
X3.6398Y-2.0551
X3.6398Y-2.1551
X3.6398Y-2.2551
X3.6398Y-2.3551
X3.6398Y-2.4551
X3.6398Y-2.5551
X3.7398Y-1.3551
X3.7398Y-1.4551
X3.7398Y-1.5551
X3.7398Y-1.6551
X3.7398Y-1.8551
X3.7398Y-2.2551
X3.7398Y-2.3551
X3.7398Y-2.4551
X3.7398Y-2.5551
X3.8398Y-1.3551
X3.8398Y-1.4551
X3.8398Y-1.5551
X3.8398Y-1.6551
X3.8398Y-2.2551
X3.8398Y-2.3551
X3.8398Y-2.4551
X3.8398Y-2.5551
X3.9398Y-1.3551
X3.9398Y-1.4551
X3.9398Y-1.5551
X3.9398Y-2.3551
X3.9398Y-2.4551
X3.9398Y-2.5551
X4.0398Y-1.3551
X4.0398Y-1.4551
X4.0398Y-1.5551
X4.0398Y-2.3551
X4.0398Y-2.4551
X4.0398Y-2.5551
X4.1398Y-1.3551
X4.1398Y-1.4551
X4.1398Y-1.5551
X4.1398Y-2.3551
X4.1398Y-2.4551
X4.1398Y-2.5551
X4.2398Y-1.3551
X4.2398Y-1.4551
X4.2398Y-1.5551
X4.2398Y-2.3551
X4.2398Y-2.4551
X4.2398Y-2.5551
X4.3398Y-1.3551
X4.3398Y-1.4551
X4.3398Y-1.5551
X4.3398Y-1.6551
X4.3398Y-1.8551
X4.3398Y-2.2551
X4.3398Y-2.3551
X4.3398Y-2.4551
X4.3398Y-2.5551
X4.4398Y-1.3551
X4.4398Y-1.4551
X4.4398Y-1.5551
X4.4398Y-1.6551
X4.4398Y-1.7551
X4.4398Y-1.8551
X4.4398Y-1.9551
X4.4398Y-2.0551
X4.4398Y-2.1551
X4.4398Y-2.2551
X4.4398Y-2.3551
X4.4398Y-2.4551
X4.4398Y-2.5551
X4.5398Y-1.3551
X4.5398Y-1.4551
X4.5398Y-1.5551
X4.5398Y-1.6551
X4.5398Y-1.7551
X4.5398Y-1.8551
X4.5398Y-1.9551
X4.5398Y-2.0551
X4.5398Y-2.1551
X4.5398Y-2.2551
X4.5398Y-2.3551
X4.5398Y-2.4551
X4.5398Y-2.5551
X4.6398Y-1.3551
X4.6398Y-1.4551
X4.6398Y-1.5551
X4.6398Y-1.6551
X4.6398Y-1.7551
X4.6398Y-1.8551
X4.6398Y-1.9551
X4.6398Y-2.0551
X4.6398Y-2.1551
X4.6398Y-2.2551
X4.6398Y-2.3551
X4.6398Y-2.4551
X4.6398Y-2.5551
T4
X5.6827Y-3.9567
X5.6827Y-4.0567
X5.6827Y-4.1567
X5.6827Y-4.2567
X5.6827Y-4.3567
X5.6827Y-4.4567
X5.7827Y-3.8567
X5.7827Y-3.9567
X5.7827Y-4.0567
X5.7827Y-4.1567
X5.7827Y-4.2567
X5.7827Y-4.3567
X5.7827Y-4.4567
X5.7827Y-4.5567
X5.8827Y-3.8567
X5.8827Y-3.9567
X5.8827Y-4.4567
X5.8827Y-4.5567
X5.9827Y-3.8567
X5.9827Y-3.9567
X5.9827Y-4.4567
X5.9827Y-4.5567
X6.0827Y-3.8567
X6.0827Y-3.9567
X6.0827Y-4.4567
X6.0827Y-4.5567
X6.1827Y-3.8567
X6.1827Y-3.9567
X6.1827Y-4.4567
X6.1827Y-4.5567
X6.2827Y-3.8567
X6.2827Y-3.9567
X6.2827Y-4.0567
X6.2827Y-4.1567
X6.2827Y-4.2567
X6.2827Y-4.3567
X6.2827Y-4.4567
X6.2827Y-4.5567
X6.3827Y-3.9567
X6.3827Y-4.0567
X6.3827Y-4.1567
X6.3827Y-4.2567
X6.3827Y-4.3567
X6.3827Y-4.4567
X4.9854Y-1.5504
X4.9854Y-1.6504
X4.9854Y-1.7504
X4.9854Y-1.8504
X4.9854Y-1.9504
X4.9854Y-2.0504
X4.9854Y-2.1504
X4.9854Y-2.2504
X4.9854Y-2.3504
X5.0854Y-1.4504
X5.0854Y-1.5504
X5.0854Y-1.6504
X5.0854Y-1.7504
X5.0854Y-1.8504
X5.0854Y-1.9504
X5.0854Y-2.0504
X5.0854Y-2.1504
X5.0854Y-2.2504
X5.0854Y-2.3504
X5.0854Y-2.4504
X5.1854Y-1.4504
X5.1854Y-1.5504
X5.1854Y-2.3504
X5.1854Y-2.4504
X5.2854Y-1.4504
X5.2854Y-1.5504
X5.2854Y-2.3504
X5.2854Y-2.4504
X5.3854Y-1.4504
X5.3854Y-1.5504
X5.3854Y-2.3504
X5.3854Y-2.4504
X5.4854Y-1.4504
X5.4854Y-1.5504
X5.4854Y-2.3504
X5.4854Y-2.4504
X5.5854Y-1.4504
X5.5854Y-1.5504
X5.5854Y-2.3504
X5.5854Y-2.4504
X5.6854Y-1.4504
X5.6854Y-1.5504
X5.6854Y-2.3504
X5.6854Y-2.4504
X5.7854Y-1.4504
X5.7854Y-1.5504
X5.7854Y-2.3504
X5.7854Y-2.4504
X5.8854Y-1.4504
X5.8854Y-1.5504
X5.8854Y-1.6504
X5.8854Y-1.7504
X5.8854Y-1.8504
X5.8854Y-1.9504
X5.8854Y-2.0504
X5.8854Y-2.1504
X5.8854Y-2.2504
X5.8854Y-2.3504
X5.8854Y-2.4504
X5.9854Y-1.5504
X5.9854Y-1.6504
X5.9854Y-1.7504
X5.9854Y-1.8504
X5.9854Y-1.9504
X5.9854Y-2.0504
X5.9854Y-2.1504
X5.9854Y-2.2504
X5.9854Y-2.3504
X5.8465Y-3.563
X6.0386Y-3.563
T5
X5.6764Y-2.8921
X5.6764Y-2.9921
X5.6764Y-3.0921
X5.6764Y-3.1921
X5.7764Y-2.7921
X5.7764Y-2.7921
X5.7764Y-2.8921
X5.7764Y-2.9921
X5.7764Y-3.0921
X5.7764Y-3.1921
X5.7764Y-3.2921
X5.8764Y-2.7921
X5.8764Y-2.8921
X5.8764Y-3.1921
X5.8764Y-3.2921
X5.9764Y-2.7921
X5.9764Y-2.8921
X5.9764Y-3.1921
X5.9764Y-3.2921
X6.0764Y-2.7921
X6.0764Y-2.8921
X6.0764Y-3.1921
X6.0764Y-3.2921
X6.1764Y-2.7921
X6.1764Y-2.8921
X6.1764Y-2.9921
X6.1764Y-3.0921
X6.1764Y-3.1921
X6.1764Y-3.2921
X6.2764Y-2.8921
X6.2764Y-2.9921
X6.2764Y-3.0921
X6.2764Y-3.1921
T6
X2.3228Y-1.7717
X2.4228Y-1.7717
X2.5228Y-1.7717
X2.6228Y-1.7717
X2.7228Y-1.7717
X2.8228Y-1.7717
X6.6535Y-3.9063
X6.6535Y-4.0063
X6.6535Y-4.1063
X6.6535Y-4.2063
X6.6535Y-4.3063
X6.6535Y-4.4063
X6.6535Y-4.5063
X6.6535Y-4.6063
X6.7535Y-3.9063
X6.7535Y-4.0063
X6.7535Y-4.1063
X6.7535Y-4.2063
X6.7535Y-4.3063
X6.7535Y-4.4063
X6.7535Y-4.5063
X6.7535Y-4.6063
X1.5764Y-1.4224
X1.5764Y-1.5224
X1.5764Y-1.6224
X1.5764Y-1.7224
X1.5764Y-1.8224
X1.5764Y-1.9224
X1.5764Y-2.0224
X1.5764Y-2.1224
X1.5764Y-2.2224
X1.5764Y-2.3224
X1.5764Y-2.4224
X1.5764Y-2.5224
X1.5764Y-2.6224
X1.5764Y-2.7224
X1.5764Y-2.8224
X1.5764Y-2.9224
X1.5764Y-3.0224
X1.5764Y-3.1224
X1.5764Y-3.2224
X1.5764Y-3.3224
X1.5764Y-3.4224
X1.5764Y-3.5224
X1.5764Y-3.6224
X1.5764Y-3.7224
X1.5764Y-3.8224
X1.5764Y-3.9224
X1.5764Y-4.0224
X1.5764Y-4.1224
X1.5764Y-4.2224
X1.5764Y-4.3224
X1.5764Y-4.4224
X1.5764Y-4.5224
X1.6764Y-1.4224
X1.6764Y-1.5224
X1.6764Y-1.6224
X1.6764Y-1.7224
X1.6764Y-1.8224
X1.6764Y-1.9224
X1.6764Y-2.0224
X1.6764Y-2.1224
X1.6764Y-2.2224
X1.6764Y-2.3224
X1.6764Y-2.4224
X1.6764Y-2.5224
X1.6764Y-2.6224
X1.6764Y-2.7224
X1.6764Y-2.8224
X1.6764Y-2.9224
X1.6764Y-3.0224
X1.6764Y-3.1224
X1.6764Y-3.2224
X1.6764Y-3.3224
X1.6764Y-3.4224
X1.6764Y-3.5224
X1.6764Y-3.6224
X1.6764Y-3.7224
X1.6764Y-3.8224
X1.6764Y-3.9224
X1.6764Y-4.0224
X1.6764Y-4.1224
X1.6764Y-4.2224
X1.6764Y-4.3224
X1.6764Y-4.4224
X1.6764Y-4.5224
X1.7764Y-1.4224
X1.7764Y-1.5224
X1.7764Y-1.6224
X1.7764Y-1.7224
X1.7764Y-1.8224
X1.7764Y-1.9224
X1.7764Y-2.0224
X1.7764Y-2.1224
X1.7764Y-2.2224
X1.7764Y-2.3224
X1.7764Y-2.4224
X1.7764Y-2.5224
X1.7764Y-2.6224
X1.7764Y-2.7224
X1.7764Y-2.8224
X1.7764Y-2.9224
X1.7764Y-3.0224
X1.7764Y-3.1224
X1.7764Y-3.2224
X1.7764Y-3.3224
X1.7764Y-3.4224
X1.7764Y-3.5224
X1.7764Y-3.6224
X1.7764Y-3.7224
X1.7764Y-3.8224
X1.7764Y-3.9224
X1.7764Y-4.0224
X1.7764Y-4.1224
X1.7764Y-4.2224
X1.7764Y-4.3224
X1.7764Y-4.4224
X1.7764Y-4.5224
X6.5551Y-3.522
X6.5551Y-3.622
X6.6551Y-3.522
X6.6551Y-3.622
X6.7551Y-3.522
X6.7551Y-3.622
T7
X2.1063Y-1.2598
X2.1063Y-1.437
X2.3622Y-1.2598
X2.3622Y-1.437
T8
X6.6437Y-1.3386
X6.6437Y-1.4945
X6.6437Y-1.6504
X6.6437Y-1.8063
X6.6437Y-1.9622
X6.6437Y-2.1181
X6.6437Y-2.5
X6.6437Y-2.6559
X6.6437Y-2.8118
X6.6437Y-2.9677
X6.6437Y-3.1236
X6.6437Y-3.2795
T0
M30
