M48
; DRILL file {KiCad (5.99.0-9466-g7fda7438f9)} date Fri Mar 26 21:04:02 2021
; FORMAT={-:-/ absolute / inch / decimal}
; #@! TF.CreationDate,2021-03-26T21:04:02-04:00
; #@! TF.GenerationSoftware,Kicad,Pcbnew,(5.99.0-9466-g7fda7438f9)
; #@! TF.FileFunction,Plated,1,4,PTH
FMAT,2
INCH
T1C0.0138
T2C0.0157
T3C0.0236
T4C0.0300
T5C0.0310
T6C0.0315
T7C0.0354
T8C0.0374
T9C0.0394
T10C0.0400
T11C0.0433
T12C0.0472
T13C0.0551
T14C0.1535
%
G90
G05
T1
X3.9872Y-6.94
X4.2811Y-5.9728
X4.5846Y-6.7795
X4.6043Y-6.8169
X4.7338Y-6.5261
X4.7913Y-6.5935
X4.8396Y-6.1506
X4.9106Y-6.4087
X4.9331Y-6.9961
X4.9518Y-6.7559
X5.0128Y-6.9242
X5.0256Y-6.875
X5.0266Y-7.0217
X5.1835Y-6.6043
X5.2018Y-6.374
X5.2205Y-6.639
X5.2543Y-6.6713
X5.2961Y-6.7031
X5.3287Y-6.7378
X5.3709Y-6.7713
X5.4031Y-6.8079
X5.4163Y-6.2943
X5.4734Y-6.1801
X5.5346Y-6.8299
X5.5547Y-3.9177
X5.5701Y-3.7165
X5.5709Y-5.8858
X5.5764Y-3.8169
X5.6531Y-6.0102
X5.7878Y-7.165
X5.7982Y-6.1545
X5.8075Y-6.9161
X5.813Y-6.0728
X5.8197Y-5.9043
X5.8445Y-5.9803
X5.8839Y-6.1358
X5.8972Y-6.6189
X5.9283Y-7.9638
X6.0197Y-6.1732
X6.0567Y-6.3106
X6.0579Y-6.3598
X6.0579Y-6.4098
X6.0579Y-6.5598
X6.0579Y-6.6098
X6.0579Y-6.6598
X6.0587Y-6.4579
X6.0594Y-6.7083
X6.0598Y-6.5083
X6.0598Y-6.7598
X6.0602Y-2.311
X6.098Y-2.2803
X6.1228Y-6.8083
X6.126Y-2.6614
X6.2402Y-5.2756
X6.2638Y-5.8071
X6.3327Y-5.7402
X6.3618Y-6.7602
X6.376Y-4.1201
X6.378Y-3.2382
X6.3953Y-6.1575
X6.3972Y-6.3104
X6.4331Y-3.7638
X6.4449Y-4.2224
X6.4705Y-4.7008
X6.4827Y-6.8898
X6.5207Y-5.5561
X6.5669Y-3.6043
X6.5858Y-7.3504
X6.6358Y-4.3012
X6.6368Y-5.1506
X6.7126Y-5.748
X6.7205Y-3.8701
X6.7362Y-4.2417
X6.739Y-6.9
X6.752Y-3.8366
X6.7728Y-4.1587
X6.7736Y-4.3287
X6.9006Y-3.9311
X6.9106Y-4.4059
X6.9114Y-4.3189
X6.9262Y-3.8711
X6.9498Y-4.3327
X6.9567Y-3.7953
X6.9673Y-4.4268
X6.9835Y-4.0646
X6.9882Y-3.8268
X7.0079Y-3.7657
X7.0079Y-4.1051
X7.0256Y-3.7047
X7.0567Y-4.0358
X7.0579Y-4.1437
X7.0598Y-3.9587
X7.0606Y-3.9949
X7.1024Y-4.2421
X7.1083Y-3.8238
X7.1093Y-4.4144
X7.1368Y-3.878
X7.1388Y-4.3327
X7.1407Y-3.9173
X7.1427Y-3.9616
X7.1506Y-4.2116
X7.1732Y-4.8492
X7.1732Y-4.8992
X7.174Y-4.7496
X7.174Y-4.8
X7.1811Y-4.4508
X7.1846Y-4.013
X7.187Y-3.9787
X7.187Y-4.0591
X7.1941Y-3.9425
X7.2264Y-4.0394
X7.2293Y-4.4557
X7.2606Y-3.2134
X7.2608Y-4.2047
X7.2766Y-4.1496
X7.311Y-4.3573
X7.3159Y-4.4183
X7.3465Y-5.6201
X7.3494Y-4.9439
X7.3594Y-4.4339
X7.3789Y-5.5719
X7.4065Y-3.9301
X7.4961Y-3.8248
X7.497Y-4.0266
X7.5173Y-3.2173
X7.5197Y-3.9026
X7.5311Y-4.9374
X7.5404Y-6.1634
X7.5502Y-6.3642
X7.5551Y-6.4104
X7.564Y-6.3012
X7.5659Y-6.0384
X7.5709Y-3.4921
X7.5925Y-3.2008
X7.6644Y-2.0551
X7.7293Y-5.4665
X7.7382Y-4.1348
X7.752Y-5.787
X7.7569Y-5.5256
X7.7598Y-6.7293
X7.7598Y-6.7894
X7.7634Y-3.3114
X7.7634Y-3.7445
X7.7681Y-4.3756
X7.7736Y-6.1335
X7.7768Y-5.1467
X7.7776Y-1.7844
X7.7864Y-6.8484
X7.7864Y-6.9094
X7.7921Y-6.0756
X7.7943Y-6.7589
X7.8268Y-6.0114
X7.8268Y-6.935
X7.8278Y-6.8789
X7.8287Y-6.8189
X7.8374Y-6.0539
X7.8409Y-3.2524
X7.8445Y-4.0295
X7.8671Y-6.3583
X7.8756Y-5.0854
X7.8819Y-4.8378
X7.8843Y-5.1374
X7.8986Y-1.9341
X7.9016Y-4.5906
X7.9323Y-1.9636
X7.9378Y-5.0709
X7.9537Y-1.997
X8.0378Y-1.9925
X8.0384Y-6.4951
X8.061Y-6.5344
X8.0778Y-1.9931
X8.0866Y-6.5699
X8.1295Y-6.5933
X8.1398Y-2.7165
X8.1791Y-2.7165
X8.2185Y-2.7165
X8.248Y-2.7953
X8.248Y-6.4636
X8.2874Y-2.7953
X8.3051Y-1.8209
X8.311Y-2.0551
X8.3248Y-2.3593
X8.3268Y-2.7953
X8.3317Y-5.4478
X8.3671Y-2.3652
X8.3957Y-2.9616
X8.435Y-3.1398
X8.4365Y-3.0025
X8.4646Y-3.1693
X8.4749Y-3.0408
X8.4931Y-4.5915
X8.5512Y-7.2096
X8.5606Y-6.5354
X8.5768Y-1.7087
X8.7313Y-7.2175
X8.7992Y-7.061
X8.8199Y-3.7894
X8.8425Y-5.5059
X8.8681Y-6.9902
X8.9138Y-6.474
X8.9163Y-6.9783
X8.9205Y-6.4118
X8.9264Y-6.2406
X8.9409Y-4.0315
X8.9409Y-6.1772
X8.9496Y-6.4874
X8.9508Y-5.1683
X8.9734Y-5.0276
X8.9839Y-6.2945
X8.9846Y-6.1421
X9.0069Y-5.0098
X9.0315Y-6.2035
X9.0563Y-6.587
X9.0827Y-4.5915
X9.247Y-6.9085
X9.2972Y-5.5148
X9.3091Y-6.9577
X9.3514Y-6.938
X9.3677Y-5.2488
X9.4004Y-6.4728
X9.4045Y-6.9321
X9.4213Y-3.8087
X9.4469Y-3.3118
X9.4469Y-3.365
X9.514Y-5.712
X9.514Y-5.762
X9.514Y-5.812
X9.514Y-5.862
X9.514Y-5.912
X9.514Y-5.962
X9.514Y-6.012
X9.5252Y-6.2122
X9.5327Y-6.1209
X9.548Y-5.0157
X9.5736Y-6.5028
X9.6299Y-5.0177
X9.6449Y-5.1543
X9.6642Y-4.8291
X9.6713Y-4.5906
X9.6815Y-5.0161
X9.6866Y-4.8878
X9.7028Y-4.9567
X9.7094Y-3.3469
X9.7303Y-2.9134
X9.737Y-4.6933
X9.7512Y-3.7124
X9.7535Y-5.6748
X9.7543Y-6.1124
X9.7614Y-5.1276
X9.7756Y-4.9988
X9.7764Y-4.7217
X9.7772Y-4.7967
X9.7862Y-4.8539
X9.7945Y-6.0116
X9.7949Y-5.7116
X9.7949Y-5.7616
X9.7953Y-5.9116
X9.7965Y-5.9616
X9.7972Y-5.8616
X9.7984Y-4.9465
X9.8008Y-5.0469
X9.8941Y-3.9402
X9.9339Y-5.511
X9.9386Y-5.5594
X9.9488Y-6.6051
X9.9705Y-5.2963
X9.9815Y-6.3594
X10.0004Y-6.6307
X10.0394Y-4.6701
X10.0463Y-7.0069
X10.0477Y-6.9601
X10.0496Y-4.5366
X10.0681Y-4.6465
X10.0772Y-4.4579
X10.0894Y-4.6047
X10.0935Y-7.0522
X10.094Y-7.0054
X10.1319Y-3.0197
X10.1457Y-5.3228
X10.1644Y-3.064
X10.1929Y-3.1122
X10.1959Y-3.0364
X10.224Y-4.5157
X10.2299Y-4.4705
X10.2362Y-3.1161
X10.2539Y-3.0669
X10.2579Y-2.9124
X10.2648Y-2.8642
X10.2791Y-4.5354
X10.2963Y-3.1211
X10.3248Y-2.9587
X10.3248Y-3.0591
X10.3268Y-6.1594
X10.3484Y-6.1319
X10.372Y-5.9941
X10.3957Y-6.8583
X10.4114Y-6.061
X10.4528Y-6.0591
X10.5591Y-6.2992
X10.56Y-5.3287
X10.5886Y-3.0886
X10.6043Y-6.0197
X10.6053Y-5.3287
X10.6299Y-6.0472
X10.6476Y-5.3287
X10.69Y-5.3278
X10.7421Y-5.7677
X10.7815Y-5.7697
X10.8366Y-6.4429
X10.8484Y-2.7343
X10.8533Y-5.6693
X10.8634Y-5.4126
X10.9341Y-2.6663
X10.937Y-2.4724
X11.0453Y-2.9386
X11.0541Y-6.7648
X11.0915Y-2.564
X11.139Y-2.7264
X11.1398Y-2.4094
X11.2037Y-2.5384
X11.2539Y-2.624
X11.2594Y-3.1567
X11.2894Y-2.624
X11.3809Y-3.2598
X11.4656Y-3.6073
X11.4754Y-3.501
X11.4902Y-3.1732
X11.4941Y-3.3465
X11.5039Y-3.5335
X11.5384Y-3.5089
X11.5413Y-3.4094
X11.6909Y-2.311
X11.81Y-3.5571
T2
X4.8177Y-7.415
X4.8669Y-7.3657
X5.662Y-6.8081
X6.5732Y-6.3102
X6.7923Y-3.8022
X6.8106Y-3.2232
X6.8307Y-3.9833
X6.8382Y-4.6992
X6.8632Y-3.9518
X6.9886Y-5.3685
X6.9909Y-5.9598
X7.0831Y-4.5138
X7.1358Y-4.5571
X7.1835Y-4.6094
X7.2953Y-3.7835
X7.3697Y-5.3685
X7.4262Y-3.9715
X7.4563Y-5.902
X7.5374Y-2.6358
X7.7508Y-6.3236
X7.765Y-5.2969
X7.7657Y-6.2614
X7.7776Y-6.3909
X7.7923Y-2.6211
X7.8059Y-5.3476
X7.8248Y-5.1878
X7.8402Y-6.1484
X7.848Y-6.263
X7.8484Y-5.298
X7.887Y-5.3953
X7.926Y-6.2264
X7.9598Y-5.2386
X7.9626Y-6.3614
X7.963Y-5.3969
X7.9976Y-5.348
X7.9992Y-6.3114
X8.0193Y-4.6496
X8.0335Y-6.4114
X8.0378Y-5.4476
X8.1169Y-6.9555
X8.1205Y-5.6193
X8.2031Y-7.0713
X8.2295Y-6.9583
X8.2776Y-6.8209
X8.339Y-5.2972
X8.3409Y-6.2618
X8.3465Y-6.9193
X8.3764Y-6.3106
X8.3776Y-5.3472
X8.3858Y-6.6831
X8.4055Y-6.7913
X8.4098Y-5.2386
X8.4114Y-6.2307
X8.4504Y-5.3165
X8.4528Y-6.3051
X8.4937Y-6.3618
X8.4945Y-5.3972
X8.5433Y-6.7323
X8.5441Y-5.2142
X8.5445Y-5.3476
X8.5445Y-6.3122
X8.5736Y-6.1827
X8.5799Y-5.3972
X8.5823Y-6.3622
X8.6098Y-4.6496
X8.6181Y-6.4114
X8.6193Y-5.4472
X8.7122Y-5.6193
X8.9327Y-6.3626
X8.9469Y-5.2274
X8.9717Y-5.4417
X9.0016Y-5.3362
X9.022Y-6.3906
X9.0378Y-5.2622
X9.048Y-5.4232
X9.0874Y-5.3846
X9.0886Y-6.3953
X9.1335Y-6.3126
X9.1346Y-5.3476
X9.1685Y-6.1787
X9.1709Y-6.3622
X9.1717Y-5.3972
X9.1882Y-5.2126
X9.2004Y-4.6496
X9.2071Y-6.4122
X9.2079Y-5.4469
X9.3024Y-5.6193
X9.3996Y-6.6831
X9.5079Y-6.6831
X9.5189Y-6.4213
X9.5421Y-5.2634
X9.5732Y-6.2606
X9.5736Y-5.3657
X9.5807Y-6.1839
X9.6063Y-6.7028
X9.628Y-5.402
X9.628Y-6.3717
X9.6295Y-5.3531
X9.6486Y-3.0413
X9.6563Y-6.6535
X9.6614Y-6.3114
X9.6823Y-5.1803
X9.6898Y-5.4402
X9.6917Y-6.2591
X9.7008Y-5.3657
X9.726Y-6.3634
X9.7638Y-5.2437
X9.7681Y-6.2118
X9.7748Y-5.3217
X9.8067Y-6.3126
X9.8079Y-6.1524
X10.0382Y-6.2138
X10.0689Y-6.6634
X10.1067Y-6.2756
X10.128Y-6.7028
X10.1713Y-5.9862
X10.4252Y-6.815
X10.4587Y-5.9961
X10.4921Y-6.8346
X10.4961Y-6.7835
X10.502Y-6.5157
X10.502Y-6.5748
X10.5591Y-6.7992
X10.6004Y-6.4173
X10.628Y-6.7461
X10.6394Y-5.5559
X10.6693Y-6.7264
X10.7185Y-6.7185
X10.7189Y-5.5559
X10.7894Y-6.4606
X10.8543Y-5.937
X10.8701Y-6.6171
X10.8898Y-6.1417
X10.8947Y-6.5748
X10.9203Y-6.9439
X10.935Y-3.1201
X10.9419Y-6.5512
X10.9469Y-6.9774
X10.9646Y-3.8858
X10.9669Y-5.3413
X10.9669Y-5.4323
X11.0236Y-3.8268
X11.0319Y-6.5031
X11.0433Y-3.2677
X11.0508Y-6.3681
X11.0531Y-6.189
X11.0657Y-6.4563
X11.0744Y-6.498
X11.111Y-6.4346
X11.1535Y-3.7008
X11.1614Y-3.8858
X11.1752Y-6.6161
X11.1799Y-6.4031
X11.1949Y-6.5768
X11.2087Y-6.6516
X11.2126Y-3.6417
X11.2205Y-3.8268
X11.2421Y-6.5276
X11.2441Y-6.9291
X11.2559Y-5.9449
X11.2854Y-6.4764
X11.3327Y-6.5079
X11.4055Y-6.3189
X11.4823Y-6.5118
X11.4921Y-6.6063
T3
X11.6634Y-7.6472
X11.6634Y-7.7472
X11.6634Y-7.8472
X11.8634Y-7.6472
X11.8634Y-7.8472
T4
X7.2993Y-7.5089
X7.2993Y-7.8928
X7.3493Y-7.6089
X7.3493Y-7.9928
X7.3993Y-7.5089
X7.3993Y-7.8928
X7.4493Y-7.6089
X7.4493Y-7.9928
X7.4993Y-7.5089
X7.4993Y-7.8928
X7.5493Y-7.6089
X7.5493Y-7.9928
X7.5993Y-7.5089
X7.5993Y-7.8928
X7.6493Y-7.6089
X7.6493Y-7.9928
X7.6993Y-7.5089
X7.6993Y-7.8928
X7.7493Y-7.6089
X7.7493Y-7.9928
X7.7993Y-7.5089
X7.7993Y-7.8928
X7.8493Y-7.6089
X7.8493Y-7.9928
X7.8993Y-7.5089
X7.8993Y-7.8928
X7.9493Y-7.6089
X7.9493Y-7.9928
X7.9993Y-7.5089
X7.9993Y-7.8928
X8.0493Y-7.6089
X8.0493Y-7.9928
X8.0993Y-7.5089
X8.0993Y-7.8928
X8.1493Y-7.6089
X8.1493Y-7.9928
X8.1993Y-7.5089
X8.1993Y-7.8928
X8.2493Y-7.6089
X8.2493Y-7.9928
X8.2993Y-7.5089
X8.2993Y-7.8928
X8.3493Y-7.6089
X8.3493Y-7.9928
X8.3993Y-7.5089
X8.3993Y-7.8928
X8.4493Y-7.6089
X8.4493Y-7.9928
X8.4993Y-7.5089
X8.4993Y-7.8928
X8.5493Y-7.6089
X8.5493Y-7.9928
X8.5993Y-7.5089
X8.5993Y-7.8928
X8.6493Y-7.6089
X8.6493Y-7.9928
X8.6993Y-7.5089
X8.6993Y-7.8928
X8.7493Y-7.6089
X8.7493Y-7.9928
X8.7993Y-7.5089
X8.7993Y-7.8928
X8.8493Y-7.6089
X8.8493Y-7.9928
X8.8993Y-7.5089
X8.8993Y-7.8928
X8.9493Y-7.6089
X8.9493Y-7.9928
X8.9993Y-7.5089
X8.9993Y-7.8928
X9.0493Y-7.6089
X9.0493Y-7.9928
X9.2993Y-7.5089
X9.2993Y-7.8928
X9.3493Y-7.6089
X9.3493Y-7.9928
X9.3993Y-7.5089
X9.3993Y-7.8928
X9.4493Y-7.6089
X9.4493Y-7.9928
X9.4993Y-7.5089
X9.4993Y-7.8928
X9.5493Y-7.6089
X9.5493Y-7.9928
X9.5993Y-7.5089
X9.5993Y-7.8928
X9.6493Y-7.6089
X9.6493Y-7.9928
X9.6993Y-7.5089
X9.6993Y-7.8928
X9.7493Y-7.6089
X9.7493Y-7.9928
X9.7993Y-7.5089
X9.7993Y-7.8928
X9.8493Y-7.6089
X9.8493Y-7.9928
X9.8993Y-7.5089
X9.8993Y-7.8928
X9.9493Y-7.6089
X9.9493Y-7.9928
X9.9993Y-7.5089
X9.9993Y-7.8928
X10.0493Y-7.6089
X10.0493Y-7.9928
X10.0993Y-7.5089
X10.0993Y-7.8928
X10.1493Y-7.6089
X10.1493Y-7.9928
X10.1993Y-7.5089
X10.1993Y-7.8928
X10.2493Y-7.6089
X10.2493Y-7.9928
X10.2993Y-7.5089
X10.2993Y-7.8928
X10.3493Y-7.6089
X10.3493Y-7.9928
X10.3993Y-7.5089
X10.3993Y-7.8928
X10.4493Y-7.6089
X10.4493Y-7.9928
X10.4993Y-7.5089
X10.4993Y-7.8928
X10.5493Y-7.6089
X10.5493Y-7.9928
X10.5993Y-7.5089
X10.5993Y-7.8928
X10.6493Y-7.6089
X10.6493Y-7.9928
X10.6993Y-7.5089
X10.6993Y-7.8928
X10.7493Y-7.6089
X10.7493Y-7.9928
X10.7993Y-7.5089
X10.7993Y-7.8928
X10.8493Y-7.6089
X10.8493Y-7.9928
X10.8993Y-7.5089
X10.8993Y-7.8928
X10.9493Y-7.6089
X10.9493Y-7.9928
X10.9993Y-7.5089
X10.9993Y-7.8928
X11.0493Y-7.6089
X11.0493Y-7.9928
T5
X8.0142Y-3.2295
X8.0142Y-3.3295
X8.0142Y-3.4295
X8.0142Y-3.5295
X8.0142Y-3.6295
X8.0142Y-3.7295
X8.0142Y-3.8295
X8.0142Y-3.9295
X8.0142Y-4.0295
X8.0142Y-4.1295
X8.0142Y-4.2295
X8.0142Y-4.3295
X8.0142Y-4.4295
X8.1142Y-3.2295
X8.1142Y-3.3295
X8.1142Y-3.4295
X8.1142Y-3.5295
X8.1142Y-3.6295
X8.1142Y-3.7295
X8.1142Y-3.8295
X8.1142Y-3.9295
X8.1142Y-4.0295
X8.1142Y-4.1295
X8.1142Y-4.2295
X8.1142Y-4.3295
X8.1142Y-4.4295
X8.2142Y-3.2295
X8.2142Y-3.3295
X8.2142Y-3.4295
X8.2142Y-3.5295
X8.2142Y-3.6295
X8.2142Y-3.7295
X8.2142Y-3.8295
X8.2142Y-3.9295
X8.2142Y-4.0295
X8.2142Y-4.1295
X8.2142Y-4.2295
X8.2142Y-4.3295
X8.2142Y-4.4295
X8.3142Y-3.2295
X8.3142Y-3.3295
X8.3142Y-3.4295
X8.3142Y-3.5295
X8.3142Y-3.7295
X8.3142Y-4.1295
X8.3142Y-4.2295
X8.3142Y-4.3295
X8.3142Y-4.4295
X8.4142Y-3.2295
X8.4142Y-3.3295
X8.4142Y-3.4295
X8.4142Y-3.5295
X8.4142Y-4.1295
X8.4142Y-4.2295
X8.4142Y-4.3295
X8.4142Y-4.4295
X8.5142Y-3.2295
X8.5142Y-3.3295
X8.5142Y-3.4295
X8.5142Y-4.2295
X8.5142Y-4.3295
X8.5142Y-4.4295
X8.6142Y-3.2295
X8.6142Y-3.3295
X8.6142Y-3.4295
X8.6142Y-4.2295
X8.6142Y-4.3295
X8.6142Y-4.4295
X8.7142Y-3.2295
X8.7142Y-3.3295
X8.7142Y-3.4295
X8.7142Y-4.2295
X8.7142Y-4.3295
X8.7142Y-4.4295
X8.8142Y-3.2295
X8.8142Y-3.3295
X8.8142Y-3.4295
X8.8142Y-4.2295
X8.8142Y-4.3295
X8.8142Y-4.4295
X8.9142Y-3.2295
X8.9142Y-3.3295
X8.9142Y-3.4295
X8.9142Y-3.5295
X8.9142Y-3.7295
X8.9142Y-4.1295
X8.9142Y-4.2295
X8.9142Y-4.3295
X8.9142Y-4.4295
X9.0142Y-3.2295
X9.0142Y-3.3295
X9.0142Y-3.4295
X9.0142Y-3.5295
X9.0142Y-3.6295
X9.0142Y-3.7295
X9.0142Y-3.8295
X9.0142Y-3.9295
X9.0142Y-4.0295
X9.0142Y-4.1295
X9.0142Y-4.2295
X9.0142Y-4.3295
X9.0142Y-4.4295
X9.1142Y-3.2295
X9.1142Y-3.3295
X9.1142Y-3.4295
X9.1142Y-3.5295
X9.1142Y-3.6295
X9.1142Y-3.7295
X9.1142Y-3.8295
X9.1142Y-3.9295
X9.1142Y-4.0295
X9.1142Y-4.1295
X9.1142Y-4.2295
X9.1142Y-4.3295
X9.1142Y-4.4295
X9.2142Y-3.2295
X9.2142Y-3.3295
X9.2142Y-3.4295
X9.2142Y-3.5295
X9.2142Y-3.6295
X9.2142Y-3.7295
X9.2142Y-3.8295
X9.2142Y-3.9295
X9.2142Y-4.0295
X9.2142Y-4.1295
X9.2142Y-4.2295
X9.2142Y-4.3295
X9.2142Y-4.4295
T6
X4.7677Y-8.0472
X4.8465Y-8.0472
X6.2677Y-2.239
X6.2677Y-2.839
X6.3091Y-3.376
X6.3091Y-3.4547
X6.3677Y-2.239
X6.3677Y-2.839
X6.4677Y-2.239
X6.4677Y-2.839
X6.5677Y-2.239
X6.5677Y-2.839
X6.6677Y-2.239
X6.6677Y-2.839
X6.7677Y-2.239
X6.7677Y-2.839
X6.8677Y-2.239
X6.8677Y-2.839
X6.9677Y-2.239
X6.9677Y-2.839
X7.0622Y-7.2567
X7.0677Y-2.239
X7.0677Y-2.839
X7.1409Y-7.2567
X7.1677Y-2.239
X7.1677Y-2.839
X7.2677Y-2.239
X7.2677Y-2.839
X7.2984Y-7.2567
X7.3677Y-2.239
X7.3677Y-2.839
X7.3772Y-7.2567
X7.4677Y-2.239
X7.4677Y-2.839
X7.5677Y-2.239
X7.5677Y-2.839
X7.6677Y-2.239
X7.6677Y-2.839
X7.7677Y-2.239
X7.7677Y-2.839
X7.8677Y-2.239
X7.8677Y-2.839
X7.9677Y-2.239
X7.9677Y-2.839
X8.0677Y-2.239
X8.0677Y-2.839
X8.1677Y-2.239
X8.1677Y-2.839
X9.0898Y-7.0992
X9.0898Y-7.178
X9.5598Y-3.4248
X9.5598Y-3.5248
X9.5598Y-3.6248
X9.5598Y-3.7248
X9.5598Y-3.8248
X9.5598Y-3.9248
X9.5598Y-4.0248
X9.5598Y-4.1248
X9.5598Y-4.2248
X9.6598Y-3.3248
X9.6598Y-3.4248
X9.6598Y-3.5248
X9.6598Y-3.6248
X9.6598Y-3.7248
X9.6598Y-3.8248
X9.6598Y-3.9248
X9.6598Y-4.0248
X9.6598Y-4.1248
X9.6598Y-4.2248
X9.6598Y-4.3248
X9.7598Y-3.3248
X9.7598Y-3.4248
X9.7598Y-4.2248
X9.7598Y-4.3248
X9.8598Y-3.3248
X9.8598Y-3.4248
X9.8598Y-4.2248
X9.8598Y-4.3248
X9.9598Y-3.3248
X9.9598Y-3.4248
X9.9598Y-4.2248
X9.9598Y-4.3248
X10.0598Y-3.3248
X10.0598Y-3.4248
X10.0598Y-4.2248
X10.0598Y-4.3248
X10.1598Y-3.3248
X10.1598Y-3.4248
X10.1598Y-4.2248
X10.1598Y-4.3248
X10.2598Y-3.3248
X10.2598Y-3.4248
X10.2598Y-4.2248
X10.2598Y-4.3248
X10.3598Y-3.3248
X10.3598Y-3.4248
X10.3598Y-4.2248
X10.3598Y-4.3248
X10.4598Y-3.3248
X10.4598Y-3.4248
X10.4598Y-3.5248
X10.4598Y-3.6248
X10.4598Y-3.7248
X10.4598Y-3.8248
X10.4598Y-3.9248
X10.4598Y-4.0248
X10.4598Y-4.1248
X10.4598Y-4.2248
X10.4598Y-4.3248
X10.5598Y-3.4248
X10.5598Y-3.5248
X10.5598Y-3.6248
X10.5598Y-3.7248
X10.5598Y-3.8248
X10.5598Y-3.9248
X10.5598Y-4.0248
X10.5598Y-4.1248
X10.5598Y-4.2248
X11.137Y-4.4614
X11.137Y-4.7567
X11.2157Y-4.4614
X11.2157Y-4.7567
X11.7209Y-7.222
X11.7209Y-7.4583
X11.7996Y-7.222
X11.7996Y-7.4583
T7
X6.2776Y-8.0669
X6.3776Y-8.0669
X6.4894Y-1.9
X6.4894Y-1.9984
X6.572Y-1.9
X6.6744Y-1.9
X6.7571Y-1.9
X6.7571Y-1.9984
X7.1193Y-1.9
X7.1193Y-1.9984
X7.202Y-1.9
X7.3043Y-1.9
X7.387Y-1.9
X7.387Y-1.9984
X11.1939Y-5.2677
X11.1939Y-5.3677
T8
X10.2508Y-4.7665
X10.2508Y-4.8665
X10.2508Y-4.9665
X10.2508Y-5.0665
X10.3508Y-4.6665
X10.3508Y-4.6665
X10.3508Y-4.7665
X10.3508Y-4.8665
X10.3508Y-4.9665
X10.3508Y-5.0665
X10.3508Y-5.1665
X10.4508Y-4.6665
X10.4508Y-4.7665
X10.4508Y-5.0665
X10.4508Y-5.1665
X10.5508Y-4.6665
X10.5508Y-4.7665
X10.5508Y-5.0665
X10.5508Y-5.1665
X10.6508Y-4.6665
X10.6508Y-4.7665
X10.6508Y-5.0665
X10.6508Y-5.1665
X10.7508Y-4.6665
X10.7508Y-4.7665
X10.7508Y-4.8665
X10.7508Y-4.9665
X10.7508Y-5.0665
X10.7508Y-5.1665
X10.8508Y-4.7665
X10.8508Y-4.8665
X10.8508Y-4.9665
X10.8508Y-5.0665
T9
X10.8346Y-3.4488
X10.8346Y-3.5488
X10.8346Y-3.6488
X10.9346Y-3.4488
X10.9346Y-3.5488
X10.9346Y-3.6488
X11.3057Y-7.0604
X11.3765Y-6.9897
X11.3765Y-7.1311
X11.4472Y-6.919
X11.4472Y-7.0604
X11.5179Y-6.8483
X11.5179Y-6.9897
X11.5886Y-6.7776
X11.5886Y-6.919
X11.6593Y-6.8483
T10
X3.7976Y-6.0378
X3.7976Y-6.1378
X3.7976Y-6.2378
X3.7976Y-6.3378
X3.7976Y-6.4378
X3.7976Y-6.5378
X3.7976Y-6.6378
X3.7976Y-6.7378
X3.7976Y-6.8378
X3.7976Y-6.9378
X3.7976Y-7.0378
X3.7976Y-7.1378
X3.7976Y-7.2378
X3.7976Y-7.3378
X3.7976Y-7.4378
X3.7976Y-7.5378
X3.7976Y-7.6378
X3.8976Y-6.0378
X3.8976Y-6.1378
X3.8976Y-6.2378
X3.8976Y-6.3378
X3.8976Y-6.4378
X3.8976Y-6.5378
X3.8976Y-6.6378
X3.8976Y-6.7378
X3.8976Y-6.8378
X3.8976Y-6.9378
X3.8976Y-7.0378
X3.8976Y-7.1378
X3.8976Y-7.2378
X3.8976Y-7.3378
X3.8976Y-7.4378
X3.8976Y-7.5378
X3.8976Y-7.6378
X4.6063Y-7.6165
X4.6063Y-7.7165
X4.7063Y-7.6165
X4.7063Y-7.7165
X4.8063Y-7.6165
X4.8063Y-7.7165
X4.9063Y-7.6165
X4.9063Y-7.7165
X5.0063Y-7.6165
X5.0063Y-7.7165
X5.1063Y-7.6165
X5.1063Y-7.7165
X5.2063Y-7.6165
X5.2063Y-7.7165
X5.3063Y-7.6165
X5.3063Y-7.7165
X5.4063Y-7.6165
X5.4063Y-7.7165
X5.5063Y-7.6165
X5.5063Y-7.7165
X5.6063Y-7.6165
X5.6063Y-7.7165
X5.7063Y-7.6165
X5.7063Y-7.7165
X5.8063Y-7.6165
X5.8063Y-7.7165
X5.9063Y-7.6165
X5.9063Y-7.7165
X6.0063Y-7.6165
X6.0063Y-7.7165
X6.1063Y-7.6165
X6.1063Y-7.7165
X6.2063Y-7.6165
X6.2063Y-7.7165
X6.3063Y-7.6165
X6.3063Y-7.7165
X6.4063Y-7.6165
X6.4063Y-7.7165
X6.5063Y-7.6165
X6.5063Y-7.7165
T11
X6.6807Y-3.1343
X6.6807Y-3.3114
X6.9366Y-3.1343
X6.9366Y-3.3114
T12
X4.1508Y-2.5677
X4.1508Y-2.6677
X4.1508Y-2.7677
X4.1508Y-2.8677
X4.1508Y-2.9677
X4.1508Y-3.0677
X4.1508Y-3.1677
X4.1508Y-3.2677
X4.1508Y-3.3677
X4.1508Y-3.4677
X4.1508Y-3.5677
X4.1508Y-3.6677
X4.1508Y-3.7677
X4.1508Y-3.8677
X4.1508Y-3.9677
X4.1508Y-4.0677
X4.1508Y-4.1677
X4.1508Y-4.2677
X4.1508Y-4.3677
X4.1508Y-4.4677
X4.1508Y-4.5677
X4.1508Y-4.6677
X4.1508Y-4.7677
X4.1508Y-4.8677
X4.1508Y-4.9677
X4.1508Y-5.0677
X4.1508Y-5.1677
X4.1508Y-5.2677
X4.1508Y-5.3677
X4.1508Y-5.4677
X4.1508Y-5.5677
X4.3508Y-2.5677
X4.3508Y-2.6677
X4.3508Y-2.7677
X4.3508Y-2.8677
X4.3508Y-2.9677
X4.3508Y-3.0677
X4.3508Y-3.1677
X4.3508Y-3.2677
X4.3508Y-3.3677
X4.3508Y-3.4677
X4.3508Y-3.5677
X4.3508Y-3.6677
X4.3508Y-3.7677
X4.3508Y-3.8677
X4.3508Y-3.9677
X4.3508Y-4.0677
X4.3508Y-4.1677
X4.3508Y-4.2677
X4.3508Y-4.3677
X4.3508Y-4.4677
X4.3508Y-4.5677
X4.3508Y-4.6677
X4.3508Y-4.7677
X4.3508Y-4.8677
X4.3508Y-4.9677
X4.3508Y-5.0677
X4.3508Y-5.1677
X4.3508Y-5.2677
X4.3508Y-5.3677
X4.3508Y-5.4677
X4.3508Y-5.5677
X4.9508Y-2.5677
X4.9508Y-2.6677
X4.9508Y-2.7677
X4.9508Y-2.8677
X4.9508Y-2.9677
X4.9508Y-3.0677
X4.9508Y-3.1677
X4.9508Y-3.2677
X4.9508Y-3.3677
X4.9508Y-3.4677
X4.9508Y-3.5677
X4.9508Y-3.6677
X4.9508Y-3.7677
X4.9508Y-3.8677
X4.9508Y-3.9677
X4.9508Y-4.0677
X4.9508Y-4.1677
X4.9508Y-4.2677
X4.9508Y-4.3677
X4.9508Y-4.4677
X4.9508Y-4.5677
X4.9508Y-4.6677
X4.9508Y-4.7677
X4.9508Y-4.8677
X4.9508Y-4.9677
X4.9508Y-5.0677
X4.9508Y-5.1677
X4.9508Y-5.2677
X4.9508Y-5.3677
X4.9508Y-5.4677
X4.9508Y-5.5677
X5.1508Y-2.5677
X5.1508Y-2.6677
X5.1508Y-2.7677
X5.1508Y-2.8677
X5.1508Y-2.9677
X5.1508Y-3.0677
X5.1508Y-3.1677
X5.1508Y-3.2677
X5.1508Y-3.3677
X5.1508Y-3.4677
X5.1508Y-3.5677
X5.1508Y-3.6677
X5.1508Y-3.7677
X5.1508Y-3.8677
X5.1508Y-3.9677
X5.1508Y-4.0677
X5.1508Y-4.1677
X5.1508Y-4.2677
X5.1508Y-4.3677
X5.1508Y-4.4677
X5.1508Y-4.5677
X5.1508Y-4.6677
X5.1508Y-4.7677
X5.1508Y-4.8677
X5.1508Y-4.9677
X5.1508Y-5.0677
X5.1508Y-5.1677
X5.1508Y-5.2677
X5.1508Y-5.3677
X5.1508Y-5.4677
X5.1508Y-5.5677
X5.7508Y-2.5677
X5.7508Y-2.6677
X5.7508Y-2.7677
X5.7508Y-2.8677
X5.7508Y-2.9677
X5.7508Y-3.0677
X5.7508Y-3.1677
X5.7508Y-3.2677
X5.7508Y-3.3677
X5.7508Y-3.4677
X5.7508Y-3.5677
X5.7508Y-3.6677
X5.7508Y-3.7677
X5.7508Y-3.8677
X5.7508Y-3.9677
X5.7508Y-4.0677
X5.7508Y-4.1677
X5.7508Y-4.2677
X5.7508Y-4.3677
X5.7508Y-4.4677
X5.7508Y-4.5677
X5.7508Y-4.6677
X5.7508Y-4.7677
X5.7508Y-4.8677
X5.7508Y-4.9677
X5.7508Y-5.0677
X5.7508Y-5.1677
X5.7508Y-5.2677
X5.7508Y-5.3677
X5.7508Y-5.4677
X5.7508Y-5.5677
X5.9508Y-2.5677
X5.9508Y-2.6677
X5.9508Y-2.7677
X5.9508Y-2.8677
X5.9508Y-2.9677
X5.9508Y-3.0677
X5.9508Y-3.1677
X5.9508Y-3.2677
X5.9508Y-3.3677
X5.9508Y-3.4677
X5.9508Y-3.5677
X5.9508Y-3.6677
X5.9508Y-3.7677
X5.9508Y-3.8677
X5.9508Y-3.9677
X5.9508Y-4.0677
X5.9508Y-4.1677
X5.9508Y-4.2677
X5.9508Y-4.3677
X5.9508Y-4.4677
X5.9508Y-4.5677
X5.9508Y-4.6677
X5.9508Y-4.7677
X5.9508Y-4.8677
X5.9508Y-4.9677
X5.9508Y-5.0677
X5.9508Y-5.1677
X5.9508Y-5.2677
X5.9508Y-5.3677
X5.9508Y-5.4677
X5.9508Y-5.5677
T13
X11.5069Y-3.8776
X11.5069Y-4.0429
X11.5069Y-4.2083
X11.5069Y-4.3736
X11.5069Y-4.539
X11.5069Y-4.7043
X11.5069Y-4.8697
X11.5069Y-5.035
X11.5069Y-5.2004
X11.5069Y-5.3657
X11.5069Y-5.5311
X11.5069Y-5.6965
X11.7234Y-3.8776
X11.7234Y-4.0429
X11.7234Y-4.2083
X11.7234Y-4.3736
X11.7234Y-4.539
X11.7234Y-4.7043
X11.7234Y-4.8697
X11.7234Y-5.035
X11.7234Y-5.2004
X11.7234Y-5.3657
X11.7234Y-5.5311
X11.7234Y-5.6965
T14
X3.7508Y-1.9677
X3.7508Y-8.0677
X5.5508Y-1.9677
X5.5508Y-8.0677
X11.7508Y-2.8677
X11.7508Y-8.0677
T0
M30
