%TF.GenerationSoftware,KiCad,Pcbnew,(5.99.0-9466-g7fda7438f9)*%
%TF.CreationDate,2021-03-26T21:03:59-04:00*%
%TF.ProjectId,C68,4336382e-6b69-4636-9164-5f7063625858,rev?*%
%TF.SameCoordinates,Original*%
%TF.FileFunction,Soldermask,Bot*%
%TF.FilePolarity,Negative*%
%FSLAX46Y46*%
G04 Gerber Fmt 4.6, Leading zero omitted, Abs format (unit mm)*
G04 Created by KiCad (PCBNEW (5.99.0-9466-g7fda7438f9)) date 2021-03-26 21:03:59*
%MOMM*%
%LPD*%
G01*
G04 APERTURE LIST*
G04 Aperture macros list*
%AMRoundRect*
0 Rectangle with rounded corners*
0 $1 Rounding radius*
0 $2 $3 $4 $5 $6 $7 $8 $9 X,Y pos of 4 corners*
0 Add a 4 corners polygon primitive as box body*
4,1,4,$2,$3,$4,$5,$6,$7,$8,$9,$2,$3,0*
0 Add four circle primitives for the rounded corners*
1,1,$1+$1,$2,$3*
1,1,$1+$1,$4,$5*
1,1,$1+$1,$6,$7*
1,1,$1+$1,$8,$9*
0 Add four rect primitives between the rounded corners*
20,1,$1+$1,$2,$3,$4,$5,0*
20,1,$1+$1,$4,$5,$6,$7,0*
20,1,$1+$1,$6,$7,$8,$9,0*
20,1,$1+$1,$8,$9,$2,$3,0*%
%AMHorizOval*
0 Thick line with rounded ends*
0 $1 width*
0 $2 $3 position (X,Y) of the first rounded end (center of the circle)*
0 $4 $5 position (X,Y) of the second rounded end (center of the circle)*
0 Add line between two ends*
20,1,$1,$2,$3,$4,$5,0*
0 Add two circle primitives to create the rounded ends*
1,1,$1,$2,$3*
1,1,$1,$4,$5*%
G04 Aperture macros list end*
%TA.AperFunction,Profile*%
%ADD10C,0.050000*%
%TD*%
%ADD11C,6.160000*%
%ADD12RoundRect,0.080000X-0.800000X1.200000X-0.800000X-1.200000X0.800000X-1.200000X0.800000X1.200000X0*%
%ADD13O,1.760000X2.560000*%
%ADD14C,1.684000*%
%ADD15C,1.910000*%
%ADD16O,2.360000X1.860000*%
%ADD17RoundRect,0.080000X-0.711200X0.711200X-0.711200X-0.711200X0.711200X-0.711200X0.711200X0.711200X0*%
%ADD18C,1.582400*%
%ADD19RoundRect,0.080000X-0.698500X-0.698500X0.698500X-0.698500X0.698500X0.698500X-0.698500X0.698500X0*%
%ADD20C,1.557000*%
%ADD21C,2.160000*%
%ADD22RoundRect,0.080000X-0.850000X-0.850000X0.850000X-0.850000X0.850000X0.850000X-0.850000X0.850000X0*%
%ADD23O,1.860000X1.860000*%
%ADD24RoundRect,0.264816X-1.465184X1.165184X-1.465184X-1.165184X1.465184X-1.165184X1.465184X1.165184X0*%
%ADD25O,3.460000X2.860000*%
%ADD26RoundRect,0.080000X0.900000X-0.900000X0.900000X0.900000X-0.900000X0.900000X-0.900000X-0.900000X0*%
%ADD27C,1.960000*%
%ADD28RoundRect,0.080000X0.863600X-0.863600X0.863600X0.863600X-0.863600X0.863600X-0.863600X-0.863600X0*%
%ADD29O,1.887200X1.887200*%
%ADD30RoundRect,0.080000X0.863600X0.863600X-0.863600X0.863600X-0.863600X-0.863600X0.863600X-0.863600X0*%
%ADD31RoundRect,0.080000X0.800000X0.800000X-0.800000X0.800000X-0.800000X-0.800000X0.800000X-0.800000X0*%
%ADD32C,1.760000*%
%ADD33RoundRect,0.080000X-0.800000X0.800000X-0.800000X-0.800000X0.800000X-0.800000X0.800000X0.800000X0*%
%ADD34RoundRect,0.080000X-0.800000X-0.800000X0.800000X-0.800000X0.800000X0.800000X-0.800000X0.800000X0*%
%ADD35RoundRect,0.080000X0.800000X-0.800000X0.800000X0.800000X-0.800000X0.800000X-0.800000X-0.800000X0*%
%ADD36C,1.360000*%
%ADD37RoundRect,0.080000X0.600000X-0.600000X0.600000X0.600000X-0.600000X0.600000X-0.600000X-0.600000X0*%
%ADD38RoundRect,0.080000X-1.202082X0.000000X0.000000X-1.202082X1.202082X0.000000X0.000000X1.202082X0*%
%ADD39HorizOval,1.860000X0.000000X0.000000X0.000000X0.000000X0*%
%ADD40C,2.570000*%
%ADD41O,1.360000X2.160000*%
%ADD42RoundRect,0.080000X-0.900000X-0.900000X0.900000X-0.900000X0.900000X0.900000X-0.900000X0.900000X0*%
%ADD43RoundRect,0.283333X0.496667X-0.396667X0.496667X0.396667X-0.496667X0.396667X-0.496667X-0.396667X0*%
G04 APERTURE END LIST*
D10*
X304000000Y-210000000D02*
X90000000Y-210000000D01*
X90000000Y-210000000D02*
X90000000Y-40000000D01*
X304000000Y-40000000D02*
X304000000Y-210000000D01*
X90000000Y-40000000D02*
X304000000Y-40000000D01*
X304000000Y-210000000D02*
X90000000Y-210000000D01*
X90000000Y-210000000D02*
X90000000Y-40000000D01*
X304000000Y-40000000D02*
X304000000Y-210000000D01*
X90000000Y-40000000D02*
X304000000Y-40000000D01*
D11*
X140990000Y-204920000D03*
X95270000Y-204920000D03*
X140990000Y-49980000D03*
X298470000Y-204920000D03*
D12*
X207460000Y-56870000D03*
D13*
X204920000Y-56870000D03*
X202380000Y-56870000D03*
X199840000Y-56870000D03*
X197300000Y-56870000D03*
X194760000Y-56870000D03*
X192220000Y-56870000D03*
X189680000Y-56870000D03*
X187140000Y-56870000D03*
X184600000Y-56870000D03*
X182060000Y-56870000D03*
X179520000Y-56870000D03*
X176980000Y-56870000D03*
X174440000Y-56870000D03*
X171900000Y-56870000D03*
X169360000Y-56870000D03*
X166820000Y-56870000D03*
X164280000Y-56870000D03*
X161740000Y-56870000D03*
X159200000Y-56870000D03*
X159200000Y-72110000D03*
X161740000Y-72110000D03*
X164280000Y-72110000D03*
X166820000Y-72110000D03*
X169360000Y-72110000D03*
X171900000Y-72110000D03*
X174440000Y-72110000D03*
X176980000Y-72110000D03*
X179520000Y-72110000D03*
X182060000Y-72110000D03*
X184600000Y-72110000D03*
X187140000Y-72110000D03*
X189680000Y-72110000D03*
X192220000Y-72110000D03*
X194760000Y-72110000D03*
X197300000Y-72110000D03*
X199840000Y-72110000D03*
X202380000Y-72110000D03*
X204920000Y-72110000D03*
X207460000Y-72110000D03*
D11*
X298470000Y-72840000D03*
X95270000Y-49980000D03*
D14*
X166930000Y-48260000D03*
X169530000Y-48260000D03*
X164830000Y-48260000D03*
X171630000Y-48260000D03*
X164830000Y-50760000D03*
X171630000Y-50760000D03*
X182930000Y-48260000D03*
X185530000Y-48260000D03*
X180830000Y-48260000D03*
X187630000Y-48260000D03*
X180830000Y-50760000D03*
X187630000Y-50760000D03*
D15*
X262910000Y-123610000D03*
X260370000Y-126150000D03*
X262910000Y-126150000D03*
X260370000Y-128690000D03*
X262910000Y-131230000D03*
X262910000Y-128690000D03*
X265450000Y-131230000D03*
X265450000Y-128690000D03*
X267990000Y-131230000D03*
X267990000Y-128690000D03*
X270530000Y-131230000D03*
X270530000Y-128690000D03*
X273070000Y-131230000D03*
X275610000Y-128690000D03*
X273070000Y-128690000D03*
X275610000Y-126150000D03*
X273070000Y-126150000D03*
X275610000Y-123610000D03*
X273070000Y-123610000D03*
X275610000Y-121070000D03*
X273070000Y-118530000D03*
X273070000Y-121070000D03*
X270530000Y-118530000D03*
X270530000Y-121070000D03*
X267990000Y-118530000D03*
X267990000Y-121070000D03*
X265450000Y-118530000D03*
X265450000Y-121070000D03*
X262910000Y-118530000D03*
X262910000Y-118530000D03*
X260370000Y-121070000D03*
X262910000Y-121070000D03*
X260370000Y-123610000D03*
D16*
X151150000Y-65220000D03*
X151150000Y-67760000D03*
X151150000Y-70300000D03*
X151150000Y-72840000D03*
X151150000Y-75380000D03*
X151150000Y-77920000D03*
X151150000Y-80460000D03*
X151150000Y-83000000D03*
X151150000Y-85540000D03*
X151150000Y-88080000D03*
X151150000Y-90620000D03*
X151150000Y-93160000D03*
X151150000Y-95700000D03*
X151150000Y-98240000D03*
X151150000Y-100780000D03*
X151150000Y-103320000D03*
X151150000Y-105860000D03*
X151150000Y-108400000D03*
X151150000Y-110940000D03*
X151150000Y-113480000D03*
X151150000Y-116020000D03*
X151150000Y-118560000D03*
X151150000Y-121100000D03*
X151150000Y-123640000D03*
X151150000Y-126180000D03*
X151150000Y-128720000D03*
X151150000Y-131260000D03*
X151150000Y-133800000D03*
X151150000Y-136340000D03*
X151150000Y-138880000D03*
X151150000Y-141420000D03*
X146070000Y-65220000D03*
X146070000Y-67760000D03*
X146070000Y-70300000D03*
X146070000Y-72840000D03*
X146070000Y-75380000D03*
X146070000Y-77920000D03*
X146070000Y-80460000D03*
X146070000Y-83000000D03*
X146070000Y-85540000D03*
X146070000Y-88080000D03*
X146070000Y-90620000D03*
X146070000Y-93160000D03*
X146070000Y-95700000D03*
X146070000Y-98240000D03*
X146070000Y-100780000D03*
X146070000Y-103320000D03*
X146070000Y-105860000D03*
X146070000Y-108400000D03*
X146070000Y-110940000D03*
X146070000Y-113480000D03*
X146070000Y-116020000D03*
X146070000Y-118560000D03*
X146070000Y-121100000D03*
X146070000Y-123640000D03*
X146070000Y-126180000D03*
X146070000Y-128720000D03*
X146070000Y-131260000D03*
X146070000Y-133800000D03*
X146070000Y-136340000D03*
X146070000Y-138880000D03*
X146070000Y-141420000D03*
D17*
X268220000Y-97150000D03*
D18*
X265680000Y-97150000D03*
X268220000Y-94610000D03*
X265680000Y-94610000D03*
X268220000Y-92070000D03*
X265680000Y-92070000D03*
X268220000Y-89530000D03*
X265680000Y-89530000D03*
X268220000Y-86990000D03*
X265680000Y-84450000D03*
X265680000Y-86990000D03*
X263140000Y-84450000D03*
X263140000Y-86990000D03*
X260600000Y-84450000D03*
X260600000Y-86990000D03*
X258060000Y-84450000D03*
X258060000Y-86990000D03*
X255520000Y-84450000D03*
X255520000Y-86990000D03*
X252980000Y-84450000D03*
X252980000Y-86990000D03*
X250440000Y-84450000D03*
X250440000Y-86990000D03*
X247900000Y-84450000D03*
X247900000Y-86990000D03*
X245360000Y-84450000D03*
X242820000Y-86990000D03*
X245360000Y-86990000D03*
X242820000Y-89530000D03*
X245360000Y-89530000D03*
X242820000Y-92070000D03*
X245360000Y-92070000D03*
X242820000Y-94610000D03*
X245360000Y-94610000D03*
X242820000Y-97150000D03*
X245360000Y-97150000D03*
X242820000Y-99690000D03*
X245360000Y-99690000D03*
X242820000Y-102230000D03*
X245360000Y-102230000D03*
X242820000Y-104770000D03*
X245360000Y-104770000D03*
X242820000Y-107310000D03*
X245360000Y-109850000D03*
X245360000Y-107310000D03*
X247900000Y-109850000D03*
X247900000Y-107310000D03*
X250440000Y-109850000D03*
X250440000Y-107310000D03*
X252980000Y-109850000D03*
X252980000Y-107310000D03*
X255520000Y-109850000D03*
X255520000Y-107310000D03*
X258060000Y-109850000D03*
X258060000Y-107310000D03*
X260600000Y-109850000D03*
X260600000Y-107310000D03*
X263140000Y-109850000D03*
X263140000Y-107310000D03*
X265680000Y-109850000D03*
X268220000Y-107310000D03*
X265680000Y-107310000D03*
X268220000Y-104770000D03*
X265680000Y-104770000D03*
X268220000Y-102230000D03*
X265680000Y-102230000D03*
X268220000Y-99690000D03*
X265680000Y-99690000D03*
D19*
X203560000Y-82030000D03*
D20*
X206100000Y-82030000D03*
X208640000Y-82030000D03*
X211180000Y-82030000D03*
X213720000Y-82030000D03*
X216260000Y-82030000D03*
X218800000Y-82030000D03*
X221340000Y-82030000D03*
X223880000Y-82030000D03*
X226420000Y-82030000D03*
X228960000Y-82030000D03*
X231500000Y-82030000D03*
X234040000Y-82030000D03*
X203560000Y-84570000D03*
X206100000Y-84570000D03*
X208640000Y-84570000D03*
X211180000Y-84570000D03*
X213720000Y-84570000D03*
X216260000Y-84570000D03*
X218800000Y-84570000D03*
X221340000Y-84570000D03*
X223880000Y-84570000D03*
X226420000Y-84570000D03*
X228960000Y-84570000D03*
X231500000Y-84570000D03*
X234040000Y-84570000D03*
X203560000Y-87110000D03*
X206100000Y-87110000D03*
X208640000Y-87110000D03*
X211180000Y-87110000D03*
X213720000Y-87110000D03*
X216260000Y-87110000D03*
X218800000Y-87110000D03*
X221340000Y-87110000D03*
X223880000Y-87110000D03*
X226420000Y-87110000D03*
X228960000Y-87110000D03*
X231500000Y-87110000D03*
X234040000Y-87110000D03*
X203560000Y-89650000D03*
X206100000Y-89650000D03*
X208640000Y-89650000D03*
X211180000Y-89650000D03*
X213720000Y-89650000D03*
X226420000Y-89650000D03*
X228960000Y-89650000D03*
X231500000Y-89650000D03*
X234040000Y-89650000D03*
X203560000Y-92190000D03*
X206100000Y-92190000D03*
X208640000Y-92190000D03*
X228960000Y-92190000D03*
X231500000Y-92190000D03*
X234040000Y-92190000D03*
X203560000Y-94730000D03*
X206100000Y-94730000D03*
X208640000Y-94730000D03*
X211180000Y-94730000D03*
X226420000Y-94730000D03*
X228960000Y-94730000D03*
X231500000Y-94730000D03*
X234040000Y-94730000D03*
X203560000Y-97270000D03*
X206100000Y-97270000D03*
X208640000Y-97270000D03*
X228960000Y-97270000D03*
X231500000Y-97270000D03*
X234040000Y-97270000D03*
X203560000Y-99810000D03*
X206100000Y-99810000D03*
X208640000Y-99810000D03*
X228960000Y-99810000D03*
X231500000Y-99810000D03*
X234040000Y-99810000D03*
X203560000Y-102350000D03*
X206100000Y-102350000D03*
X208640000Y-102350000D03*
X228960000Y-102350000D03*
X231500000Y-102350000D03*
X234040000Y-102350000D03*
X203560000Y-104890000D03*
X206100000Y-104890000D03*
X208640000Y-104890000D03*
X211180000Y-104890000D03*
X213720000Y-104890000D03*
X226420000Y-104890000D03*
X228960000Y-104890000D03*
X231500000Y-104890000D03*
X234040000Y-104890000D03*
X203560000Y-107430000D03*
X206100000Y-107430000D03*
X208640000Y-107430000D03*
X211180000Y-107430000D03*
X213720000Y-107430000D03*
X216260000Y-107430000D03*
X218800000Y-107430000D03*
X221340000Y-107430000D03*
X223880000Y-107430000D03*
X226420000Y-107430000D03*
X228960000Y-107430000D03*
X231500000Y-107430000D03*
X234040000Y-107430000D03*
X203560000Y-109970000D03*
X206100000Y-109970000D03*
X208640000Y-109970000D03*
X211180000Y-109970000D03*
X213720000Y-109970000D03*
X216260000Y-109970000D03*
X218800000Y-109970000D03*
X221340000Y-109970000D03*
X223880000Y-109970000D03*
X226420000Y-109970000D03*
X228960000Y-109970000D03*
X231500000Y-109970000D03*
X234040000Y-109970000D03*
X203560000Y-112510000D03*
X206100000Y-112510000D03*
X208640000Y-112510000D03*
X211180000Y-112510000D03*
X213720000Y-112510000D03*
X216260000Y-112510000D03*
X218800000Y-112510000D03*
X221340000Y-112510000D03*
X223880000Y-112510000D03*
X226420000Y-112510000D03*
X228960000Y-112510000D03*
X231500000Y-112510000D03*
X234040000Y-112510000D03*
D16*
X130830000Y-65220000D03*
X130830000Y-67760000D03*
X130830000Y-70300000D03*
X130830000Y-72840000D03*
X130830000Y-75380000D03*
X130830000Y-77920000D03*
X130830000Y-80460000D03*
X130830000Y-83000000D03*
X130830000Y-85540000D03*
X130830000Y-88080000D03*
X130830000Y-90620000D03*
X130830000Y-93160000D03*
X130830000Y-95700000D03*
X130830000Y-98240000D03*
X130830000Y-100780000D03*
X130830000Y-103320000D03*
X130830000Y-105860000D03*
X130830000Y-108400000D03*
X130830000Y-110940000D03*
X130830000Y-113480000D03*
X130830000Y-116020000D03*
X130830000Y-118560000D03*
X130830000Y-121100000D03*
X130830000Y-123640000D03*
X130830000Y-126180000D03*
X130830000Y-128720000D03*
X130830000Y-131260000D03*
X130830000Y-133800000D03*
X130830000Y-136340000D03*
X130830000Y-138880000D03*
X130830000Y-141420000D03*
X125750000Y-65220000D03*
X125750000Y-67760000D03*
X125750000Y-70300000D03*
X125750000Y-72840000D03*
X125750000Y-75380000D03*
X125750000Y-77920000D03*
X125750000Y-80460000D03*
X125750000Y-83000000D03*
X125750000Y-85540000D03*
X125750000Y-88080000D03*
X125750000Y-90620000D03*
X125750000Y-93160000D03*
X125750000Y-95700000D03*
X125750000Y-98240000D03*
X125750000Y-100780000D03*
X125750000Y-103320000D03*
X125750000Y-105860000D03*
X125750000Y-108400000D03*
X125750000Y-110940000D03*
X125750000Y-113480000D03*
X125750000Y-116020000D03*
X125750000Y-118560000D03*
X125750000Y-121100000D03*
X125750000Y-123640000D03*
X125750000Y-126180000D03*
X125750000Y-128720000D03*
X125750000Y-131260000D03*
X125750000Y-133800000D03*
X125750000Y-136340000D03*
X125750000Y-138880000D03*
X125750000Y-141420000D03*
D21*
X169690000Y-79610000D03*
X176190000Y-79610000D03*
X176190000Y-84110000D03*
X169690000Y-84110000D03*
D16*
X110510000Y-65220000D03*
X110510000Y-67760000D03*
X110510000Y-70300000D03*
X110510000Y-72840000D03*
X110510000Y-75380000D03*
X110510000Y-77920000D03*
X110510000Y-80460000D03*
X110510000Y-83000000D03*
X110510000Y-85540000D03*
X110510000Y-88080000D03*
X110510000Y-90620000D03*
X110510000Y-93160000D03*
X110510000Y-95700000D03*
X110510000Y-98240000D03*
X110510000Y-100780000D03*
X110510000Y-103320000D03*
X110510000Y-105860000D03*
X110510000Y-108400000D03*
X110510000Y-110940000D03*
X110510000Y-113480000D03*
X110510000Y-116020000D03*
X110510000Y-118560000D03*
X110510000Y-121100000D03*
X110510000Y-123640000D03*
X110510000Y-126180000D03*
X110510000Y-128720000D03*
X110510000Y-131260000D03*
X110510000Y-133800000D03*
X110510000Y-136340000D03*
X110510000Y-138880000D03*
X110510000Y-141420000D03*
X105430000Y-65220000D03*
X105430000Y-67760000D03*
X105430000Y-70300000D03*
X105430000Y-72840000D03*
X105430000Y-75380000D03*
X105430000Y-77920000D03*
X105430000Y-80460000D03*
X105430000Y-83000000D03*
X105430000Y-85540000D03*
X105430000Y-88080000D03*
X105430000Y-90620000D03*
X105430000Y-93160000D03*
X105430000Y-95700000D03*
X105430000Y-98240000D03*
X105430000Y-100780000D03*
X105430000Y-103320000D03*
X105430000Y-105860000D03*
X105430000Y-108400000D03*
X105430000Y-110940000D03*
X105430000Y-113480000D03*
X105430000Y-116020000D03*
X105430000Y-118560000D03*
X105430000Y-121100000D03*
X105430000Y-123640000D03*
X105430000Y-126180000D03*
X105430000Y-128720000D03*
X105430000Y-131260000D03*
X105430000Y-133800000D03*
X105430000Y-136340000D03*
X105430000Y-138880000D03*
X105430000Y-141420000D03*
D22*
X275200000Y-87600000D03*
D23*
X277740000Y-87600000D03*
X275200000Y-90140000D03*
X277740000Y-90140000D03*
X275200000Y-92680000D03*
X277740000Y-92680000D03*
D24*
X297775000Y-98490000D03*
D25*
X297775000Y-102690000D03*
X297775000Y-106890000D03*
X297775000Y-111090000D03*
X297775000Y-115290000D03*
X297775000Y-119490000D03*
X297775000Y-123690000D03*
X297775000Y-127890000D03*
X297775000Y-132090000D03*
X297775000Y-136290000D03*
X297775000Y-140490000D03*
X297775000Y-144690000D03*
X292275000Y-98490000D03*
X292275000Y-102690000D03*
X292275000Y-106890000D03*
X292275000Y-111090000D03*
X292275000Y-115290000D03*
X292275000Y-119490000D03*
X292275000Y-123690000D03*
X292275000Y-127890000D03*
X292275000Y-132090000D03*
X292275000Y-136290000D03*
X292275000Y-140490000D03*
X292275000Y-144690000D03*
D26*
X284325000Y-136340000D03*
D27*
X284325000Y-133800000D03*
D28*
X117000000Y-196000000D03*
D29*
X117000000Y-193460000D03*
X119540000Y-196000000D03*
X119540000Y-193460000D03*
X122080000Y-196000000D03*
X122080000Y-193460000D03*
X124620000Y-196000000D03*
X124620000Y-193460000D03*
X127160000Y-196000000D03*
X127160000Y-193460000D03*
X129700000Y-196000000D03*
X129700000Y-193460000D03*
X132240000Y-196000000D03*
X132240000Y-193460000D03*
X134780000Y-196000000D03*
X134780000Y-193460000D03*
X137320000Y-196000000D03*
X137320000Y-193460000D03*
X139860000Y-196000000D03*
X139860000Y-193460000D03*
X142400000Y-196000000D03*
X142400000Y-193460000D03*
X144940000Y-196000000D03*
X144940000Y-193460000D03*
X147480000Y-196000000D03*
X147480000Y-193460000D03*
X150020000Y-196000000D03*
X150020000Y-193460000D03*
X152560000Y-196000000D03*
X152560000Y-193460000D03*
X155100000Y-196000000D03*
X155100000Y-193460000D03*
X157640000Y-196000000D03*
X157640000Y-193460000D03*
X160180000Y-196000000D03*
X160180000Y-193460000D03*
X162720000Y-196000000D03*
X162720000Y-193460000D03*
X165260000Y-196000000D03*
X165260000Y-193460000D03*
D30*
X99000000Y-194000000D03*
D29*
X96460000Y-194000000D03*
X99000000Y-191460000D03*
X96460000Y-191460000D03*
X99000000Y-188920000D03*
X96460000Y-188920000D03*
X99000000Y-186380000D03*
X96460000Y-186380000D03*
X99000000Y-183840000D03*
X96460000Y-183840000D03*
X99000000Y-181300000D03*
X96460000Y-181300000D03*
X99000000Y-178760000D03*
X96460000Y-178760000D03*
X99000000Y-176220000D03*
X96460000Y-176220000D03*
X99000000Y-173680000D03*
X96460000Y-173680000D03*
X99000000Y-171140000D03*
X96460000Y-171140000D03*
X99000000Y-168600000D03*
X96460000Y-168600000D03*
X99000000Y-166060000D03*
X96460000Y-166060000D03*
X99000000Y-163520000D03*
X96460000Y-163520000D03*
X99000000Y-160980000D03*
X96460000Y-160980000D03*
X99000000Y-158440000D03*
X96460000Y-158440000D03*
X99000000Y-155900000D03*
X96460000Y-155900000D03*
X99000000Y-153360000D03*
X96460000Y-153360000D03*
D31*
X187380000Y-184320000D03*
D32*
X185380000Y-184320000D03*
D33*
X230880000Y-180320000D03*
D32*
X230880000Y-182320000D03*
D31*
X299710000Y-183440000D03*
D32*
X297710000Y-183440000D03*
D34*
X179380000Y-184320000D03*
D32*
X181380000Y-184320000D03*
D31*
X284880000Y-120820000D03*
D32*
X282880000Y-120820000D03*
D31*
X284880000Y-113320000D03*
D32*
X282880000Y-113320000D03*
D35*
X160250000Y-87750000D03*
D32*
X160250000Y-85750000D03*
D31*
X299710000Y-189440000D03*
D32*
X297710000Y-189440000D03*
D36*
X301330000Y-194240000D03*
X301330000Y-199320000D03*
D37*
X296250000Y-199320000D03*
D36*
X296250000Y-196780000D03*
X296250000Y-194240000D03*
D34*
X121100000Y-204400000D03*
D32*
X123100000Y-204400000D03*
D38*
X294350000Y-172150000D03*
D39*
X296146051Y-173946051D03*
X292553949Y-173946051D03*
X294350000Y-175742102D03*
X290757898Y-175742102D03*
X292553949Y-177538154D03*
X288961846Y-177538154D03*
X290757898Y-179334205D03*
X287165795Y-179334205D03*
X288961846Y-181130256D03*
D40*
X177147000Y-202000000D03*
X233027000Y-202000000D03*
X288907000Y-202000000D03*
D41*
X280652000Y-203016000D03*
X279382000Y-200476000D03*
X278112000Y-203016000D03*
X276842000Y-200476000D03*
X275572000Y-203016000D03*
X274302000Y-200476000D03*
X273032000Y-203016000D03*
X271762000Y-200476000D03*
X270492000Y-203016000D03*
X269222000Y-200476000D03*
X267952000Y-203016000D03*
X266682000Y-200476000D03*
X265412000Y-203016000D03*
X264142000Y-200476000D03*
X262872000Y-203016000D03*
X261602000Y-200476000D03*
X260332000Y-203016000D03*
X259062000Y-200476000D03*
X257792000Y-203016000D03*
X256522000Y-200476000D03*
X255252000Y-203016000D03*
X253982000Y-200476000D03*
X252712000Y-203016000D03*
X251442000Y-200476000D03*
X250172000Y-203016000D03*
X248902000Y-200476000D03*
X247632000Y-203016000D03*
X246362000Y-200476000D03*
X245092000Y-203016000D03*
X243822000Y-200476000D03*
X242552000Y-203016000D03*
X241282000Y-200476000D03*
X240012000Y-203016000D03*
X238742000Y-200476000D03*
X237472000Y-203016000D03*
X236202000Y-200476000D03*
X229852000Y-203016000D03*
X228582000Y-200476000D03*
X227312000Y-203016000D03*
X226042000Y-200476000D03*
X224772000Y-203016000D03*
X223502000Y-200476000D03*
X222232000Y-203016000D03*
X220962000Y-200476000D03*
X219692000Y-203016000D03*
X218422000Y-200476000D03*
X217152000Y-203016000D03*
X215882000Y-200476000D03*
X214612000Y-203016000D03*
X213342000Y-200476000D03*
X212072000Y-203016000D03*
X210802000Y-200476000D03*
X209532000Y-203016000D03*
X208262000Y-200476000D03*
X206992000Y-203016000D03*
X205722000Y-200476000D03*
X204452000Y-203016000D03*
X203182000Y-200476000D03*
X201912000Y-203016000D03*
X200642000Y-200476000D03*
X199372000Y-203016000D03*
X198102000Y-200476000D03*
X196832000Y-203016000D03*
X195562000Y-200476000D03*
X194292000Y-203016000D03*
X193022000Y-200476000D03*
X191752000Y-203016000D03*
X190482000Y-200476000D03*
X189212000Y-203016000D03*
X187942000Y-200476000D03*
X186672000Y-203016000D03*
X185402000Y-200476000D03*
D40*
X233027000Y-192250000D03*
X288907000Y-192250000D03*
X177147000Y-192250000D03*
D41*
X280652000Y-193266000D03*
X279382000Y-190726000D03*
X278112000Y-193266000D03*
X276842000Y-190726000D03*
X275572000Y-193266000D03*
X274302000Y-190726000D03*
X273032000Y-193266000D03*
X271762000Y-190726000D03*
X270492000Y-193266000D03*
X269222000Y-190726000D03*
X267952000Y-193266000D03*
X266682000Y-190726000D03*
X265412000Y-193266000D03*
X264142000Y-190726000D03*
X262872000Y-193266000D03*
X261602000Y-190726000D03*
X260332000Y-193266000D03*
X259062000Y-190726000D03*
X257792000Y-193266000D03*
X256522000Y-190726000D03*
X255252000Y-193266000D03*
X253982000Y-190726000D03*
X252712000Y-193266000D03*
X251442000Y-190726000D03*
X250172000Y-193266000D03*
X248902000Y-190726000D03*
X247632000Y-193266000D03*
X246362000Y-190726000D03*
X245092000Y-193266000D03*
X243822000Y-190726000D03*
X242552000Y-193266000D03*
X241282000Y-190726000D03*
X240012000Y-193266000D03*
X238742000Y-190726000D03*
X237472000Y-193266000D03*
X236202000Y-190726000D03*
X229852000Y-193266000D03*
X228582000Y-190726000D03*
X227312000Y-193266000D03*
X226042000Y-190726000D03*
X224772000Y-193266000D03*
X223502000Y-190726000D03*
X222232000Y-193266000D03*
X220962000Y-190726000D03*
X219692000Y-193266000D03*
X218422000Y-190726000D03*
X217152000Y-193266000D03*
X215882000Y-190726000D03*
X214612000Y-193266000D03*
X213342000Y-190726000D03*
X212072000Y-193266000D03*
X210802000Y-190726000D03*
X209532000Y-193266000D03*
X208262000Y-190726000D03*
X206992000Y-193266000D03*
X205722000Y-190726000D03*
X204452000Y-193266000D03*
X203182000Y-190726000D03*
X201912000Y-193266000D03*
X200642000Y-190726000D03*
X199372000Y-193266000D03*
X198102000Y-190726000D03*
X196832000Y-193266000D03*
X195562000Y-190726000D03*
X194292000Y-193266000D03*
X193022000Y-190726000D03*
X191752000Y-193266000D03*
X190482000Y-190726000D03*
X189212000Y-193266000D03*
X187942000Y-190726000D03*
X186672000Y-193266000D03*
X185402000Y-190726000D03*
D42*
X159450000Y-204900000D03*
D27*
X161990000Y-204900000D03*
D43*
X257800000Y-186750000D03*
X257800000Y-184750000D03*
X261600000Y-182750000D03*
X261600000Y-180750000D03*
X262900000Y-186750000D03*
X262900000Y-184750000D03*
X264150000Y-182750000D03*
X264150000Y-180750000D03*
X259000000Y-182750000D03*
X259000000Y-180750000D03*
X260300000Y-186750000D03*
X260300000Y-184750000D03*
X265400000Y-186750000D03*
X265400000Y-184750000D03*
X266650000Y-182750000D03*
X266650000Y-180750000D03*
G36*
X121981919Y-204272879D02*
G01*
X122001596Y-204339894D01*
X122053939Y-204385249D01*
X122122492Y-204395106D01*
X122185490Y-204366335D01*
X122223075Y-204307853D01*
X122223528Y-204306046D01*
X122224919Y-204304610D01*
X122226859Y-204305096D01*
X122227468Y-204306540D01*
X122226822Y-204491774D01*
X122227520Y-204495004D01*
X122226908Y-204496909D01*
X122224954Y-204497331D01*
X122223795Y-204496359D01*
X122193225Y-204438290D01*
X122132953Y-204404176D01*
X122063803Y-204408065D01*
X122007734Y-204448720D01*
X121982453Y-204513473D01*
X121981998Y-204523957D01*
X121980924Y-204525644D01*
X121978926Y-204525557D01*
X121978000Y-204523870D01*
X121978000Y-204273442D01*
X121979000Y-204271710D01*
X121981000Y-204271710D01*
X121981919Y-204272879D01*
G37*
G36*
X180261919Y-184192879D02*
G01*
X180281596Y-184259894D01*
X180333939Y-184305249D01*
X180402492Y-184315106D01*
X180465490Y-184286335D01*
X180503075Y-184227853D01*
X180503528Y-184226046D01*
X180504919Y-184224610D01*
X180506859Y-184225096D01*
X180507468Y-184226540D01*
X180506822Y-184411774D01*
X180507520Y-184415004D01*
X180506908Y-184416909D01*
X180504954Y-184417331D01*
X180503795Y-184416359D01*
X180473225Y-184358290D01*
X180412953Y-184324176D01*
X180343803Y-184328065D01*
X180287734Y-184368720D01*
X180262453Y-184433473D01*
X180261998Y-184443957D01*
X180260924Y-184445644D01*
X180258926Y-184445557D01*
X180258000Y-184443870D01*
X180258000Y-184193442D01*
X180259000Y-184191710D01*
X180261000Y-184191710D01*
X180261919Y-184192879D01*
G37*
M02*
