%TF.GenerationSoftware,KiCad,Pcbnew,(5.99.0-9466-g7fda7438f9)*%
%TF.CreationDate,2021-03-26T21:03:59-04:00*%
%TF.ProjectId,C68,4336382e-6b69-4636-9164-5f7063625858,rev?*%
%TF.SameCoordinates,Original*%
%TF.FileFunction,Legend,Bot*%
%TF.FilePolarity,Positive*%
%FSLAX46Y46*%
G04 Gerber Fmt 4.6, Leading zero omitted, Abs format (unit mm)*
G04 Created by KiCad (PCBNEW (5.99.0-9466-g7fda7438f9)) date 2021-03-26 21:03:59*
%MOMM*%
%LPD*%
G01*
G04 APERTURE LIST*
%TA.AperFunction,Profile*%
%ADD10C,0.050000*%
%TD*%
%ADD11C,0.150000*%
%ADD12C,0.120000*%
G04 APERTURE END LIST*
D10*
X304000000Y-210000000D02*
X90000000Y-210000000D01*
X90000000Y-210000000D02*
X90000000Y-40000000D01*
X304000000Y-40000000D02*
X304000000Y-210000000D01*
X90000000Y-40000000D02*
X304000000Y-40000000D01*
D11*
X256452380Y-185107142D02*
X255976190Y-184773809D01*
X256452380Y-184535714D02*
X255452380Y-184535714D01*
X255452380Y-184916666D01*
X255500000Y-185011904D01*
X255547619Y-185059523D01*
X255642857Y-185107142D01*
X255785714Y-185107142D01*
X255880952Y-185059523D01*
X255928571Y-185011904D01*
X255976190Y-184916666D01*
X255976190Y-184535714D01*
X255785714Y-185964285D02*
X256452380Y-185964285D01*
X255404761Y-185726190D02*
X256119047Y-185488095D01*
X256119047Y-186107142D01*
X256452380Y-186535714D02*
X256452380Y-186726190D01*
X256404761Y-186821428D01*
X256357142Y-186869047D01*
X256214285Y-186964285D01*
X256023809Y-187011904D01*
X255642857Y-187011904D01*
X255547619Y-186964285D01*
X255500000Y-186916666D01*
X255452380Y-186821428D01*
X255452380Y-186630952D01*
X255500000Y-186535714D01*
X255547619Y-186488095D01*
X255642857Y-186440476D01*
X255880952Y-186440476D01*
X255976190Y-186488095D01*
X256023809Y-186535714D01*
X256071428Y-186630952D01*
X256071428Y-186821428D01*
X256023809Y-186916666D01*
X255976190Y-186964285D01*
X255880952Y-187011904D01*
X262142857Y-177952380D02*
X262476190Y-177476190D01*
X262714285Y-177952380D02*
X262714285Y-176952380D01*
X262333333Y-176952380D01*
X262238095Y-177000000D01*
X262190476Y-177047619D01*
X262142857Y-177142857D01*
X262142857Y-177285714D01*
X262190476Y-177380952D01*
X262238095Y-177428571D01*
X262333333Y-177476190D01*
X262714285Y-177476190D01*
X261285714Y-177285714D02*
X261285714Y-177952380D01*
X261523809Y-176904761D02*
X261761904Y-177619047D01*
X261142857Y-177619047D01*
X260857142Y-176952380D02*
X260238095Y-176952380D01*
X260571428Y-177333333D01*
X260428571Y-177333333D01*
X260333333Y-177380952D01*
X260285714Y-177428571D01*
X260238095Y-177523809D01*
X260238095Y-177761904D01*
X260285714Y-177857142D01*
X260333333Y-177904761D01*
X260428571Y-177952380D01*
X260714285Y-177952380D01*
X260809523Y-177904761D01*
X260857142Y-177857142D01*
X264142857Y-188952380D02*
X264476190Y-188476190D01*
X264714285Y-188952380D02*
X264714285Y-187952380D01*
X264333333Y-187952380D01*
X264238095Y-188000000D01*
X264190476Y-188047619D01*
X264142857Y-188142857D01*
X264142857Y-188285714D01*
X264190476Y-188380952D01*
X264238095Y-188428571D01*
X264333333Y-188476190D01*
X264714285Y-188476190D01*
X263285714Y-188285714D02*
X263285714Y-188952380D01*
X263523809Y-187904761D02*
X263761904Y-188619047D01*
X263142857Y-188619047D01*
X262809523Y-188047619D02*
X262761904Y-188000000D01*
X262666666Y-187952380D01*
X262428571Y-187952380D01*
X262333333Y-188000000D01*
X262285714Y-188047619D01*
X262238095Y-188142857D01*
X262238095Y-188238095D01*
X262285714Y-188380952D01*
X262857142Y-188952380D01*
X262238095Y-188952380D01*
X264642857Y-179452380D02*
X264976190Y-178976190D01*
X265214285Y-179452380D02*
X265214285Y-178452380D01*
X264833333Y-178452380D01*
X264738095Y-178500000D01*
X264690476Y-178547619D01*
X264642857Y-178642857D01*
X264642857Y-178785714D01*
X264690476Y-178880952D01*
X264738095Y-178928571D01*
X264833333Y-178976190D01*
X265214285Y-178976190D01*
X263785714Y-178785714D02*
X263785714Y-179452380D01*
X264023809Y-178404761D02*
X264261904Y-179119047D01*
X263642857Y-179119047D01*
X263071428Y-178452380D02*
X262976190Y-178452380D01*
X262880952Y-178500000D01*
X262833333Y-178547619D01*
X262785714Y-178642857D01*
X262738095Y-178833333D01*
X262738095Y-179071428D01*
X262785714Y-179261904D01*
X262833333Y-179357142D01*
X262880952Y-179404761D01*
X262976190Y-179452380D01*
X263071428Y-179452380D01*
X263166666Y-179404761D01*
X263214285Y-179357142D01*
X263261904Y-179261904D01*
X263309523Y-179071428D01*
X263309523Y-178833333D01*
X263261904Y-178642857D01*
X263214285Y-178547619D01*
X263166666Y-178500000D01*
X263071428Y-178452380D01*
X259642857Y-179452380D02*
X259976190Y-178976190D01*
X260214285Y-179452380D02*
X260214285Y-178452380D01*
X259833333Y-178452380D01*
X259738095Y-178500000D01*
X259690476Y-178547619D01*
X259642857Y-178642857D01*
X259642857Y-178785714D01*
X259690476Y-178880952D01*
X259738095Y-178928571D01*
X259833333Y-178976190D01*
X260214285Y-178976190D01*
X258785714Y-178785714D02*
X258785714Y-179452380D01*
X259023809Y-178404761D02*
X259261904Y-179119047D01*
X258642857Y-179119047D01*
X257785714Y-178452380D02*
X258261904Y-178452380D01*
X258309523Y-178928571D01*
X258261904Y-178880952D01*
X258166666Y-178833333D01*
X257928571Y-178833333D01*
X257833333Y-178880952D01*
X257785714Y-178928571D01*
X257738095Y-179023809D01*
X257738095Y-179261904D01*
X257785714Y-179357142D01*
X257833333Y-179404761D01*
X257928571Y-179452380D01*
X258166666Y-179452380D01*
X258261904Y-179404761D01*
X258309523Y-179357142D01*
X260392857Y-188952380D02*
X260726190Y-188476190D01*
X260964285Y-188952380D02*
X260964285Y-187952380D01*
X260583333Y-187952380D01*
X260488095Y-188000000D01*
X260440476Y-188047619D01*
X260392857Y-188142857D01*
X260392857Y-188285714D01*
X260440476Y-188380952D01*
X260488095Y-188428571D01*
X260583333Y-188476190D01*
X260964285Y-188476190D01*
X259535714Y-188285714D02*
X259535714Y-188952380D01*
X259773809Y-187904761D02*
X260011904Y-188619047D01*
X259392857Y-188619047D01*
X258583333Y-188285714D02*
X258583333Y-188952380D01*
X258821428Y-187904761D02*
X259059523Y-188619047D01*
X258440476Y-188619047D01*
X267702380Y-185107142D02*
X267226190Y-184773809D01*
X267702380Y-184535714D02*
X266702380Y-184535714D01*
X266702380Y-184916666D01*
X266750000Y-185011904D01*
X266797619Y-185059523D01*
X266892857Y-185107142D01*
X267035714Y-185107142D01*
X267130952Y-185059523D01*
X267178571Y-185011904D01*
X267226190Y-184916666D01*
X267226190Y-184535714D01*
X267702380Y-186059523D02*
X267702380Y-185488095D01*
X267702380Y-185773809D02*
X266702380Y-185773809D01*
X266845238Y-185678571D01*
X266940476Y-185583333D01*
X266988095Y-185488095D01*
X266702380Y-186392857D02*
X266702380Y-187011904D01*
X267083333Y-186678571D01*
X267083333Y-186821428D01*
X267130952Y-186916666D01*
X267178571Y-186964285D01*
X267273809Y-187011904D01*
X267511904Y-187011904D01*
X267607142Y-186964285D01*
X267654761Y-186916666D01*
X267702380Y-186821428D01*
X267702380Y-186535714D01*
X267654761Y-186440476D01*
X267607142Y-186392857D01*
X267392857Y-177952380D02*
X267726190Y-177476190D01*
X267964285Y-177952380D02*
X267964285Y-176952380D01*
X267583333Y-176952380D01*
X267488095Y-177000000D01*
X267440476Y-177047619D01*
X267392857Y-177142857D01*
X267392857Y-177285714D01*
X267440476Y-177380952D01*
X267488095Y-177428571D01*
X267583333Y-177476190D01*
X267964285Y-177476190D01*
X266440476Y-177952380D02*
X267011904Y-177952380D01*
X266726190Y-177952380D02*
X266726190Y-176952380D01*
X266821428Y-177095238D01*
X266916666Y-177190476D01*
X267011904Y-177238095D01*
X266059523Y-177047619D02*
X266011904Y-177000000D01*
X265916666Y-176952380D01*
X265678571Y-176952380D01*
X265583333Y-177000000D01*
X265535714Y-177047619D01*
X265488095Y-177142857D01*
X265488095Y-177238095D01*
X265535714Y-177380952D01*
X266107142Y-177952380D01*
X265488095Y-177952380D01*
D12*
X258535000Y-185977064D02*
X258535000Y-185522936D01*
X257065000Y-185977064D02*
X257065000Y-185522936D01*
X260865000Y-181977064D02*
X260865000Y-181522936D01*
X262335000Y-181977064D02*
X262335000Y-181522936D01*
X263635000Y-185977064D02*
X263635000Y-185522936D01*
X262165000Y-185977064D02*
X262165000Y-185522936D01*
X263415000Y-181977064D02*
X263415000Y-181522936D01*
X264885000Y-181977064D02*
X264885000Y-181522936D01*
X258265000Y-181977064D02*
X258265000Y-181522936D01*
X259735000Y-181977064D02*
X259735000Y-181522936D01*
X259565000Y-185977064D02*
X259565000Y-185522936D01*
X261035000Y-185977064D02*
X261035000Y-185522936D01*
X264665000Y-185977064D02*
X264665000Y-185522936D01*
X266135000Y-185977064D02*
X266135000Y-185522936D01*
X265915000Y-181977064D02*
X265915000Y-181522936D01*
X267385000Y-181977064D02*
X267385000Y-181522936D01*
M02*
